{"glyphs":{"0":{"ha":663,"x_min":36,"x_max":626,"o":"m 333 -18 q 180 19 247 -18 q 74 122 113 57 q 36 271 36 188 q 74 418 36 354 q 180 518 113 482 q 333 554 247 554 q 487 517 421 554 q 590 416 553 481 q 626 268 626 351 q 589 120 626 185 q 485 19 551 56 q 333 -18 419 -18 m 347 11 q 444 75 413 11 q 476 249 476 139 q 455 409 476 349 q 398 497 433 469 q 322 525 363 525 q 220 460 256 525 q 185 286 185 394 q 205 142 185 204 q 262 46 225 81 q 347 11 299 11 z "},"1":{"ha":461,"x_min":56,"x_max":407,"o":"m 165 424 q 158 485 165 464 q 128 513 151 506 q 58 519 106 519 q 56 528 56 519 q 58 536 56 536 q 138 535 94 536 q 231 533 181 533 q 324 535 279 533 q 403 536 368 536 q 407 528 407 536 q 403 519 407 519 q 335 513 358 519 q 304 485 313 506 q 296 424 296 464 l 296 113 q 303 51 296 72 q 333 24 310 31 q 403 17 356 17 q 407 8 407 17 q 403 0 407 0 q 324 1 368 0 q 231 3 281 3 q 138 1 182 3 q 58 0 94 0 q 56 8 56 0 q 58 17 56 17 q 126 24 103 17 q 157 51 149 31 q 165 113 165 72 l 165 424 z "},"2":{"ha":558,"x_min":44,"x_max":526,"o":"m 51 38 q 188 166 135 114 q 273 256 242 218 q 317 323 304 293 q 329 383 329 353 q 304 472 329 432 q 228 511 279 511 q 140 460 172 511 q 78 326 107 410 q 68 325 76 324 q 61 329 60 326 l 122 567 q 132 569 124 571 q 138 564 140 567 q 140 531 132 538 q 157 524 147 524 q 215 539 181 524 q 308 554 250 554 q 428 517 386 554 q 471 422 471 481 q 443 329 471 372 q 373 249 415 286 q 285 181 331 213 q 204 121 240 149 q 203 114 200 117 q 211 111 206 111 q 335 113 282 111 q 425 121 389 114 q 482 142 461 128 q 510 181 503 156 q 519 185 511 186 q 526 181 526 183 l 497 15 q 494 5 497 10 q 485 0 490 0 q 274 0 388 0 q 60 0 161 0 q 49 16 53 0 q 51 38 44 32 z "},"3":{"ha":547,"x_min":38,"x_max":504,"o":"m 75 -382 q 66 -376 69 -383 q 68 -367 63 -369 q 206 -292 151 -333 q 294 -205 261 -250 q 340 -116 326 -160 q 353 -35 353 -72 q 334 60 353 19 q 281 124 315 101 q 199 146 246 146 q 171 144 185 146 q 142 138 157 142 q 135 144 138 136 q 136 154 132 153 q 276 229 231 179 q 322 372 322 279 q 302 478 322 440 q 240 515 282 515 q 135 476 182 515 q 56 358 88 436 q 46 357 54 356 q 39 363 38 358 l 90 565 q 101 567 93 569 q 107 563 108 565 q 110 531 101 539 q 128 524 118 524 q 191 539 151 524 q 286 554 231 554 q 418 506 374 554 q 463 396 463 457 q 438 297 463 344 q 365 214 413 249 q 251 165 318 179 l 253 188 q 397 155 342 185 q 478 80 453 125 q 504 -17 504 35 q 459 -147 504 -79 q 319 -276 414 -215 q 75 -382 224 -337 z "},"4":{"ha":633,"x_min":32,"x_max":589,"o":"m 47 11 q 37 17 42 11 q 38 28 32 22 l 468 550 q 480 553 471 554 q 489 544 489 551 l 489 -187 q 478 -207 489 -201 l 368 -261 q 356 -253 356 -268 l 356 386 l 465 469 l 124 68 q 122 60 119 63 q 131 58 125 58 q 265 59 206 58 q 376 60 325 60 q 478 63 428 61 q 583 67 528 65 q 588 51 588 67 q 587 18 589 35 q 581 1 585 1 q 473 6 528 4 q 356 9 418 8 q 217 10 293 10 q 47 11 142 11 z "},"5":{"ha":568,"x_min":78,"x_max":500,"o":"m 108 272 q 336 239 250 272 q 461 147 422 206 q 500 13 500 89 q 458 -131 500 -67 q 328 -256 417 -196 q 94 -382 239 -317 q 85 -376 89 -383 q 86 -367 81 -369 q 251 -248 192 -307 q 333 -130 310 -189 q 357 -11 357 -71 q 290 167 357 103 q 94 232 222 232 q 81 249 78 232 l 125 496 q 129 508 126 506 q 143 511 132 510 q 329 534 263 525 q 426 549 396 543 q 466 565 457 556 q 479 588 475 574 q 488 591 481 592 q 494 585 496 590 l 467 431 q 454 410 463 414 q 428 406 446 406 l 164 400 q 143 381 146 400 l 118 246 l 108 272 z "},"6":{"ha":646,"x_min":51,"x_max":611,"o":"m 429 400 q 534 373 494 400 q 592 305 574 346 q 611 221 611 264 q 572 101 611 156 q 466 14 532 46 q 319 -18 400 -18 q 124 63 197 -18 q 51 288 51 143 q 112 543 51 418 q 285 767 172 668 q 556 918 399 865 q 564 913 561 919 q 563 903 567 906 q 357 744 439 842 q 234 533 275 647 q 193 307 193 419 q 213 161 193 228 q 270 55 233 94 q 357 15 307 15 q 439 58 408 15 q 469 181 469 101 q 442 297 469 251 q 354 342 414 342 q 306 332 328 342 q 256 303 283 322 q 245 303 251 299 q 240 313 239 308 q 322 376 276 351 q 429 400 368 400 z "},"7":{"ha":596,"x_min":17,"x_max":546,"o":"m 246 -294 q 234 -316 240 -308 q 217 -328 228 -324 l 103 -382 q 95 -379 99 -383 q 93 -372 92 -375 l 454 404 q 449 414 460 414 q 264 413 336 414 q 149 406 192 411 q 83 390 106 400 q 51 363 61 379 q 35 319 42 346 q 25 317 33 315 q 18 324 17 318 l 81 574 q 91 576 83 576 q 97 572 99 575 q 104 542 92 549 q 163 536 117 536 q 226 536 183 536 q 324 536 269 536 q 433 536 378 536 q 531 536 488 536 q 542 530 538 536 q 543 518 546 524 l 246 -294 z "},"8":{"ha":679,"x_min":51,"x_max":643,"o":"m 411 488 q 437 558 426 522 q 447 629 447 593 q 416 730 447 692 q 343 768 385 768 q 281 742 304 768 q 258 678 258 717 q 285 600 258 635 q 353 537 311 565 q 440 479 394 508 q 537 415 490 449 q 613 335 583 381 q 643 228 643 290 q 601 100 643 156 q 488 13 558 44 q 335 -18 418 -18 q 185 14 249 -18 q 86 98 121 46 q 51 213 51 150 q 81 324 51 271 q 166 419 111 376 q 294 485 221 461 l 303 472 q 224 382 254 442 q 194 250 194 322 q 217 133 194 188 q 281 46 240 79 q 372 13 321 13 q 450 35 418 13 q 499 95 482 58 q 515 172 515 132 q 486 266 515 228 q 413 335 457 304 q 319 394 368 365 q 232 456 274 424 q 163 528 190 488 q 136 622 136 569 q 172 724 136 686 q 258 780 207 763 q 357 797 310 797 q 470 775 424 797 q 541 719 517 753 q 565 653 565 686 q 528 559 565 610 q 419 479 490 508 l 411 488 z "},"9":{"ha":646,"x_min":36,"x_max":594,"o":"m 228 144 q 116 175 158 144 q 55 250 74 206 q 36 338 36 294 q 69 450 36 401 q 160 526 101 499 q 297 554 219 554 q 456 515 390 554 q 558 406 522 476 q 594 239 594 336 q 561 52 594 146 q 463 -127 528 -42 q 305 -278 399 -212 q 90 -382 211 -344 q 83 -376 86 -383 q 85 -367 79 -369 q 247 -258 178 -324 q 361 -112 315 -192 q 430 52 407 -32 q 453 214 453 136 q 444 316 453 263 q 415 417 435 369 q 360 495 394 465 q 278 525 326 525 q 199 483 222 525 q 176 372 176 440 q 205 247 176 296 q 293 199 233 199 q 341 209 318 199 q 392 242 364 219 q 401 241 394 246 q 406 232 408 236 q 228 144 339 144 z "},"Æ":{"ha":1233,"x_min":-15,"x_max":1171,"o":"m -10 0 q -15 8 -15 0 q -10 17 -15 17 q 97 54 49 17 q 204 183 144 92 l 604 797 q 616 842 631 833 q 515 851 601 851 q 511 860 511 851 q 515 868 511 868 l 1113 868 q 1126 856 1126 868 l 1129 671 q 1122 667 1129 668 q 1113 669 1114 665 q 1076 737 1104 700 q 1006 801 1049 774 q 914 828 964 828 l 856 828 q 811 820 829 828 q 785 796 793 813 q 776 754 776 779 l 776 118 q 783 74 776 92 q 804 48 790 57 q 840 39 818 39 l 901 39 q 1007 64 954 39 q 1100 131 1060 89 q 1156 221 1140 172 q 1164 223 1157 225 q 1171 218 1171 221 q 1163 123 1167 178 q 1158 21 1158 68 q 1138 0 1158 0 l 531 0 q 528 8 528 0 q 531 17 528 17 q 594 24 574 17 q 623 51 615 31 q 631 113 631 72 l 631 818 l 681 839 l 269 192 q 238 64 219 111 q 336 17 256 17 q 343 8 343 17 q 336 0 343 0 q 246 3 286 0 q 140 6 206 6 q 62 3 92 6 q -10 0 32 0 m 403 432 l 424 471 l 743 471 l 753 432 l 403 432 m 1060 310 q 1016 399 1060 367 q 890 432 972 432 l 669 432 l 669 471 l 892 471 q 1015 499 974 471 q 1057 576 1057 528 q 1065 581 1057 581 q 1074 576 1074 581 q 1073 505 1074 531 q 1072 451 1072 479 q 1074 383 1072 417 q 1075 310 1075 350 q 1067 307 1075 307 q 1060 310 1060 307 z "},"Ǽ":{"ha":1233,"x_min":-15,"x_max":1171,"o":"m -10 0 q -15 8 -15 0 q -10 17 -15 17 q 97 54 49 17 q 204 183 144 92 l 604 797 q 616 842 631 833 q 515 851 601 851 q 511 860 511 851 q 515 868 511 868 l 1113 868 q 1126 856 1126 868 l 1129 671 q 1122 667 1129 668 q 1113 669 1114 665 q 1076 737 1104 700 q 1006 801 1049 774 q 914 828 964 828 l 856 828 q 811 820 829 828 q 785 796 793 813 q 776 754 776 779 l 776 118 q 783 74 776 92 q 804 48 790 57 q 840 39 818 39 l 901 39 q 1007 64 954 39 q 1100 131 1060 89 q 1156 221 1140 172 q 1164 223 1157 225 q 1171 218 1171 221 q 1163 123 1167 178 q 1158 21 1158 68 q 1138 0 1158 0 l 531 0 q 528 8 528 0 q 531 17 528 17 q 594 24 574 17 q 623 51 615 31 q 631 113 631 72 l 631 818 l 681 839 l 269 192 q 238 64 219 111 q 336 17 256 17 q 343 8 343 17 q 336 0 343 0 q 246 3 286 0 q 140 6 206 6 q 62 3 92 6 q -10 0 32 0 m 403 432 l 424 471 l 743 471 l 753 432 l 403 432 m 1060 310 q 1016 399 1060 367 q 890 432 972 432 l 669 432 l 669 471 l 892 471 q 1015 499 974 471 q 1057 576 1057 528 q 1065 581 1057 581 q 1074 576 1074 581 q 1073 505 1074 531 q 1072 451 1072 479 q 1074 383 1072 417 q 1075 310 1075 350 q 1067 307 1075 307 q 1060 310 1060 307 m 669 943 q 661 948 664 940 q 663 957 658 956 q 754 1031 713 993 q 838 1101 796 1068 q 870 1101 843 1107 q 927 1083 897 1094 q 974 1063 957 1072 q 978 1050 992 1053 q 813 1001 885 1028 q 669 943 740 975 z "},"Ǣ":{"ha":1233,"x_min":-15,"x_max":1171,"o":"m -10 0 q -15 8 -15 0 q -10 17 -15 17 q 97 54 49 17 q 204 183 144 92 l 604 797 q 616 842 631 833 q 515 851 601 851 q 511 860 511 851 q 515 868 511 868 l 1113 868 q 1126 856 1126 868 l 1129 671 q 1122 667 1129 668 q 1113 669 1114 665 q 1076 737 1104 700 q 1006 801 1049 774 q 914 828 964 828 l 856 828 q 811 820 829 828 q 785 796 793 813 q 776 754 776 779 l 776 118 q 783 74 776 92 q 804 48 790 57 q 840 39 818 39 l 901 39 q 1007 64 954 39 q 1100 131 1060 89 q 1156 221 1140 172 q 1164 223 1157 225 q 1171 218 1171 221 q 1163 123 1167 178 q 1158 21 1158 68 q 1138 0 1158 0 l 531 0 q 528 8 528 0 q 531 17 528 17 q 594 24 574 17 q 623 51 615 31 q 631 113 631 72 l 631 818 l 681 839 l 269 192 q 238 64 219 111 q 336 17 256 17 q 343 8 343 17 q 336 0 343 0 q 246 3 286 0 q 140 6 206 6 q 62 3 92 6 q -10 0 32 0 m 403 432 l 424 471 l 743 471 l 753 432 l 403 432 m 1060 310 q 1016 399 1060 367 q 890 432 972 432 l 669 432 l 669 471 l 892 471 q 1015 499 974 471 q 1057 576 1057 528 q 1065 581 1057 581 q 1074 576 1074 581 q 1073 505 1074 531 q 1072 451 1072 479 q 1074 383 1072 417 q 1075 310 1075 350 q 1067 307 1075 307 q 1060 310 1060 307 m 629 990 q 617 1003 621 990 q 617 1029 614 1017 q 629 1042 621 1042 l 978 1042 q 991 1029 988 1042 q 991 1003 994 1017 q 978 990 988 990 l 629 990 z "},"B":{"ha":826,"x_min":53,"x_max":754,"o":"m 425 465 l 440 490 q 606 460 536 490 q 715 376 676 429 q 754 251 754 322 q 713 121 754 179 q 598 28 671 63 q 433 -6 525 -6 q 338 -1 396 -6 q 233 3 281 3 q 138 1 183 3 q 57 0 93 0 q 53 8 53 0 q 57 17 53 17 q 117 24 96 17 q 148 51 139 31 q 157 113 157 72 l 157 756 q 149 816 157 796 q 119 844 140 836 q 58 851 97 851 q 56 860 56 851 q 58 868 56 868 q 139 866 94 868 q 233 864 183 864 q 317 868 274 864 q 404 872 360 872 q 547 852 488 872 q 638 792 606 832 q 669 693 669 753 q 608 553 669 617 q 425 465 547 490 m 383 842 q 341 833 357 842 q 319 806 325 825 q 313 753 313 788 l 313 481 l 261 490 q 336 488 307 489 q 368 488 365 488 q 481 544 443 488 q 518 681 518 600 q 502 769 518 733 q 456 824 486 806 q 383 842 426 842 m 410 29 q 549 78 506 29 q 592 218 592 128 q 542 385 592 321 q 385 450 493 450 q 338 449 371 450 q 267 442 304 449 l 313 458 l 313 113 q 319 66 313 85 q 346 38 325 47 q 410 29 367 29 z "},"D":{"ha":979,"x_min":39,"x_max":911,"o":"m 453 -6 q 342 -1 408 -6 q 219 3 275 3 q 124 1 169 3 q 42 0 78 0 q 39 8 39 0 q 42 17 39 17 q 106 24 85 17 q 135 51 128 31 q 143 113 143 72 l 143 756 q 136 816 143 796 q 108 844 129 836 q 44 851 86 851 q 40 860 40 851 q 44 868 40 868 q 125 866 81 868 q 221 864 169 864 q 331 867 271 864 q 433 871 390 871 q 685 815 578 871 q 851 664 792 760 q 911 449 911 568 q 875 260 911 344 q 775 117 839 176 q 628 26 711 58 q 453 -6 546 -6 m 439 26 q 594 72 526 26 q 701 204 663 117 q 740 418 740 292 q 704 632 740 536 q 603 784 668 728 q 447 840 538 840 q 332 825 367 840 q 297 753 297 810 l 297 128 q 324 51 297 76 q 439 26 351 26 z "},"Ð":{"ha":979,"x_min":39,"x_max":911,"o":"m 74 413 q 68 422 69 413 q 68 442 67 432 q 74 451 69 451 l 486 451 q 492 442 490 451 q 492 422 493 432 q 486 413 490 413 l 74 413 m 453 -6 q 342 -1 408 -6 q 219 3 275 3 q 124 1 169 3 q 42 0 78 0 q 39 8 39 0 q 42 17 39 17 q 106 24 85 17 q 135 51 128 31 q 143 113 143 72 l 143 756 q 136 816 143 796 q 108 844 129 836 q 44 851 86 851 q 40 860 40 851 q 44 868 40 868 q 125 866 81 868 q 221 864 169 864 q 331 867 271 864 q 433 871 390 871 q 685 815 578 871 q 851 664 792 760 q 911 449 911 568 q 875 260 911 344 q 775 117 839 176 q 628 26 711 58 q 453 -6 546 -6 m 439 26 q 594 72 526 26 q 701 204 663 117 q 740 418 740 292 q 704 632 740 536 q 603 784 668 728 q 447 840 538 840 q 332 825 367 840 q 297 753 297 810 l 297 128 q 324 51 297 76 q 439 26 351 26 z "},"Ď":{"ha":979,"x_min":39,"x_max":911,"o":"m 453 -6 q 342 -1 408 -6 q 219 3 275 3 q 124 1 169 3 q 42 0 78 0 q 39 8 39 0 q 42 17 39 17 q 106 24 85 17 q 135 51 128 31 q 143 113 143 72 l 143 756 q 136 816 143 796 q 108 844 129 836 q 44 851 86 851 q 40 860 40 851 q 44 868 40 868 q 125 866 81 868 q 221 864 169 864 q 331 867 271 864 q 433 871 390 871 q 685 815 578 871 q 851 664 792 760 q 911 449 911 568 q 875 260 911 344 q 775 117 839 176 q 628 26 711 58 q 453 -6 546 -6 m 439 26 q 594 72 526 26 q 701 204 663 117 q 740 418 740 292 q 704 632 740 536 q 603 784 668 728 q 447 840 538 840 q 332 825 367 840 q 297 753 297 810 l 297 128 q 324 51 297 76 q 439 26 351 26 m 432 954 l 289 1114 q 292 1122 288 1118 q 297 1124 296 1126 l 449 1071 l 599 1126 q 605 1124 601 1128 q 606 1117 608 1119 l 464 954 q 449 949 458 949 q 432 954 439 949 z "},"Đ":{"ha":979,"x_min":39,"x_max":911,"o":"m 74 413 q 68 422 69 413 q 68 442 67 432 q 74 451 69 451 l 486 451 q 492 442 490 451 q 492 422 493 432 q 486 413 490 413 l 74 413 m 453 -6 q 342 -1 408 -6 q 219 3 275 3 q 124 1 169 3 q 42 0 78 0 q 39 8 39 0 q 42 17 39 17 q 106 24 85 17 q 135 51 128 31 q 143 113 143 72 l 143 756 q 136 816 143 796 q 108 844 129 836 q 44 851 86 851 q 40 860 40 851 q 44 868 40 868 q 125 866 81 868 q 221 864 169 864 q 331 867 271 864 q 433 871 390 871 q 685 815 578 871 q 851 664 792 760 q 911 449 911 568 q 875 260 911 344 q 775 117 839 176 q 628 26 711 58 q 453 -6 546 -6 m 439 26 q 594 72 526 26 q 701 204 663 117 q 740 418 740 292 q 704 632 740 536 q 603 784 668 728 q 447 840 538 840 q 332 825 367 840 q 297 753 297 810 l 297 128 q 324 51 297 76 q 439 26 351 26 z "},"Ḍ":{"ha":979,"x_min":39,"x_max":911,"o":"m 453 -6 q 342 -1 408 -6 q 219 3 275 3 q 124 1 169 3 q 42 0 78 0 q 39 8 39 0 q 42 17 39 17 q 106 24 85 17 q 135 51 128 31 q 143 113 143 72 l 143 756 q 136 816 143 796 q 108 844 129 836 q 44 851 86 851 q 40 860 40 851 q 44 868 40 868 q 125 866 81 868 q 221 864 169 864 q 331 867 271 864 q 433 871 390 871 q 685 815 578 871 q 851 664 792 760 q 911 449 911 568 q 875 260 911 344 q 775 117 839 176 q 628 26 711 58 q 453 -6 546 -6 m 439 26 q 594 72 526 26 q 701 204 663 117 q 740 418 740 292 q 704 632 740 536 q 603 784 668 728 q 447 840 538 840 q 332 825 367 840 q 297 753 297 810 l 297 128 q 324 51 297 76 q 439 26 351 26 m 468 -287 q 406 -265 429 -287 q 383 -203 383 -243 q 406 -145 383 -167 q 468 -124 429 -124 q 528 -145 507 -124 q 549 -203 549 -167 q 468 -287 549 -287 z "},"Ḏ":{"ha":979,"x_min":39,"x_max":911,"o":"m 453 -6 q 342 -1 408 -6 q 219 3 275 3 q 124 1 169 3 q 42 0 78 0 q 39 8 39 0 q 42 17 39 17 q 106 24 85 17 q 135 51 128 31 q 143 113 143 72 l 143 756 q 136 816 143 796 q 108 844 129 836 q 44 851 86 851 q 40 860 40 851 q 44 868 40 868 q 125 866 81 868 q 221 864 169 864 q 331 867 271 864 q 433 871 390 871 q 685 815 578 871 q 851 664 792 760 q 911 449 911 568 q 875 260 911 344 q 775 117 839 176 q 628 26 711 58 q 453 -6 546 -6 m 439 26 q 594 72 526 26 q 701 204 663 117 q 740 418 740 292 q 704 632 740 536 q 603 784 668 728 q 447 840 538 840 q 332 825 367 840 q 297 753 297 810 l 297 128 q 324 51 297 76 q 439 26 351 26 m 292 -169 q 281 -156 285 -169 q 281 -131 276 -143 q 292 -118 285 -118 l 640 -118 q 653 -131 650 -118 q 653 -156 657 -143 q 640 -169 650 -169 l 292 -169 z "},"E":{"ha":767,"x_min":53,"x_max":706,"o":"m 671 0 l 57 0 q 53 8 53 0 q 57 17 53 17 q 121 24 100 17 q 149 51 142 31 q 156 113 156 72 l 156 756 q 149 816 156 796 q 121 844 142 836 q 57 851 100 851 q 53 860 53 851 q 57 868 53 868 l 646 868 q 660 856 660 868 l 663 671 q 656 667 663 668 q 646 669 649 665 q 571 790 624 751 q 432 828 518 828 l 390 828 q 344 820 363 828 q 318 796 326 813 q 310 754 310 779 l 310 118 q 317 74 310 92 q 338 47 324 56 q 374 39 351 39 l 419 39 q 593 83 528 39 q 689 221 658 128 q 698 223 690 225 q 706 218 706 221 q 696 123 700 178 q 692 21 692 68 q 671 0 692 0 m 593 310 q 550 399 593 367 q 424 432 507 432 l 236 432 l 236 471 l 425 471 q 549 499 507 471 q 592 576 592 528 q 599 581 592 581 q 607 576 607 581 q 606 505 607 531 q 606 451 606 479 q 608 383 606 417 q 610 310 610 350 q 601 307 610 307 q 593 310 593 307 z "},"É":{"ha":767,"x_min":53,"x_max":706,"o":"m 671 0 l 57 0 q 53 8 53 0 q 57 17 53 17 q 121 24 100 17 q 149 51 142 31 q 156 113 156 72 l 156 756 q 149 816 156 796 q 121 844 142 836 q 57 851 100 851 q 53 860 53 851 q 57 868 53 868 l 646 868 q 660 856 660 868 l 663 671 q 656 667 663 668 q 646 669 649 665 q 571 790 624 751 q 432 828 518 828 l 390 828 q 344 820 363 828 q 318 796 326 813 q 310 754 310 779 l 310 118 q 317 74 310 92 q 338 47 324 56 q 374 39 351 39 l 419 39 q 593 83 528 39 q 689 221 658 128 q 698 223 690 225 q 706 218 706 221 q 696 123 700 178 q 692 21 692 68 q 671 0 692 0 m 593 310 q 550 399 593 367 q 424 432 507 432 l 236 432 l 236 471 l 425 471 q 549 499 507 471 q 592 576 592 528 q 599 581 592 581 q 607 576 607 581 q 606 505 607 531 q 606 451 606 479 q 608 383 606 417 q 610 310 610 350 q 601 307 610 307 q 593 310 593 307 m 279 943 q 271 948 274 940 q 272 957 268 956 q 364 1031 322 993 q 447 1101 406 1068 q 480 1101 453 1107 q 537 1083 507 1094 q 584 1063 567 1072 q 588 1050 601 1053 q 422 1001 494 1028 q 279 943 350 975 z "},"Ĕ":{"ha":767,"x_min":53,"x_max":706,"o":"m 671 0 l 57 0 q 53 8 53 0 q 57 17 53 17 q 121 24 100 17 q 149 51 142 31 q 156 113 156 72 l 156 756 q 149 816 156 796 q 121 844 142 836 q 57 851 100 851 q 53 860 53 851 q 57 868 53 868 l 646 868 q 660 856 660 868 l 663 671 q 656 667 663 668 q 646 669 649 665 q 571 790 624 751 q 432 828 518 828 l 390 828 q 344 820 363 828 q 318 796 326 813 q 310 754 310 779 l 310 118 q 317 74 310 92 q 338 47 324 56 q 374 39 351 39 l 419 39 q 593 83 528 39 q 689 221 658 128 q 698 223 690 225 q 706 218 706 221 q 696 123 700 178 q 692 21 692 68 q 671 0 692 0 m 593 310 q 550 399 593 367 q 424 432 507 432 l 236 432 l 236 471 l 425 471 q 549 499 507 471 q 592 576 592 528 q 599 581 592 581 q 607 576 607 581 q 606 505 607 531 q 606 451 606 479 q 608 383 606 417 q 610 310 610 350 q 601 307 610 307 q 593 310 593 307 m 414 958 q 308 1004 344 958 q 271 1135 271 1050 q 278 1139 271 1139 q 286 1136 286 1139 q 322 1090 286 1113 q 414 1067 358 1067 q 503 1090 467 1067 q 540 1136 540 1113 q 548 1139 540 1139 q 556 1135 556 1139 q 519 1004 556 1050 q 414 958 483 958 z "},"Ě":{"ha":767,"x_min":53,"x_max":706,"o":"m 671 0 l 57 0 q 53 8 53 0 q 57 17 53 17 q 121 24 100 17 q 149 51 142 31 q 156 113 156 72 l 156 756 q 149 816 156 796 q 121 844 142 836 q 57 851 100 851 q 53 860 53 851 q 57 868 53 868 l 646 868 q 660 856 660 868 l 663 671 q 656 667 663 668 q 646 669 649 665 q 571 790 624 751 q 432 828 518 828 l 390 828 q 344 820 363 828 q 318 796 326 813 q 310 754 310 779 l 310 118 q 317 74 310 92 q 338 47 324 56 q 374 39 351 39 l 419 39 q 593 83 528 39 q 689 221 658 128 q 698 223 690 225 q 706 218 706 221 q 696 123 700 178 q 692 21 692 68 q 671 0 692 0 m 593 310 q 550 399 593 367 q 424 432 507 432 l 236 432 l 236 471 l 425 471 q 549 499 507 471 q 592 576 592 528 q 599 581 592 581 q 607 576 607 581 q 606 505 607 531 q 606 451 606 479 q 608 383 606 417 q 610 310 610 350 q 601 307 610 307 q 593 310 593 307 m 397 954 l 254 1114 q 257 1122 253 1118 q 263 1124 261 1126 l 414 1071 l 564 1126 q 570 1124 567 1128 q 571 1117 574 1119 l 429 954 q 414 949 424 949 q 397 954 404 949 z "},"Ê":{"ha":767,"x_min":53,"x_max":706,"o":"m 671 0 l 57 0 q 53 8 53 0 q 57 17 53 17 q 121 24 100 17 q 149 51 142 31 q 156 113 156 72 l 156 756 q 149 816 156 796 q 121 844 142 836 q 57 851 100 851 q 53 860 53 851 q 57 868 53 868 l 646 868 q 660 856 660 868 l 663 671 q 656 667 663 668 q 646 669 649 665 q 571 790 624 751 q 432 828 518 828 l 390 828 q 344 820 363 828 q 318 796 326 813 q 310 754 310 779 l 310 118 q 317 74 310 92 q 338 47 324 56 q 374 39 351 39 l 419 39 q 593 83 528 39 q 689 221 658 128 q 698 223 690 225 q 706 218 706 221 q 696 123 700 178 q 692 21 692 68 q 671 0 692 0 m 593 310 q 550 399 593 367 q 424 432 507 432 l 236 432 l 236 471 l 425 471 q 549 499 507 471 q 592 576 592 528 q 599 581 592 581 q 607 576 607 581 q 606 505 607 531 q 606 451 606 479 q 608 383 606 417 q 610 310 610 350 q 601 307 610 307 q 593 310 593 307 m 256 975 l 399 1136 q 415 1143 406 1143 q 431 1136 425 1143 l 572 975 q 572 969 576 974 q 565 965 568 964 l 415 1019 l 264 965 q 258 969 263 964 q 256 975 253 974 z "},"Ế":{"ha":767,"x_min":53,"x_max":726,"o":"m 671 0 l 57 0 q 53 8 53 0 q 57 17 53 17 q 121 24 100 17 q 149 51 142 31 q 156 113 156 72 l 156 756 q 149 816 156 796 q 121 844 142 836 q 57 851 100 851 q 53 860 53 851 q 57 868 53 868 l 646 868 q 660 856 660 868 l 663 671 q 656 667 663 668 q 646 669 649 665 q 571 790 624 751 q 432 828 518 828 l 390 828 q 344 820 363 828 q 318 796 326 813 q 310 754 310 779 l 310 118 q 317 74 310 92 q 338 47 324 56 q 374 39 351 39 l 419 39 q 593 83 528 39 q 689 221 658 128 q 698 223 690 225 q 706 218 706 221 q 696 123 700 178 q 692 21 692 68 q 671 0 692 0 m 593 310 q 550 399 593 367 q 424 432 507 432 l 236 432 l 236 471 l 425 471 q 549 499 507 471 q 592 576 592 528 q 599 581 592 581 q 607 576 607 581 q 606 505 607 531 q 606 451 606 479 q 608 383 606 417 q 610 310 610 350 q 601 307 610 307 q 593 310 593 307 m 254 951 l 397 1113 q 414 1119 404 1119 q 429 1113 424 1119 l 571 951 q 571 945 575 950 q 564 942 567 940 l 414 996 l 263 942 q 256 945 261 940 q 254 951 251 950 m 504 1039 q 495 1042 499 1035 q 493 1053 492 1049 q 537 1126 515 1089 q 574 1197 558 1164 q 594 1200 576 1203 q 637 1190 613 1197 q 683 1174 661 1183 q 715 1158 704 1165 q 715 1146 726 1150 q 602 1097 651 1124 q 504 1039 553 1071 z "},"Ệ":{"ha":767,"x_min":53,"x_max":706,"o":"m 671 0 l 57 0 q 53 8 53 0 q 57 17 53 17 q 121 24 100 17 q 149 51 142 31 q 156 113 156 72 l 156 756 q 149 816 156 796 q 121 844 142 836 q 57 851 100 851 q 53 860 53 851 q 57 868 53 868 l 646 868 q 660 856 660 868 l 663 671 q 656 667 663 668 q 646 669 649 665 q 571 790 624 751 q 432 828 518 828 l 390 828 q 344 820 363 828 q 318 796 326 813 q 310 754 310 779 l 310 118 q 317 74 310 92 q 338 47 324 56 q 374 39 351 39 l 419 39 q 593 83 528 39 q 689 221 658 128 q 698 223 690 225 q 706 218 706 221 q 696 123 700 178 q 692 21 692 68 q 671 0 692 0 m 593 310 q 550 399 593 367 q 424 432 507 432 l 236 432 l 236 471 l 425 471 q 549 499 507 471 q 592 576 592 528 q 599 581 592 581 q 607 576 607 581 q 606 505 607 531 q 606 451 606 479 q 608 383 606 417 q 610 310 610 350 q 601 307 610 307 q 593 310 593 307 m 415 -287 q 353 -265 376 -287 q 331 -203 331 -243 q 353 -145 331 -167 q 415 -124 376 -124 q 475 -145 454 -124 q 496 -203 496 -167 q 415 -287 496 -287 m 254 951 l 397 1113 q 414 1119 404 1119 q 429 1113 424 1119 l 571 951 q 571 945 575 950 q 564 942 567 940 l 414 996 l 263 942 q 256 945 261 940 q 254 951 251 950 z "},"Ề":{"ha":767,"x_min":53,"x_max":706,"o":"m 671 0 l 57 0 q 53 8 53 0 q 57 17 53 17 q 121 24 100 17 q 149 51 142 31 q 156 113 156 72 l 156 756 q 149 816 156 796 q 121 844 142 836 q 57 851 100 851 q 53 860 53 851 q 57 868 53 868 l 646 868 q 660 856 660 868 l 663 671 q 656 667 663 668 q 646 669 649 665 q 571 790 624 751 q 432 828 518 828 l 390 828 q 344 820 363 828 q 318 796 326 813 q 310 754 310 779 l 310 118 q 317 74 310 92 q 338 47 324 56 q 374 39 351 39 l 419 39 q 593 83 528 39 q 689 221 658 128 q 698 223 690 225 q 706 218 706 221 q 696 123 700 178 q 692 21 692 68 q 671 0 692 0 m 593 310 q 550 399 593 367 q 424 432 507 432 l 236 432 l 236 471 l 425 471 q 549 499 507 471 q 592 576 592 528 q 599 581 592 581 q 607 576 607 581 q 606 505 607 531 q 606 451 606 479 q 608 383 606 417 q 610 310 610 350 q 601 307 610 307 q 593 310 593 307 m 254 951 l 397 1113 q 414 1119 404 1119 q 429 1113 424 1119 l 571 951 q 571 945 575 950 q 564 942 567 940 l 414 996 l 263 942 q 256 945 261 940 q 254 951 251 950 m 626 1011 q 531 1069 578 1043 q 421 1118 483 1094 q 420 1130 410 1122 q 452 1147 431 1138 q 498 1163 474 1156 q 540 1172 522 1169 q 561 1169 558 1175 q 597 1099 578 1136 q 638 1025 615 1061 q 637 1015 640 1021 q 626 1011 633 1008 z "},"Ể":{"ha":767,"x_min":53,"x_max":706,"o":"m 671 0 l 57 0 q 53 8 53 0 q 57 17 53 17 q 121 24 100 17 q 149 51 142 31 q 156 113 156 72 l 156 756 q 149 816 156 796 q 121 844 142 836 q 57 851 100 851 q 53 860 53 851 q 57 868 53 868 l 646 868 q 660 856 660 868 l 663 671 q 656 667 663 668 q 646 669 649 665 q 571 790 624 751 q 432 828 518 828 l 390 828 q 344 820 363 828 q 318 796 326 813 q 310 754 310 779 l 310 118 q 317 74 310 92 q 338 47 324 56 q 374 39 351 39 l 419 39 q 593 83 528 39 q 689 221 658 128 q 698 223 690 225 q 706 218 706 221 q 696 123 700 178 q 692 21 692 68 q 671 0 692 0 m 593 310 q 550 399 593 367 q 424 432 507 432 l 236 432 l 236 471 l 425 471 q 549 499 507 471 q 592 576 592 528 q 599 581 592 581 q 607 576 607 581 q 606 505 607 531 q 606 451 606 479 q 608 383 606 417 q 610 310 610 350 q 601 307 610 307 q 593 310 593 307 m 254 951 l 397 1113 q 414 1119 404 1119 q 429 1113 424 1119 l 571 951 q 571 945 575 950 q 564 942 567 940 l 414 996 l 263 942 q 256 945 261 940 q 254 951 251 950 m 538 1013 q 538 1056 532 1036 q 553 1095 544 1076 q 561 1133 561 1114 q 548 1167 561 1157 q 519 1176 535 1176 q 494 1172 506 1176 q 486 1175 492 1169 q 485 1183 481 1181 q 529 1203 507 1197 q 569 1208 551 1208 q 626 1191 606 1208 q 647 1149 647 1174 q 633 1110 647 1128 q 599 1078 618 1093 q 567 1047 581 1063 q 553 1013 553 1031 q 546 1010 553 1011 q 538 1013 539 1008 z "},"Ễ":{"ha":767,"x_min":53,"x_max":706,"o":"m 671 0 l 57 0 q 53 8 53 0 q 57 17 53 17 q 121 24 100 17 q 149 51 142 31 q 156 113 156 72 l 156 756 q 149 816 156 796 q 121 844 142 836 q 57 851 100 851 q 53 860 53 851 q 57 868 53 868 l 646 868 q 660 856 660 868 l 663 671 q 656 667 663 668 q 646 669 649 665 q 571 790 624 751 q 432 828 518 828 l 390 828 q 344 820 363 828 q 318 796 326 813 q 310 754 310 779 l 310 118 q 317 74 310 92 q 338 47 324 56 q 374 39 351 39 l 419 39 q 593 83 528 39 q 689 221 658 128 q 698 223 690 225 q 706 218 706 221 q 696 123 700 178 q 692 21 692 68 q 671 0 692 0 m 593 310 q 550 399 593 367 q 424 432 507 432 l 236 432 l 236 471 l 425 471 q 549 499 507 471 q 592 576 592 528 q 599 581 592 581 q 607 576 607 581 q 606 505 607 531 q 606 451 606 479 q 608 383 606 417 q 610 310 610 350 q 601 307 610 307 q 593 310 593 307 m 254 951 l 397 1113 q 414 1119 404 1119 q 429 1113 424 1119 l 571 951 q 571 945 575 950 q 564 942 567 940 l 414 996 l 263 942 q 256 945 261 940 q 254 951 251 950 m 529 1213 q 567 1221 553 1213 q 600 1250 582 1229 q 608 1249 603 1253 q 610 1240 613 1244 q 549 1151 572 1172 q 494 1129 526 1129 q 441 1138 469 1129 q 383 1154 413 1146 q 321 1163 353 1163 q 278 1153 290 1163 q 250 1125 267 1143 q 242 1128 247 1124 q 240 1135 238 1132 q 269 1182 251 1156 q 311 1228 288 1208 q 361 1247 335 1247 q 408 1239 381 1247 q 468 1222 436 1231 q 529 1213 500 1213 z "},"Ȅ":{"ha":767,"x_min":53,"x_max":706,"o":"m 671 0 l 57 0 q 53 8 53 0 q 57 17 53 17 q 121 24 100 17 q 149 51 142 31 q 156 113 156 72 l 156 756 q 149 816 156 796 q 121 844 142 836 q 57 851 100 851 q 53 860 53 851 q 57 868 53 868 l 646 868 q 660 856 660 868 l 663 671 q 656 667 663 668 q 646 669 649 665 q 571 790 624 751 q 432 828 518 828 l 390 828 q 344 820 363 828 q 318 796 326 813 q 310 754 310 779 l 310 118 q 317 74 310 92 q 338 47 324 56 q 374 39 351 39 l 419 39 q 593 83 528 39 q 689 221 658 128 q 698 223 690 225 q 706 218 706 221 q 696 123 700 178 q 692 21 692 68 q 671 0 692 0 m 593 310 q 550 399 593 367 q 424 432 507 432 l 236 432 l 236 471 l 425 471 q 549 499 507 471 q 592 576 592 528 q 599 581 592 581 q 607 576 607 581 q 606 505 607 531 q 606 451 606 479 q 608 383 606 417 q 610 310 610 350 q 601 307 610 307 q 593 310 593 307 m 568 928 q 579 931 575 925 q 579 942 583 936 q 513 1031 544 986 q 454 1118 481 1075 q 428 1120 451 1125 q 378 1105 406 1115 q 335 1083 351 1094 q 329 1067 318 1072 q 456 1001 400 1035 q 568 928 513 968 m 357 928 q 367 931 364 925 q 368 942 371 936 q 301 1030 332 985 q 243 1118 271 1075 q 217 1120 240 1125 q 167 1105 194 1115 q 124 1083 140 1094 q 118 1067 107 1072 q 245 1001 189 1035 q 357 928 301 968 z "},"Ë":{"ha":767,"x_min":53,"x_max":706,"o":"m 671 0 l 57 0 q 53 8 53 0 q 57 17 53 17 q 121 24 100 17 q 149 51 142 31 q 156 113 156 72 l 156 756 q 149 816 156 796 q 121 844 142 836 q 57 851 100 851 q 53 860 53 851 q 57 868 53 868 l 646 868 q 660 856 660 868 l 663 671 q 656 667 663 668 q 646 669 649 665 q 571 790 624 751 q 432 828 518 828 l 390 828 q 344 820 363 828 q 318 796 326 813 q 310 754 310 779 l 310 118 q 317 74 310 92 q 338 47 324 56 q 374 39 351 39 l 419 39 q 593 83 528 39 q 689 221 658 128 q 698 223 690 225 q 706 218 706 221 q 696 123 700 178 q 692 21 692 68 q 671 0 692 0 m 593 310 q 550 399 593 367 q 424 432 507 432 l 236 432 l 236 471 l 425 471 q 549 499 507 471 q 592 576 592 528 q 599 581 592 581 q 607 576 607 581 q 606 505 607 531 q 606 451 606 479 q 608 383 606 417 q 610 310 610 350 q 601 307 610 307 q 593 310 593 307 m 294 976 q 239 997 260 976 q 218 1053 218 1017 q 239 1106 218 1086 q 294 1125 260 1125 q 348 1106 329 1125 q 367 1053 367 1086 q 294 976 367 976 m 536 976 q 481 997 501 976 q 461 1053 461 1017 q 481 1105 461 1086 q 536 1124 501 1124 q 608 1053 608 1124 q 536 976 608 976 z "},"Ė":{"ha":767,"x_min":53,"x_max":706,"o":"m 671 0 l 57 0 q 53 8 53 0 q 57 17 53 17 q 121 24 100 17 q 149 51 142 31 q 156 113 156 72 l 156 756 q 149 816 156 796 q 121 844 142 836 q 57 851 100 851 q 53 860 53 851 q 57 868 53 868 l 646 868 q 660 856 660 868 l 663 671 q 656 667 663 668 q 646 669 649 665 q 571 790 624 751 q 432 828 518 828 l 390 828 q 344 820 363 828 q 318 796 326 813 q 310 754 310 779 l 310 118 q 317 74 310 92 q 338 47 324 56 q 374 39 351 39 l 419 39 q 593 83 528 39 q 689 221 658 128 q 698 223 690 225 q 706 218 706 221 q 696 123 700 178 q 692 21 692 68 q 671 0 692 0 m 593 310 q 550 399 593 367 q 424 432 507 432 l 236 432 l 236 471 l 425 471 q 549 499 507 471 q 592 576 592 528 q 599 581 592 581 q 607 576 607 581 q 606 505 607 531 q 606 451 606 479 q 608 383 606 417 q 610 310 610 350 q 601 307 610 307 q 593 310 593 307 m 415 990 q 353 1013 376 990 q 331 1075 331 1036 q 353 1133 331 1111 q 415 1156 376 1156 q 475 1133 454 1156 q 496 1075 496 1111 q 475 1013 496 1036 q 415 990 454 990 z "},"Ẹ":{"ha":767,"x_min":53,"x_max":706,"o":"m 671 0 l 57 0 q 53 8 53 0 q 57 17 53 17 q 121 24 100 17 q 149 51 142 31 q 156 113 156 72 l 156 756 q 149 816 156 796 q 121 844 142 836 q 57 851 100 851 q 53 860 53 851 q 57 868 53 868 l 646 868 q 660 856 660 868 l 663 671 q 656 667 663 668 q 646 669 649 665 q 571 790 624 751 q 432 828 518 828 l 390 828 q 344 820 363 828 q 318 796 326 813 q 310 754 310 779 l 310 118 q 317 74 310 92 q 338 47 324 56 q 374 39 351 39 l 419 39 q 593 83 528 39 q 689 221 658 128 q 698 223 690 225 q 706 218 706 221 q 696 123 700 178 q 692 21 692 68 q 671 0 692 0 m 593 310 q 550 399 593 367 q 424 432 507 432 l 236 432 l 236 471 l 425 471 q 549 499 507 471 q 592 576 592 528 q 599 581 592 581 q 607 576 607 581 q 606 505 607 531 q 606 451 606 479 q 608 383 606 417 q 610 310 610 350 q 601 307 610 307 q 593 310 593 307 m 415 -287 q 353 -265 376 -287 q 331 -203 331 -243 q 353 -145 331 -167 q 415 -124 376 -124 q 475 -145 454 -124 q 496 -203 496 -167 q 415 -287 496 -287 z "},"È":{"ha":767,"x_min":53,"x_max":706,"o":"m 671 0 l 57 0 q 53 8 53 0 q 57 17 53 17 q 121 24 100 17 q 149 51 142 31 q 156 113 156 72 l 156 756 q 149 816 156 796 q 121 844 142 836 q 57 851 100 851 q 53 860 53 851 q 57 868 53 868 l 646 868 q 660 856 660 868 l 663 671 q 656 667 663 668 q 646 669 649 665 q 571 790 624 751 q 432 828 518 828 l 390 828 q 344 820 363 828 q 318 796 326 813 q 310 754 310 779 l 310 118 q 317 74 310 92 q 338 47 324 56 q 374 39 351 39 l 419 39 q 593 83 528 39 q 689 221 658 128 q 698 223 690 225 q 706 218 706 221 q 696 123 700 178 q 692 21 692 68 q 671 0 692 0 m 593 310 q 550 399 593 367 q 424 432 507 432 l 236 432 l 236 471 l 425 471 q 549 499 507 471 q 592 576 592 528 q 599 581 592 581 q 607 576 607 581 q 606 505 607 531 q 606 451 606 479 q 608 383 606 417 q 610 310 610 350 q 601 307 610 307 q 593 310 593 307 m 553 943 q 409 1001 482 975 q 244 1050 336 1028 q 248 1063 231 1053 q 295 1083 265 1072 q 352 1101 325 1094 q 385 1101 379 1107 q 468 1031 426 1068 q 558 957 510 993 q 562 948 564 956 q 553 943 560 940 z "},"Ẻ":{"ha":767,"x_min":53,"x_max":706,"o":"m 671 0 l 57 0 q 53 8 53 0 q 57 17 53 17 q 121 24 100 17 q 149 51 142 31 q 156 113 156 72 l 156 756 q 149 816 156 796 q 121 844 142 836 q 57 851 100 851 q 53 860 53 851 q 57 868 53 868 l 646 868 q 660 856 660 868 l 663 671 q 656 667 663 668 q 646 669 649 665 q 571 790 624 751 q 432 828 518 828 l 390 828 q 344 820 363 828 q 318 796 326 813 q 310 754 310 779 l 310 118 q 317 74 310 92 q 338 47 324 56 q 374 39 351 39 l 419 39 q 593 83 528 39 q 689 221 658 128 q 698 223 690 225 q 706 218 706 221 q 696 123 700 178 q 692 21 692 68 q 671 0 692 0 m 593 310 q 550 399 593 367 q 424 432 507 432 l 236 432 l 236 471 l 425 471 q 549 499 507 471 q 592 576 592 528 q 599 581 592 581 q 607 576 607 581 q 606 505 607 531 q 606 451 606 479 q 608 383 606 417 q 610 310 610 350 q 601 307 610 307 q 593 310 593 307 m 415 904 q 408 902 415 903 q 399 904 400 901 q 398 961 393 936 q 411 1008 403 986 q 427 1050 419 1029 q 435 1096 435 1071 q 425 1134 435 1122 q 396 1146 415 1146 q 372 1142 385 1146 q 346 1132 360 1139 q 337 1135 342 1131 q 336 1143 332 1140 q 390 1172 360 1163 q 450 1182 419 1182 q 521 1163 494 1182 q 547 1110 547 1144 q 527 1052 547 1079 q 481 1001 507 1025 q 435 953 454 976 q 415 904 415 929 z "},"Ȇ":{"ha":767,"x_min":53,"x_max":706,"o":"m 671 0 l 57 0 q 53 8 53 0 q 57 17 53 17 q 121 24 100 17 q 149 51 142 31 q 156 113 156 72 l 156 756 q 149 816 156 796 q 121 844 142 836 q 57 851 100 851 q 53 860 53 851 q 57 868 53 868 l 646 868 q 660 856 660 868 l 663 671 q 656 667 663 668 q 646 669 649 665 q 571 790 624 751 q 432 828 518 828 l 390 828 q 344 820 363 828 q 318 796 326 813 q 310 754 310 779 l 310 118 q 317 74 310 92 q 338 47 324 56 q 374 39 351 39 l 419 39 q 593 83 528 39 q 689 221 658 128 q 698 223 690 225 q 706 218 706 221 q 696 123 700 178 q 692 21 692 68 q 671 0 692 0 m 593 310 q 550 399 593 367 q 424 432 507 432 l 236 432 l 236 471 l 425 471 q 549 499 507 471 q 592 576 592 528 q 599 581 592 581 q 607 576 607 581 q 606 505 607 531 q 606 451 606 479 q 608 383 606 417 q 610 310 610 350 q 601 307 610 307 q 593 310 593 307 m 286 944 q 278 940 286 940 q 271 946 271 940 q 414 1121 271 1121 q 556 946 556 1121 q 548 940 556 940 q 540 944 540 940 q 503 991 540 968 q 414 1014 467 1014 q 322 991 358 1014 q 286 944 286 968 z "},"Ē":{"ha":767,"x_min":53,"x_max":706,"o":"m 671 0 l 57 0 q 53 8 53 0 q 57 17 53 17 q 121 24 100 17 q 149 51 142 31 q 156 113 156 72 l 156 756 q 149 816 156 796 q 121 844 142 836 q 57 851 100 851 q 53 860 53 851 q 57 868 53 868 l 646 868 q 660 856 660 868 l 663 671 q 656 667 663 668 q 646 669 649 665 q 571 790 624 751 q 432 828 518 828 l 390 828 q 344 820 363 828 q 318 796 326 813 q 310 754 310 779 l 310 118 q 317 74 310 92 q 338 47 324 56 q 374 39 351 39 l 419 39 q 593 83 528 39 q 689 221 658 128 q 698 223 690 225 q 706 218 706 221 q 696 123 700 178 q 692 21 692 68 q 671 0 692 0 m 593 310 q 550 399 593 367 q 424 432 507 432 l 236 432 l 236 471 l 425 471 q 549 499 507 471 q 592 576 592 528 q 599 581 592 581 q 607 576 607 581 q 606 505 607 531 q 606 451 606 479 q 608 383 606 417 q 610 310 610 350 q 601 307 610 307 q 593 310 593 307 m 239 990 q 227 1003 231 990 q 227 1029 224 1017 q 239 1042 231 1042 l 588 1042 q 601 1029 597 1042 q 601 1003 604 1017 q 588 990 597 990 l 239 990 z "},"Ę":{"ha":767,"x_min":53,"x_max":713,"o":"m 671 0 l 57 0 q 53 8 53 0 q 57 17 53 17 q 121 24 100 17 q 149 51 142 31 q 156 113 156 72 l 156 756 q 149 816 156 796 q 121 844 142 836 q 57 851 100 851 q 53 860 53 851 q 57 868 53 868 l 646 868 q 660 856 660 868 l 663 671 q 656 667 663 668 q 646 669 649 665 q 571 790 624 751 q 432 828 518 828 l 390 828 q 344 820 363 828 q 318 796 326 813 q 310 754 310 779 l 310 118 q 317 74 310 92 q 338 47 324 56 q 374 39 351 39 l 419 39 q 593 83 528 39 q 689 221 658 128 q 698 223 690 225 q 706 218 706 221 q 696 123 700 178 q 692 21 692 68 q 671 0 692 0 m 593 310 q 550 399 593 367 q 424 432 507 432 l 236 432 l 236 471 l 425 471 q 549 499 507 471 q 592 576 592 528 q 599 581 592 581 q 607 576 607 581 q 606 505 607 531 q 606 451 606 479 q 608 383 606 417 q 610 310 610 350 q 601 307 610 307 q 593 310 593 307 m 567 8 l 586 1 q 524 -77 543 -40 q 504 -162 504 -114 q 540 -278 504 -233 q 639 -324 575 -324 q 672 -319 654 -324 q 699 -308 690 -314 q 708 -311 703 -306 q 708 -319 713 -317 q 628 -367 668 -353 q 553 -382 589 -382 q 435 -337 482 -382 q 389 -229 389 -293 q 433 -113 389 -172 q 567 8 476 -54 z "},"Ẽ":{"ha":767,"x_min":53,"x_max":706,"o":"m 671 0 l 57 0 q 53 8 53 0 q 57 17 53 17 q 121 24 100 17 q 149 51 142 31 q 156 113 156 72 l 156 756 q 149 816 156 796 q 121 844 142 836 q 57 851 100 851 q 53 860 53 851 q 57 868 53 868 l 646 868 q 660 856 660 868 l 663 671 q 656 667 663 668 q 646 669 649 665 q 571 790 624 751 q 432 828 518 828 l 390 828 q 344 820 363 828 q 318 796 326 813 q 310 754 310 779 l 310 118 q 317 74 310 92 q 338 47 324 56 q 374 39 351 39 l 419 39 q 593 83 528 39 q 689 221 658 128 q 698 223 690 225 q 706 218 706 221 q 696 123 700 178 q 692 21 692 68 q 671 0 692 0 m 593 310 q 550 399 593 367 q 424 432 507 432 l 236 432 l 236 471 l 425 471 q 549 499 507 471 q 592 576 592 528 q 599 581 592 581 q 607 576 607 581 q 606 505 607 531 q 606 451 606 479 q 608 383 606 417 q 610 310 610 350 q 601 307 610 307 q 593 310 593 307 m 518 1060 q 556 1068 542 1060 q 589 1097 571 1076 q 597 1096 592 1100 q 599 1088 601 1092 q 538 998 561 1019 q 483 976 515 976 q 430 985 458 976 q 372 1001 401 993 q 310 1010 342 1010 q 267 1000 279 1010 q 239 972 256 990 q 231 975 236 971 q 229 982 226 979 q 258 1029 240 1003 q 300 1075 276 1056 q 350 1094 324 1094 q 397 1086 369 1094 q 457 1069 425 1078 q 518 1060 489 1060 z "},"F":{"ha":725,"x_min":43,"x_max":663,"o":"m 47 0 q 43 8 43 0 q 47 17 43 17 q 117 24 94 17 q 148 51 140 31 q 156 113 156 72 l 156 756 q 149 816 156 796 q 121 844 142 836 q 57 851 100 851 q 53 860 53 851 q 57 868 53 868 l 646 868 q 660 856 660 868 l 663 671 q 656 667 663 668 q 646 669 649 665 q 571 790 624 751 q 432 828 518 828 l 390 828 q 329 810 349 828 q 310 754 310 792 l 310 118 q 321 55 310 76 q 364 25 332 33 q 458 17 396 17 q 461 8 461 17 q 458 0 461 0 q 356 1 411 0 q 228 3 301 3 q 131 1 178 3 q 47 0 83 0 m 576 294 q 533 383 576 350 q 408 415 490 415 l 236 415 l 236 454 l 410 454 q 533 483 492 454 q 575 561 575 513 q 583 564 575 564 q 592 561 592 564 q 591 488 592 514 q 590 435 590 463 q 592 367 590 400 q 593 294 593 333 q 585 290 593 290 q 576 294 576 290 z "},"Ǧ":{"ha":999,"x_min":68,"x_max":954,"o":"m 568 -17 q 299 42 411 -17 q 127 202 186 101 q 68 425 68 303 q 108 612 68 528 q 219 756 147 696 q 386 850 290 817 q 594 883 482 883 q 724 874 657 883 q 833 846 792 864 q 849 835 846 842 q 854 814 853 829 l 872 621 q 865 615 872 617 q 856 619 858 614 q 723 785 808 725 q 526 846 638 846 q 309 745 382 846 q 236 478 236 644 q 284 231 236 338 q 415 66 332 125 q 603 7 497 7 q 688 19 656 7 q 734 68 719 32 q 749 175 749 104 q 741 273 749 242 q 704 314 733 304 q 611 324 675 324 q 603 335 603 324 q 610 346 603 346 q 783 340 706 340 q 947 343 861 339 q 954 333 954 343 q 947 324 954 324 q 913 315 924 325 q 900 269 903 304 q 897 161 897 235 q 900 93 897 115 q 905 60 903 71 q 907 39 907 50 q 903 28 907 31 q 890 22 900 25 q 730 -6 814 6 q 568 -17 646 -17 m 531 954 l 388 1114 q 390 1122 386 1118 q 396 1124 394 1126 l 547 1071 l 697 1126 q 703 1124 700 1128 q 704 1117 707 1119 l 563 954 q 547 949 557 949 q 531 954 538 949 z "},"Ḡ":{"ha":999,"x_min":68,"x_max":954,"o":"m 568 -17 q 299 42 411 -17 q 127 202 186 101 q 68 425 68 303 q 108 612 68 528 q 219 756 147 696 q 386 850 290 817 q 594 883 482 883 q 724 874 657 883 q 833 846 792 864 q 849 835 846 842 q 854 814 853 829 l 872 621 q 865 615 872 617 q 856 619 858 614 q 723 785 808 725 q 526 846 638 846 q 309 745 382 846 q 236 478 236 644 q 284 231 236 338 q 415 66 332 125 q 603 7 497 7 q 688 19 656 7 q 734 68 719 32 q 749 175 749 104 q 741 273 749 242 q 704 314 733 304 q 611 324 675 324 q 603 335 603 324 q 610 346 603 346 q 783 340 706 340 q 947 343 861 339 q 954 333 954 343 q 947 324 954 324 q 913 315 924 325 q 900 269 903 304 q 897 161 897 235 q 900 93 897 115 q 905 60 903 71 q 907 39 907 50 q 903 28 907 31 q 890 22 900 25 q 730 -6 814 6 q 568 -17 646 -17 m 372 990 q 360 1003 364 990 q 360 1029 357 1017 q 372 1042 364 1042 l 721 1042 q 734 1029 731 1042 q 734 1003 738 1017 q 721 990 731 990 l 372 990 z "},"H":{"ha":1061,"x_min":39,"x_max":1021,"o":"m 754 753 q 747 814 754 793 q 714 843 739 835 q 639 851 689 851 q 635 860 635 851 q 639 868 635 868 q 722 866 675 868 q 832 864 768 864 q 931 866 882 864 q 1017 868 981 868 q 1021 860 1021 868 q 1017 851 1021 851 q 947 844 971 851 q 916 816 924 836 q 908 756 908 796 l 908 113 q 916 51 908 72 q 947 24 924 31 q 1017 17 971 17 q 1021 8 1021 17 q 1017 0 1021 0 q 931 1 981 0 q 832 3 882 3 q 722 1 768 3 q 639 0 675 0 q 635 8 635 0 q 639 17 635 17 q 714 24 689 17 q 747 51 739 31 q 754 113 754 72 l 754 753 m 224 432 l 224 471 l 825 471 l 825 432 l 224 432 m 151 113 l 151 756 q 144 816 151 796 q 113 844 136 836 q 44 851 90 851 q 40 860 40 851 q 44 868 40 868 q 126 866 81 868 q 222 864 172 864 q 334 866 286 864 q 421 868 382 868 q 424 860 424 868 q 421 851 424 851 q 347 843 372 851 q 314 814 322 835 q 306 753 306 793 l 306 113 q 314 51 306 72 q 347 24 322 31 q 421 17 372 17 q 424 8 424 17 q 421 0 424 0 q 333 1 381 0 q 222 3 286 3 q 125 1 172 3 q 42 0 78 0 q 39 8 39 0 q 42 17 39 17 q 112 24 89 17 q 143 51 135 31 q 151 113 151 72 z "},"Ħ":{"ha":1061,"x_min":39,"x_max":1021,"o":"m 754 753 q 747 814 754 793 q 714 843 739 835 q 639 851 689 851 q 635 860 635 851 q 639 868 635 868 q 722 866 675 868 q 832 864 768 864 q 931 866 882 864 q 1017 868 981 868 q 1021 860 1021 868 q 1017 851 1021 851 q 947 844 971 851 q 916 816 924 836 q 908 756 908 796 l 908 113 q 916 51 908 72 q 947 24 924 31 q 1017 17 971 17 q 1021 8 1021 17 q 1017 0 1021 0 q 931 1 981 0 q 832 3 882 3 q 722 1 768 3 q 639 0 675 0 q 635 8 635 0 q 639 17 635 17 q 714 24 689 17 q 747 51 739 31 q 754 113 754 72 l 754 753 m 224 563 l 224 601 l 825 601 l 825 563 l 224 563 m 151 113 l 151 756 q 144 816 151 796 q 113 844 136 836 q 44 851 90 851 q 40 860 40 851 q 44 868 40 868 q 126 866 81 868 q 222 864 172 864 q 334 866 286 864 q 421 868 382 868 q 424 860 424 868 q 421 851 424 851 q 347 843 372 851 q 314 814 322 835 q 306 753 306 793 l 306 113 q 314 51 306 72 q 347 24 322 31 q 421 17 372 17 q 424 8 424 17 q 421 0 424 0 q 333 1 381 0 q 222 3 286 3 q 125 1 172 3 q 42 0 78 0 q 39 8 39 0 q 42 17 39 17 q 112 24 89 17 q 143 51 135 31 q 151 113 151 72 m 224 303 l 224 342 l 825 342 l 825 303 l 224 303 z "},"Ḫ":{"ha":1061,"x_min":39,"x_max":1021,"o":"m 754 753 q 747 814 754 793 q 714 843 739 835 q 639 851 689 851 q 635 860 635 851 q 639 868 635 868 q 722 866 675 868 q 832 864 768 864 q 931 866 882 864 q 1017 868 981 868 q 1021 860 1021 868 q 1017 851 1021 851 q 947 844 971 851 q 916 816 924 836 q 908 756 908 796 l 908 113 q 916 51 908 72 q 947 24 924 31 q 1017 17 971 17 q 1021 8 1021 17 q 1017 0 1021 0 q 931 1 981 0 q 832 3 882 3 q 722 1 768 3 q 639 0 675 0 q 635 8 635 0 q 639 17 635 17 q 714 24 689 17 q 747 51 739 31 q 754 113 754 72 l 754 753 m 224 432 l 224 471 l 825 471 l 825 432 l 224 432 m 151 113 l 151 756 q 144 816 151 796 q 113 844 136 836 q 44 851 90 851 q 40 860 40 851 q 44 868 40 868 q 126 866 81 868 q 222 864 172 864 q 334 866 286 864 q 421 868 382 868 q 424 860 424 868 q 421 851 424 851 q 347 843 372 851 q 314 814 322 835 q 306 753 306 793 l 306 113 q 314 51 306 72 q 347 24 322 31 q 421 17 372 17 q 424 8 424 17 q 421 0 424 0 q 333 1 381 0 q 222 3 286 3 q 125 1 172 3 q 42 0 78 0 q 39 8 39 0 q 42 17 39 17 q 112 24 89 17 q 143 51 135 31 q 151 113 151 72 m 388 -107 q 395 -103 388 -103 q 403 -106 403 -103 q 439 -183 403 -149 q 531 -217 475 -217 q 620 -183 583 -217 q 657 -106 657 -149 q 665 -103 657 -103 q 672 -107 672 -103 q 636 -274 672 -217 q 531 -332 600 -332 q 424 -274 461 -332 q 388 -107 388 -217 z "},"Ĥ":{"ha":1061,"x_min":39,"x_max":1021,"o":"m 754 753 q 747 814 754 793 q 714 843 739 835 q 639 851 689 851 q 635 860 635 851 q 639 868 635 868 q 722 866 675 868 q 832 864 768 864 q 931 866 882 864 q 1017 868 981 868 q 1021 860 1021 868 q 1017 851 1021 851 q 947 844 971 851 q 916 816 924 836 q 908 756 908 796 l 908 113 q 916 51 908 72 q 947 24 924 31 q 1017 17 971 17 q 1021 8 1021 17 q 1017 0 1021 0 q 931 1 981 0 q 832 3 882 3 q 722 1 768 3 q 639 0 675 0 q 635 8 635 0 q 639 17 635 17 q 714 24 689 17 q 747 51 739 31 q 754 113 754 72 l 754 753 m 224 432 l 224 471 l 825 471 l 825 432 l 224 432 m 151 113 l 151 756 q 144 816 151 796 q 113 844 136 836 q 44 851 90 851 q 40 860 40 851 q 44 868 40 868 q 126 866 81 868 q 222 864 172 864 q 334 866 286 864 q 421 868 382 868 q 424 860 424 868 q 421 851 424 851 q 347 843 372 851 q 314 814 322 835 q 306 753 306 793 l 306 113 q 314 51 306 72 q 347 24 322 31 q 421 17 372 17 q 424 8 424 17 q 421 0 424 0 q 333 1 381 0 q 222 3 286 3 q 125 1 172 3 q 42 0 78 0 q 39 8 39 0 q 42 17 39 17 q 112 24 89 17 q 143 51 135 31 q 151 113 151 72 m 376 975 l 519 1136 q 536 1143 526 1143 q 551 1136 546 1143 l 693 975 q 693 969 697 974 q 686 965 689 964 l 536 1019 l 385 965 q 378 969 383 964 q 376 975 374 974 z "},"Ḥ":{"ha":1061,"x_min":39,"x_max":1021,"o":"m 754 753 q 747 814 754 793 q 714 843 739 835 q 639 851 689 851 q 635 860 635 851 q 639 868 635 868 q 722 866 675 868 q 832 864 768 864 q 931 866 882 864 q 1017 868 981 868 q 1021 860 1021 868 q 1017 851 1021 851 q 947 844 971 851 q 916 816 924 836 q 908 756 908 796 l 908 113 q 916 51 908 72 q 947 24 924 31 q 1017 17 971 17 q 1021 8 1021 17 q 1017 0 1021 0 q 931 1 981 0 q 832 3 882 3 q 722 1 768 3 q 639 0 675 0 q 635 8 635 0 q 639 17 635 17 q 714 24 689 17 q 747 51 739 31 q 754 113 754 72 l 754 753 m 224 432 l 224 471 l 825 471 l 825 432 l 224 432 m 151 113 l 151 756 q 144 816 151 796 q 113 844 136 836 q 44 851 90 851 q 40 860 40 851 q 44 868 40 868 q 126 866 81 868 q 222 864 172 864 q 334 866 286 864 q 421 868 382 868 q 424 860 424 868 q 421 851 424 851 q 347 843 372 851 q 314 814 322 835 q 306 753 306 793 l 306 113 q 314 51 306 72 q 347 24 322 31 q 421 17 372 17 q 424 8 424 17 q 421 0 424 0 q 333 1 381 0 q 222 3 286 3 q 125 1 172 3 q 42 0 78 0 q 39 8 39 0 q 42 17 39 17 q 112 24 89 17 q 143 51 135 31 q 151 113 151 72 m 532 -287 q 470 -265 493 -287 q 447 -203 447 -243 q 470 -145 447 -167 q 532 -124 493 -124 q 592 -145 571 -124 q 613 -203 613 -167 q 532 -287 613 -287 z "},"I":{"ha":475,"x_min":56,"x_max":418,"o":"m 315 113 q 322 51 315 72 q 350 24 329 31 q 414 17 371 17 q 418 8 418 17 q 414 0 418 0 q 333 1 378 0 q 236 3 289 3 q 140 1 186 3 q 58 0 94 0 q 56 8 56 0 q 58 17 56 17 q 123 24 101 17 q 152 51 144 31 q 160 113 160 72 l 160 756 q 152 816 160 796 q 123 844 144 836 q 58 851 101 851 q 56 860 56 851 q 58 868 56 868 q 140 866 94 868 q 236 864 186 864 q 334 866 289 864 q 414 868 379 868 q 418 860 418 868 q 414 851 418 851 q 351 843 372 851 q 322 814 329 835 q 315 753 315 793 l 315 113 z "},"Ĳ":{"ha":971,"x_min":49,"x_max":935,"o":"m 307 486 q 314 425 307 446 q 342 397 321 404 q 408 390 364 390 q 411 382 411 390 q 408 374 411 374 q 326 375 371 374 q 229 376 282 376 q 134 375 179 376 q 51 374 89 374 q 49 382 49 374 q 51 390 49 390 q 116 397 94 390 q 145 425 138 404 q 153 486 153 446 l 153 756 q 145 816 153 796 q 116 844 138 836 q 51 851 94 851 q 49 860 49 851 q 51 868 49 868 q 134 866 89 868 q 229 864 179 864 q 328 866 282 864 q 408 868 374 868 q 411 860 411 868 q 408 851 411 851 q 344 843 365 851 q 315 814 322 835 q 307 753 307 793 l 307 486 m 931 868 q 935 860 935 868 q 931 851 935 851 q 863 832 878 851 q 849 753 849 813 l 849 358 q 802 152 849 236 q 672 25 756 68 q 479 -18 589 -18 q 306 11 383 -18 q 185 85 229 40 q 140 181 140 131 q 161 238 140 213 q 226 263 182 263 q 281 244 264 263 q 306 198 299 226 q 321 137 314 169 q 342 76 328 104 q 389 29 357 47 q 481 11 421 11 q 643 83 594 11 q 692 278 692 154 l 692 756 q 683 816 692 796 q 650 844 675 836 q 575 851 625 851 q 572 860 572 851 q 575 868 572 868 q 667 866 618 868 q 768 864 715 864 q 858 866 817 864 q 931 868 899 868 z "},"Í":{"ha":475,"x_min":56,"x_max":425,"o":"m 315 113 q 322 51 315 72 q 350 24 329 31 q 414 17 371 17 q 418 8 418 17 q 414 0 418 0 q 333 1 378 0 q 236 3 289 3 q 140 1 186 3 q 58 0 94 0 q 56 8 56 0 q 58 17 56 17 q 123 24 101 17 q 152 51 144 31 q 160 113 160 72 l 160 756 q 152 816 160 796 q 123 844 144 836 q 58 851 101 851 q 56 860 56 851 q 58 868 56 868 q 140 866 94 868 q 236 864 186 864 q 334 866 289 864 q 414 868 379 868 q 418 860 418 868 q 414 851 418 851 q 351 843 372 851 q 322 814 329 835 q 315 753 315 793 l 315 113 m 103 943 q 94 948 97 940 q 96 957 92 956 q 188 1031 146 993 q 271 1101 229 1068 q 303 1101 276 1107 q 360 1083 331 1094 q 408 1063 390 1072 q 411 1050 425 1053 q 246 1001 318 1028 q 103 943 174 975 z "},"Ĭ":{"ha":475,"x_min":56,"x_max":418,"o":"m 315 113 q 322 51 315 72 q 350 24 329 31 q 414 17 371 17 q 418 8 418 17 q 414 0 418 0 q 333 1 378 0 q 236 3 289 3 q 140 1 186 3 q 58 0 94 0 q 56 8 56 0 q 58 17 56 17 q 123 24 101 17 q 152 51 144 31 q 160 113 160 72 l 160 756 q 152 816 160 796 q 123 844 144 836 q 58 851 101 851 q 56 860 56 851 q 58 868 56 868 q 140 866 94 868 q 236 864 186 864 q 334 866 289 864 q 414 868 379 868 q 418 860 418 868 q 414 851 418 851 q 351 843 372 851 q 322 814 329 835 q 315 753 315 793 l 315 113 m 238 958 q 131 1004 168 958 q 94 1135 94 1050 q 102 1139 94 1139 q 110 1136 110 1139 q 146 1090 110 1113 q 238 1067 182 1067 q 327 1090 290 1067 q 364 1136 364 1113 q 372 1139 364 1139 q 379 1135 379 1139 q 343 1004 379 1050 q 238 958 307 958 z "},"Ǐ":{"ha":475,"x_min":56,"x_max":418,"o":"m 315 113 q 322 51 315 72 q 350 24 329 31 q 414 17 371 17 q 418 8 418 17 q 414 0 418 0 q 333 1 378 0 q 236 3 289 3 q 140 1 186 3 q 58 0 94 0 q 56 8 56 0 q 58 17 56 17 q 123 24 101 17 q 152 51 144 31 q 160 113 160 72 l 160 756 q 152 816 160 796 q 123 844 144 836 q 58 851 101 851 q 56 860 56 851 q 58 868 56 868 q 140 866 94 868 q 236 864 186 864 q 334 866 289 864 q 414 868 379 868 q 418 860 418 868 q 414 851 418 851 q 351 843 372 851 q 322 814 329 835 q 315 753 315 793 l 315 113 m 221 954 l 78 1114 q 81 1122 76 1118 q 86 1124 85 1126 l 238 1071 l 388 1126 q 394 1124 390 1128 q 394 1117 397 1119 l 253 954 q 238 949 247 949 q 221 954 228 949 z "},"Î":{"ha":475,"x_min":56,"x_max":418,"o":"m 315 113 q 322 51 315 72 q 350 24 329 31 q 414 17 371 17 q 418 8 418 17 q 414 0 418 0 q 333 1 378 0 q 236 3 289 3 q 140 1 186 3 q 58 0 94 0 q 56 8 56 0 q 58 17 56 17 q 123 24 101 17 q 152 51 144 31 q 160 113 160 72 l 160 756 q 152 816 160 796 q 123 844 144 836 q 58 851 101 851 q 56 860 56 851 q 58 868 56 868 q 140 866 94 868 q 236 864 186 864 q 334 866 289 864 q 414 868 379 868 q 418 860 418 868 q 414 851 418 851 q 351 843 372 851 q 322 814 329 835 q 315 753 315 793 l 315 113 m 79 975 l 222 1136 q 239 1143 229 1143 q 254 1136 249 1143 l 396 975 q 396 969 400 974 q 389 965 392 964 l 239 1019 l 88 965 q 81 969 86 964 q 79 975 76 974 z "},"Ȉ":{"ha":475,"x_min":-69,"x_max":418,"o":"m 315 113 q 322 51 315 72 q 350 24 329 31 q 414 17 371 17 q 418 8 418 17 q 414 0 418 0 q 333 1 378 0 q 236 3 289 3 q 140 1 186 3 q 58 0 94 0 q 56 8 56 0 q 58 17 56 17 q 123 24 101 17 q 152 51 144 31 q 160 113 160 72 l 160 756 q 152 816 160 796 q 123 844 144 836 q 58 851 101 851 q 56 860 56 851 q 58 868 56 868 q 140 866 94 868 q 236 864 186 864 q 334 866 289 864 q 414 868 379 868 q 418 860 418 868 q 414 851 418 851 q 351 843 372 851 q 322 814 329 835 q 315 753 315 793 l 315 113 m 392 928 q 403 931 399 925 q 403 942 407 936 q 336 1031 368 986 q 278 1118 304 1075 q 252 1120 275 1125 q 202 1105 229 1115 q 158 1083 175 1094 q 153 1067 142 1072 q 280 1001 224 1035 q 392 928 336 968 m 181 928 q 191 931 188 925 q 192 942 194 936 q 125 1030 156 985 q 67 1118 94 1075 q 41 1120 64 1125 q -9 1105 18 1115 q -53 1083 -36 1094 q -58 1067 -69 1072 q 69 1001 13 1035 q 181 928 125 968 z "},"Ï":{"ha":475,"x_min":56,"x_max":418,"o":"m 315 113 q 322 51 315 72 q 350 24 329 31 q 414 17 371 17 q 418 8 418 17 q 414 0 418 0 q 333 1 378 0 q 236 3 289 3 q 140 1 186 3 q 58 0 94 0 q 56 8 56 0 q 58 17 56 17 q 123 24 101 17 q 152 51 144 31 q 160 113 160 72 l 160 756 q 152 816 160 796 q 123 844 144 836 q 58 851 101 851 q 56 860 56 851 q 58 868 56 868 q 140 866 94 868 q 236 864 186 864 q 334 866 289 864 q 414 868 379 868 q 418 860 418 868 q 414 851 418 851 q 351 843 372 851 q 322 814 329 835 q 315 753 315 793 l 315 113 m 132 976 q 76 997 97 976 q 56 1053 56 1017 q 76 1106 56 1086 q 132 1125 97 1125 q 186 1106 167 1125 q 206 1053 206 1086 q 186 997 206 1017 q 132 976 167 976 m 343 976 q 289 997 308 976 q 269 1053 269 1017 q 289 1105 269 1086 q 343 1124 308 1124 q 415 1053 415 1124 q 343 976 415 976 z "},"İ":{"ha":475,"x_min":56,"x_max":418,"o":"m 315 113 q 322 51 315 72 q 350 24 329 31 q 414 17 371 17 q 418 8 418 17 q 414 0 418 0 q 333 1 378 0 q 236 3 289 3 q 140 1 186 3 q 58 0 94 0 q 56 8 56 0 q 58 17 56 17 q 123 24 101 17 q 152 51 144 31 q 160 113 160 72 l 160 756 q 152 816 160 796 q 123 844 144 836 q 58 851 101 851 q 56 860 56 851 q 58 868 56 868 q 140 866 94 868 q 236 864 186 864 q 334 866 289 864 q 414 868 379 868 q 418 860 418 868 q 414 851 418 851 q 351 843 372 851 q 322 814 329 835 q 315 753 315 793 l 315 113 m 239 990 q 177 1013 200 990 q 154 1075 154 1036 q 177 1133 154 1111 q 239 1156 200 1156 q 299 1133 278 1156 q 319 1075 319 1111 q 299 1013 319 1036 q 239 990 278 990 z "},"Ị":{"ha":475,"x_min":56,"x_max":418,"o":"m 315 113 q 322 51 315 72 q 350 24 329 31 q 414 17 371 17 q 418 8 418 17 q 414 0 418 0 q 333 1 378 0 q 236 3 289 3 q 140 1 186 3 q 58 0 94 0 q 56 8 56 0 q 58 17 56 17 q 123 24 101 17 q 152 51 144 31 q 160 113 160 72 l 160 756 q 152 816 160 796 q 123 844 144 836 q 58 851 101 851 q 56 860 56 851 q 58 868 56 868 q 140 866 94 868 q 236 864 186 864 q 334 866 289 864 q 414 868 379 868 q 418 860 418 868 q 414 851 418 851 q 351 843 372 851 q 322 814 329 835 q 315 753 315 793 l 315 113 m 239 -287 q 177 -265 200 -287 q 154 -203 154 -243 q 177 -145 154 -167 q 239 -124 200 -124 q 299 -145 278 -124 q 319 -203 319 -167 q 239 -287 319 -287 z "},"Ì":{"ha":475,"x_min":54,"x_max":418,"o":"m 315 113 q 322 51 315 72 q 350 24 329 31 q 414 17 371 17 q 418 8 418 17 q 414 0 418 0 q 333 1 378 0 q 236 3 289 3 q 140 1 186 3 q 58 0 94 0 q 56 8 56 0 q 58 17 56 17 q 123 24 101 17 q 152 51 144 31 q 160 113 160 72 l 160 756 q 152 816 160 796 q 123 844 144 836 q 58 851 101 851 q 56 860 56 851 q 58 868 56 868 q 140 866 94 868 q 236 864 186 864 q 334 866 289 864 q 414 868 379 868 q 418 860 418 868 q 414 851 418 851 q 351 843 372 851 q 322 814 329 835 q 315 753 315 793 l 315 113 m 376 943 q 233 1001 306 975 q 68 1050 160 1028 q 72 1063 54 1053 q 119 1083 89 1072 q 176 1101 149 1094 q 208 1101 203 1107 q 292 1031 250 1068 q 382 957 333 993 q 385 948 388 956 q 376 943 383 940 z "},"Ỉ":{"ha":475,"x_min":56,"x_max":418,"o":"m 315 113 q 322 51 315 72 q 350 24 329 31 q 414 17 371 17 q 418 8 418 17 q 414 0 418 0 q 333 1 378 0 q 236 3 289 3 q 140 1 186 3 q 58 0 94 0 q 56 8 56 0 q 58 17 56 17 q 123 24 101 17 q 152 51 144 31 q 160 113 160 72 l 160 756 q 152 816 160 796 q 123 844 144 836 q 58 851 101 851 q 56 860 56 851 q 58 868 56 868 q 140 866 94 868 q 236 864 186 864 q 334 866 289 864 q 414 868 379 868 q 418 860 418 868 q 414 851 418 851 q 351 843 372 851 q 322 814 329 835 q 315 753 315 793 l 315 113 m 239 904 q 231 902 239 903 q 222 904 224 901 q 222 961 217 936 q 235 1008 226 986 q 251 1050 243 1029 q 258 1096 258 1071 q 249 1134 258 1122 q 219 1146 239 1146 q 196 1142 208 1146 q 169 1132 183 1139 q 160 1135 165 1131 q 160 1143 156 1140 q 213 1172 183 1163 q 274 1182 243 1182 q 344 1163 318 1182 q 371 1110 371 1144 q 351 1052 371 1079 q 304 1001 331 1025 q 258 953 278 976 q 239 904 239 929 z "},"Ȋ":{"ha":475,"x_min":56,"x_max":418,"o":"m 315 113 q 322 51 315 72 q 350 24 329 31 q 414 17 371 17 q 418 8 418 17 q 414 0 418 0 q 333 1 378 0 q 236 3 289 3 q 140 1 186 3 q 58 0 94 0 q 56 8 56 0 q 58 17 56 17 q 123 24 101 17 q 152 51 144 31 q 160 113 160 72 l 160 756 q 152 816 160 796 q 123 844 144 836 q 58 851 101 851 q 56 860 56 851 q 58 868 56 868 q 140 866 94 868 q 236 864 186 864 q 334 866 289 864 q 414 868 379 868 q 418 860 418 868 q 414 851 418 851 q 351 843 372 851 q 322 814 329 835 q 315 753 315 793 l 315 113 m 110 944 q 102 940 110 940 q 94 946 94 940 q 238 1121 94 1121 q 379 946 379 1121 q 372 940 379 940 q 364 944 364 940 q 327 991 364 968 q 238 1014 290 1014 q 146 991 182 1014 q 110 944 110 968 z "},"Ī":{"ha":475,"x_min":47,"x_max":428,"o":"m 315 113 q 322 51 315 72 q 350 24 329 31 q 414 17 371 17 q 418 8 418 17 q 414 0 418 0 q 333 1 378 0 q 236 3 289 3 q 140 1 186 3 q 58 0 94 0 q 56 8 56 0 q 58 17 56 17 q 123 24 101 17 q 152 51 144 31 q 160 113 160 72 l 160 756 q 152 816 160 796 q 123 844 144 836 q 58 851 101 851 q 56 860 56 851 q 58 868 56 868 q 140 866 94 868 q 236 864 186 864 q 334 866 289 864 q 414 868 379 868 q 418 860 418 868 q 414 851 418 851 q 351 843 372 851 q 322 814 329 835 q 315 753 315 793 l 315 113 m 63 990 q 51 1003 56 990 q 51 1029 47 1017 q 63 1042 56 1042 l 411 1042 q 424 1029 421 1042 q 424 1003 428 1017 q 411 990 421 990 l 63 990 z "},"Į":{"ha":475,"x_min":56,"x_max":418,"o":"m 315 113 q 322 51 315 72 q 350 24 329 31 q 414 17 371 17 q 418 8 418 17 q 414 0 418 0 q 333 1 378 0 q 236 3 289 3 q 140 1 186 3 q 58 0 94 0 q 56 8 56 0 q 58 17 56 17 q 123 24 101 17 q 152 51 144 31 q 160 113 160 72 l 160 756 q 152 816 160 796 q 123 844 144 836 q 58 851 101 851 q 56 860 56 851 q 58 868 56 868 q 140 866 94 868 q 236 864 186 864 q 334 866 289 864 q 414 868 379 868 q 418 860 418 868 q 414 851 418 851 q 351 843 372 851 q 322 814 329 835 q 315 753 315 793 l 315 113 m 250 -382 q 144 -342 182 -382 q 106 -233 106 -301 q 138 -110 106 -172 q 236 17 171 -47 l 250 10 q 228 -58 235 -25 q 221 -126 221 -90 q 237 -222 221 -178 q 281 -292 253 -265 q 340 -318 308 -318 q 365 -315 354 -318 q 383 -308 376 -312 q 392 -311 388 -306 q 393 -319 397 -317 q 327 -367 360 -353 q 250 -382 294 -382 z "},"Ɨ":{"ha":475,"x_min":51,"x_max":419,"o":"m 58 415 q 53 425 54 415 q 53 444 51 435 q 58 454 54 454 l 414 454 q 419 444 418 454 q 419 425 419 435 q 414 415 418 415 l 58 415 m 315 113 q 322 51 315 72 q 350 24 329 31 q 414 17 371 17 q 418 8 418 17 q 414 0 418 0 q 333 1 378 0 q 236 3 289 3 q 140 1 186 3 q 58 0 94 0 q 56 8 56 0 q 58 17 56 17 q 123 24 101 17 q 152 51 144 31 q 160 113 160 72 l 160 756 q 152 816 160 796 q 123 844 144 836 q 58 851 101 851 q 56 860 56 851 q 58 868 56 868 q 140 866 94 868 q 236 864 186 864 q 334 866 289 864 q 414 868 379 868 q 418 860 418 868 q 414 851 418 851 q 351 843 372 851 q 322 814 329 835 q 315 753 315 793 l 315 113 z "},"Ĩ":{"ha":475,"x_min":50,"x_max":425,"o":"m 315 113 q 322 51 315 72 q 350 24 329 31 q 414 17 371 17 q 418 8 418 17 q 414 0 418 0 q 333 1 378 0 q 236 3 289 3 q 140 1 186 3 q 58 0 94 0 q 56 8 56 0 q 58 17 56 17 q 123 24 101 17 q 152 51 144 31 q 160 113 160 72 l 160 756 q 152 816 160 796 q 123 844 144 836 q 58 851 101 851 q 56 860 56 851 q 58 868 56 868 q 140 866 94 868 q 236 864 186 864 q 334 866 289 864 q 414 868 379 868 q 418 860 418 868 q 414 851 418 851 q 351 843 372 851 q 322 814 329 835 q 315 753 315 793 l 315 113 m 342 1060 q 380 1068 365 1060 q 413 1097 394 1076 q 420 1096 415 1100 q 422 1088 425 1092 q 362 998 385 1019 q 307 976 339 976 q 253 985 282 976 q 195 1001 225 993 q 133 1010 165 1010 q 91 1000 103 1010 q 63 972 79 990 q 55 975 60 971 q 53 982 50 979 q 82 1029 64 1003 q 124 1075 100 1056 q 174 1094 147 1094 q 221 1086 193 1094 q 281 1069 249 1078 q 342 1060 313 1060 z "},"J":{"ha":471,"x_min":-79,"x_max":418,"o":"m 414 868 q 418 860 418 868 q 414 851 418 851 q 361 843 379 851 q 338 814 343 835 q 332 753 332 793 l 332 -6 q 255 -249 332 -161 q 40 -336 178 -336 q -45 -315 -11 -336 q -79 -253 -79 -293 q -62 -205 -79 -228 q -7 -182 -46 -182 q 44 -201 26 -182 q 73 -244 63 -219 q 92 -288 83 -269 q 118 -307 101 -307 q 161 -260 147 -307 q 175 -103 175 -214 l 175 756 q 167 816 175 796 q 133 844 158 836 q 58 851 108 851 q 56 860 56 851 q 58 868 56 868 q 150 866 101 868 q 251 864 199 864 q 341 866 300 864 q 414 868 382 868 z "},"Ĵ":{"ha":471,"x_min":-79,"x_max":418,"o":"m 414 868 q 418 860 418 868 q 414 851 418 851 q 361 843 379 851 q 338 814 343 835 q 332 753 332 793 l 332 -6 q 255 -249 332 -161 q 40 -336 178 -336 q -45 -315 -11 -336 q -79 -253 -79 -293 q -62 -205 -79 -228 q -7 -182 -46 -182 q 44 -201 26 -182 q 73 -244 63 -219 q 92 -288 83 -269 q 118 -307 101 -307 q 161 -260 147 -307 q 175 -103 175 -214 l 175 756 q 167 816 175 796 q 133 844 158 836 q 58 851 108 851 q 56 860 56 851 q 58 868 56 868 q 150 866 101 868 q 251 864 199 864 q 341 866 300 864 q 414 868 382 868 m 85 975 l 228 1136 q 244 1143 235 1143 q 260 1136 254 1143 l 401 975 q 401 969 406 974 q 394 965 397 964 l 244 1019 l 93 965 q 87 969 92 964 q 85 975 82 974 z "},"K":{"ha":910,"x_min":39,"x_max":926,"o":"m 143 113 l 143 756 q 136 816 143 796 q 108 844 129 836 q 44 851 86 851 q 40 860 40 851 q 44 868 40 868 q 125 866 81 868 q 219 864 169 864 q 317 866 272 864 q 396 868 361 868 q 400 860 400 868 q 396 851 400 851 q 333 843 354 851 q 305 814 313 835 q 297 753 297 793 l 297 113 q 304 51 297 72 q 332 24 311 31 q 396 17 353 17 q 401 8 401 17 q 396 0 401 0 q 316 1 360 0 q 219 3 272 3 q 124 1 169 3 q 42 0 78 0 q 39 8 39 0 q 42 17 39 17 q 106 24 85 17 q 135 51 128 31 q 143 113 143 72 m 510 201 l 319 458 l 431 565 l 643 279 q 735 153 697 203 q 798 76 772 104 q 843 35 824 47 q 881 19 863 22 q 922 17 900 17 q 926 8 926 17 q 922 0 926 0 q 824 0 861 0 q 767 0 786 0 q 731 -1 746 0 q 704 -3 715 -3 q 672 4 686 -3 q 640 32 658 11 q 590 93 621 53 q 510 201 560 133 m 200 358 l 558 725 q 597 814 610 776 q 514 851 583 851 q 510 860 510 851 q 514 868 510 868 q 590 866 551 868 q 693 864 629 864 q 799 866 760 864 q 874 868 838 868 q 878 860 878 868 q 874 851 878 851 q 733 815 810 851 q 594 717 657 778 l 238 354 l 200 358 z "},"Ḱ":{"ha":910,"x_min":39,"x_max":926,"o":"m 143 113 l 143 756 q 136 816 143 796 q 108 844 129 836 q 44 851 86 851 q 40 860 40 851 q 44 868 40 868 q 125 866 81 868 q 219 864 169 864 q 317 866 272 864 q 396 868 361 868 q 400 860 400 868 q 396 851 400 851 q 333 843 354 851 q 305 814 313 835 q 297 753 297 793 l 297 113 q 304 51 297 72 q 332 24 311 31 q 396 17 353 17 q 401 8 401 17 q 396 0 401 0 q 316 1 360 0 q 219 3 272 3 q 124 1 169 3 q 42 0 78 0 q 39 8 39 0 q 42 17 39 17 q 106 24 85 17 q 135 51 128 31 q 143 113 143 72 m 510 201 l 319 458 l 431 565 l 643 279 q 735 153 697 203 q 798 76 772 104 q 843 35 824 47 q 881 19 863 22 q 922 17 900 17 q 926 8 926 17 q 922 0 926 0 q 824 0 861 0 q 767 0 786 0 q 731 -1 746 0 q 704 -3 715 -3 q 672 4 686 -3 q 640 32 658 11 q 590 93 621 53 q 510 201 560 133 m 200 358 l 558 725 q 597 814 610 776 q 514 851 583 851 q 510 860 510 851 q 514 868 510 868 q 590 866 551 868 q 693 864 629 864 q 799 866 760 864 q 874 868 838 868 q 878 860 878 868 q 874 851 878 851 q 733 815 810 851 q 594 717 657 778 l 238 354 l 200 358 m 325 943 q 317 948 319 940 q 318 957 314 956 q 410 1031 368 993 q 493 1101 451 1068 q 526 1101 499 1107 q 583 1083 553 1094 q 630 1063 613 1072 q 633 1050 647 1053 q 468 1001 540 1028 q 325 943 396 975 z "},"Ǩ":{"ha":910,"x_min":39,"x_max":926,"o":"m 143 113 l 143 756 q 136 816 143 796 q 108 844 129 836 q 44 851 86 851 q 40 860 40 851 q 44 868 40 868 q 125 866 81 868 q 219 864 169 864 q 317 866 272 864 q 396 868 361 868 q 400 860 400 868 q 396 851 400 851 q 333 843 354 851 q 305 814 313 835 q 297 753 297 793 l 297 113 q 304 51 297 72 q 332 24 311 31 q 396 17 353 17 q 401 8 401 17 q 396 0 401 0 q 316 1 360 0 q 219 3 272 3 q 124 1 169 3 q 42 0 78 0 q 39 8 39 0 q 42 17 39 17 q 106 24 85 17 q 135 51 128 31 q 143 113 143 72 m 510 201 l 319 458 l 431 565 l 643 279 q 735 153 697 203 q 798 76 772 104 q 843 35 824 47 q 881 19 863 22 q 922 17 900 17 q 926 8 926 17 q 922 0 926 0 q 824 0 861 0 q 767 0 786 0 q 731 -1 746 0 q 704 -3 715 -3 q 672 4 686 -3 q 640 32 658 11 q 590 93 621 53 q 510 201 560 133 m 200 358 l 558 725 q 597 814 610 776 q 514 851 583 851 q 510 860 510 851 q 514 868 510 868 q 590 866 551 868 q 693 864 629 864 q 799 866 760 864 q 874 868 838 868 q 878 860 878 868 q 874 851 878 851 q 733 815 810 851 q 594 717 657 778 l 238 354 l 200 358 m 443 954 l 300 1114 q 303 1122 299 1118 q 308 1124 307 1126 l 460 1071 l 610 1126 q 616 1124 613 1128 q 617 1117 619 1119 l 475 954 q 460 949 469 949 q 443 954 450 949 z "},"Ķ":{"ha":910,"x_min":39,"x_max":926,"o":"m 143 113 l 143 756 q 136 816 143 796 q 108 844 129 836 q 44 851 86 851 q 40 860 40 851 q 44 868 40 868 q 125 866 81 868 q 219 864 169 864 q 317 866 272 864 q 396 868 361 868 q 400 860 400 868 q 396 851 400 851 q 333 843 354 851 q 305 814 313 835 q 297 753 297 793 l 297 113 q 304 51 297 72 q 332 24 311 31 q 396 17 353 17 q 401 8 401 17 q 396 0 401 0 q 316 1 360 0 q 219 3 272 3 q 124 1 169 3 q 42 0 78 0 q 39 8 39 0 q 42 17 39 17 q 106 24 85 17 q 135 51 128 31 q 143 113 143 72 m 510 201 l 319 458 l 431 565 l 643 279 q 735 153 697 203 q 798 76 772 104 q 843 35 824 47 q 881 19 863 22 q 922 17 900 17 q 926 8 926 17 q 922 0 926 0 q 824 0 861 0 q 767 0 786 0 q 731 -1 746 0 q 704 -3 715 -3 q 672 4 686 -3 q 640 32 658 11 q 590 93 621 53 q 510 201 560 133 m 200 358 l 558 725 q 597 814 610 776 q 514 851 583 851 q 510 860 510 851 q 514 868 510 868 q 590 866 551 868 q 693 864 629 864 q 799 866 760 864 q 874 868 838 868 q 878 860 878 868 q 874 851 878 851 q 733 815 810 851 q 594 717 657 778 l 238 354 l 200 358 m 471 -382 q 460 -378 465 -385 q 461 -368 456 -372 q 507 -326 486 -349 q 528 -275 528 -303 q 515 -231 528 -243 q 483 -217 503 -218 l 521 -190 q 506 -239 522 -222 q 457 -256 490 -256 q 408 -233 428 -256 q 389 -176 389 -211 q 417 -116 389 -136 q 479 -96 444 -96 q 552 -127 528 -96 q 576 -208 576 -158 q 546 -308 576 -267 q 471 -382 515 -350 z "},"L":{"ha":757,"x_min":39,"x_max":731,"o":"m 296 754 l 296 118 q 301 67 296 85 q 324 44 307 50 q 375 39 342 39 l 422 39 q 610 97 531 39 q 715 253 689 156 q 724 256 717 257 q 731 250 731 254 q 722 140 726 204 q 718 21 718 75 q 697 0 718 0 l 42 0 q 39 8 39 0 q 42 17 39 17 q 106 24 85 17 q 134 51 126 31 q 142 113 142 72 l 142 756 q 134 816 142 796 q 106 844 126 836 q 42 851 85 851 q 39 860 39 851 q 42 868 39 868 q 122 866 75 868 q 218 864 168 864 q 315 866 271 864 q 394 868 360 868 q 399 860 399 868 q 394 851 399 851 q 331 844 353 851 q 303 815 310 836 q 296 754 296 794 z "},"Ĺ":{"ha":757,"x_min":39,"x_max":731,"o":"m 296 754 l 296 118 q 301 67 296 85 q 324 44 307 50 q 375 39 342 39 l 422 39 q 610 97 531 39 q 715 253 689 156 q 724 256 717 257 q 731 250 731 254 q 722 140 726 204 q 718 21 718 75 q 697 0 718 0 l 42 0 q 39 8 39 0 q 42 17 39 17 q 106 24 85 17 q 134 51 126 31 q 142 113 142 72 l 142 756 q 134 816 142 796 q 106 844 126 836 q 42 851 85 851 q 39 860 39 851 q 42 868 39 868 q 122 866 75 868 q 218 864 168 864 q 315 866 271 864 q 394 868 360 868 q 399 860 399 868 q 394 851 399 851 q 331 844 353 851 q 303 815 310 836 q 296 754 296 794 m 92 943 q 83 948 86 940 q 85 957 81 956 q 176 1031 135 993 q 260 1101 218 1068 q 292 1101 265 1107 q 349 1083 319 1094 q 397 1063 379 1072 q 400 1050 414 1053 q 235 1001 307 1028 q 92 943 163 975 z "},"Ľ":{"ha":757,"x_min":39,"x_max":731,"o":"m 296 754 l 296 118 q 301 67 296 85 q 324 44 307 50 q 375 39 342 39 l 422 39 q 610 97 531 39 q 715 253 689 156 q 724 256 717 257 q 731 250 731 254 q 722 140 726 204 q 718 21 718 75 q 697 0 718 0 l 42 0 q 39 8 39 0 q 42 17 39 17 q 106 24 85 17 q 134 51 126 31 q 142 113 142 72 l 142 756 q 134 816 142 796 q 106 844 126 836 q 42 851 85 851 q 39 860 39 851 q 42 868 39 868 q 122 866 75 868 q 218 864 168 864 q 315 866 271 864 q 394 868 360 868 q 399 860 399 868 q 394 851 399 851 q 331 844 353 851 q 303 815 310 836 q 296 754 296 794 m 490 868 q 508 869 490 874 q 547 856 525 865 q 585 836 568 847 q 599 817 601 825 l 517 489 q 508 487 515 486 q 501 490 501 488 l 490 868 z "},"Ļ":{"ha":757,"x_min":39,"x_max":731,"o":"m 296 754 l 296 118 q 301 67 296 85 q 324 44 307 50 q 375 39 342 39 l 422 39 q 610 97 531 39 q 715 253 689 156 q 724 256 717 257 q 731 250 731 254 q 722 140 726 204 q 718 21 718 75 q 697 0 718 0 l 42 0 q 39 8 39 0 q 42 17 39 17 q 106 24 85 17 q 134 51 126 31 q 142 113 142 72 l 142 756 q 134 816 142 796 q 106 844 126 836 q 42 851 85 851 q 39 860 39 851 q 42 868 39 868 q 122 866 75 868 q 218 864 168 864 q 315 866 271 864 q 394 868 360 868 q 399 860 399 868 q 394 851 399 851 q 331 844 353 851 q 303 815 310 836 q 296 754 296 794 m 390 -382 q 380 -378 385 -385 q 381 -368 375 -372 q 426 -326 406 -349 q 447 -275 447 -303 q 435 -231 447 -243 q 403 -217 422 -218 l 440 -190 q 426 -239 442 -222 q 376 -256 410 -256 q 328 -233 347 -256 q 308 -176 308 -211 q 336 -116 308 -136 q 399 -96 364 -96 q 472 -127 447 -96 q 496 -208 496 -158 q 465 -308 496 -267 q 390 -382 435 -350 z "},"Ŀ":{"ha":757,"x_min":39,"x_max":731,"o":"m 296 754 l 296 118 q 301 67 296 85 q 324 44 307 50 q 375 39 342 39 l 422 39 q 610 97 531 39 q 715 253 689 156 q 724 256 717 257 q 731 250 731 254 q 722 140 726 204 q 718 21 718 75 q 697 0 718 0 l 42 0 q 39 8 39 0 q 42 17 39 17 q 106 24 85 17 q 134 51 126 31 q 142 113 142 72 l 142 756 q 134 816 142 796 q 106 844 126 836 q 42 851 85 851 q 39 860 39 851 q 42 868 39 868 q 122 866 75 868 q 218 864 168 864 q 315 866 271 864 q 394 868 360 868 q 399 860 399 868 q 394 851 399 851 q 331 844 353 851 q 303 815 310 836 q 296 754 296 794 m 594 356 q 533 378 556 356 q 510 440 510 401 q 533 499 510 476 q 594 521 556 521 q 656 499 635 521 q 676 440 676 476 q 656 378 676 401 q 594 356 635 356 z "},"Ḷ":{"ha":757,"x_min":39,"x_max":731,"o":"m 296 754 l 296 118 q 301 67 296 85 q 324 44 307 50 q 375 39 342 39 l 422 39 q 610 97 531 39 q 715 253 689 156 q 724 256 717 257 q 731 250 731 254 q 722 140 726 204 q 718 21 718 75 q 697 0 718 0 l 42 0 q 39 8 39 0 q 42 17 39 17 q 106 24 85 17 q 134 51 126 31 q 142 113 142 72 l 142 756 q 134 816 142 796 q 106 844 126 836 q 42 851 85 851 q 39 860 39 851 q 42 868 39 868 q 122 866 75 868 q 218 864 168 864 q 315 866 271 864 q 394 868 360 868 q 399 860 399 868 q 394 851 399 851 q 331 844 353 851 q 303 815 310 836 q 296 754 296 794 m 407 -287 q 345 -265 368 -287 q 322 -203 322 -243 q 345 -145 322 -167 q 407 -124 368 -124 q 467 -145 446 -124 q 488 -203 488 -167 q 407 -287 488 -287 z "},"Ḹ":{"ha":757,"x_min":36,"x_max":731,"o":"m 296 754 l 296 118 q 301 67 296 85 q 324 44 307 50 q 375 39 342 39 l 422 39 q 610 97 531 39 q 715 253 689 156 q 724 256 717 257 q 731 250 731 254 q 722 140 726 204 q 718 21 718 75 q 697 0 718 0 l 42 0 q 39 8 39 0 q 42 17 39 17 q 106 24 85 17 q 134 51 126 31 q 142 113 142 72 l 142 756 q 134 816 142 796 q 106 844 126 836 q 42 851 85 851 q 39 860 39 851 q 42 868 39 868 q 122 866 75 868 q 218 864 168 864 q 315 866 271 864 q 394 868 360 868 q 399 860 399 868 q 394 851 399 851 q 331 844 353 851 q 303 815 310 836 q 296 754 296 794 m 407 -287 q 345 -265 368 -287 q 322 -203 322 -243 q 345 -145 322 -167 q 407 -124 368 -124 q 467 -145 446 -124 q 488 -203 488 -167 q 407 -287 488 -287 m 51 990 q 39 1003 42 990 q 39 1029 36 1017 q 51 1042 42 1042 l 400 1042 q 413 1029 410 1042 q 413 1003 417 1017 q 400 990 410 990 l 51 990 z "},"Ḻ":{"ha":757,"x_min":39,"x_max":731,"o":"m 296 754 l 296 118 q 301 67 296 85 q 324 44 307 50 q 375 39 342 39 l 422 39 q 610 97 531 39 q 715 253 689 156 q 724 256 717 257 q 731 250 731 254 q 722 140 726 204 q 718 21 718 75 q 697 0 718 0 l 42 0 q 39 8 39 0 q 42 17 39 17 q 106 24 85 17 q 134 51 126 31 q 142 113 142 72 l 142 756 q 134 816 142 796 q 106 844 126 836 q 42 851 85 851 q 39 860 39 851 q 42 868 39 868 q 122 866 75 868 q 218 864 168 864 q 315 866 271 864 q 394 868 360 868 q 399 860 399 868 q 394 851 399 851 q 331 844 353 851 q 303 815 310 836 q 296 754 296 794 m 231 -169 q 219 -156 224 -169 q 219 -131 215 -143 q 231 -118 224 -118 l 579 -118 q 592 -131 589 -118 q 592 -156 596 -143 q 579 -169 589 -169 l 231 -169 z "},"Ł":{"ha":757,"x_min":39,"x_max":731,"o":"m 68 299 q 59 305 65 297 q 49 322 53 313 q 49 333 46 332 l 451 565 q 460 559 454 567 q 469 542 465 551 q 469 531 474 533 l 68 299 m 296 754 l 296 118 q 301 67 296 85 q 324 44 307 50 q 375 39 342 39 l 422 39 q 610 97 531 39 q 715 253 689 156 q 724 256 717 257 q 731 250 731 254 q 722 140 726 204 q 718 21 718 75 q 697 0 718 0 l 42 0 q 39 8 39 0 q 42 17 39 17 q 106 24 85 17 q 134 51 126 31 q 142 113 142 72 l 142 756 q 134 816 142 796 q 106 844 126 836 q 42 851 85 851 q 39 860 39 851 q 42 868 39 868 q 122 866 75 868 q 218 864 168 864 q 315 866 271 864 q 394 868 360 868 q 399 860 399 868 q 394 851 399 851 q 331 844 353 851 q 303 815 310 836 q 296 754 296 794 z "},"M":{"ha":1190,"x_min":33,"x_max":1160,"o":"m 163 176 l 176 836 l 217 833 l 201 176 q 231 60 200 103 q 319 17 263 17 q 324 8 324 17 q 319 0 324 0 q 257 1 289 0 q 185 3 225 3 q 104 1 140 3 q 38 0 68 0 q 33 8 33 0 q 38 17 33 17 q 128 60 94 17 q 163 176 161 103 m 1157 17 q 1160 8 1160 17 q 1157 0 1160 0 q 1075 1 1121 0 q 979 3 1029 3 q 883 1 928 3 q 803 0 839 0 q 799 8 799 0 q 803 17 799 17 q 887 35 868 17 q 901 113 906 53 l 869 729 l 940 840 l 586 10 q 576 4 585 4 q 564 10 567 4 l 174 753 q 47 851 121 851 q 43 860 43 851 q 47 868 43 868 q 108 867 76 868 q 163 865 140 865 q 226 867 199 865 q 268 868 253 868 q 298 854 288 868 q 332 796 308 840 l 643 213 l 574 88 l 899 833 q 916 860 907 853 q 940 868 925 868 q 969 867 954 868 q 1006 865 985 865 q 1081 867 1050 865 q 1143 868 1113 868 q 1147 860 1147 868 q 1143 851 1147 851 q 1049 825 1079 851 q 1022 743 1019 799 l 1056 113 q 1066 51 1058 72 q 1094 24 1074 31 q 1157 17 1115 17 z "},"Ḿ":{"ha":1190,"x_min":33,"x_max":1160,"o":"m 163 176 l 176 836 l 217 833 l 201 176 q 231 60 200 103 q 319 17 263 17 q 324 8 324 17 q 319 0 324 0 q 257 1 289 0 q 185 3 225 3 q 104 1 140 3 q 38 0 68 0 q 33 8 33 0 q 38 17 33 17 q 128 60 94 17 q 163 176 161 103 m 1157 17 q 1160 8 1160 17 q 1157 0 1160 0 q 1075 1 1121 0 q 979 3 1029 3 q 883 1 928 3 q 803 0 839 0 q 799 8 799 0 q 803 17 799 17 q 887 35 868 17 q 901 113 906 53 l 869 729 l 940 840 l 586 10 q 576 4 585 4 q 564 10 567 4 l 174 753 q 47 851 121 851 q 43 860 43 851 q 47 868 43 868 q 108 867 76 868 q 163 865 140 865 q 226 867 199 865 q 268 868 253 868 q 298 854 288 868 q 332 796 308 840 l 643 213 l 574 88 l 899 833 q 916 860 907 853 q 940 868 925 868 q 969 867 954 868 q 1006 865 985 865 q 1081 867 1050 865 q 1143 868 1113 868 q 1147 860 1147 868 q 1143 851 1147 851 q 1049 825 1079 851 q 1022 743 1019 799 l 1056 113 q 1066 51 1058 72 q 1094 24 1074 31 q 1157 17 1115 17 m 461 942 q 453 948 456 940 q 454 957 450 956 q 546 1030 504 993 q 629 1101 588 1067 q 662 1099 635 1106 q 719 1083 689 1093 q 766 1063 749 1072 q 769 1050 783 1053 q 604 1000 676 1026 q 461 942 532 974 z "},"Ṁ":{"ha":1190,"x_min":33,"x_max":1160,"o":"m 163 176 l 176 836 l 217 833 l 201 176 q 231 60 200 103 q 319 17 263 17 q 324 8 324 17 q 319 0 324 0 q 257 1 289 0 q 185 3 225 3 q 104 1 140 3 q 38 0 68 0 q 33 8 33 0 q 38 17 33 17 q 128 60 94 17 q 163 176 161 103 m 1157 17 q 1160 8 1160 17 q 1157 0 1160 0 q 1075 1 1121 0 q 979 3 1029 3 q 883 1 928 3 q 803 0 839 0 q 799 8 799 0 q 803 17 799 17 q 887 35 868 17 q 901 113 906 53 l 869 729 l 940 840 l 586 10 q 576 4 585 4 q 564 10 567 4 l 174 753 q 47 851 121 851 q 43 860 43 851 q 47 868 43 868 q 108 867 76 868 q 163 865 140 865 q 226 867 199 865 q 268 868 253 868 q 298 854 288 868 q 332 796 308 840 l 643 213 l 574 88 l 899 833 q 916 860 907 853 q 940 868 925 868 q 969 867 954 868 q 1006 865 985 865 q 1081 867 1050 865 q 1143 868 1113 868 q 1147 860 1147 868 q 1143 851 1147 851 q 1049 825 1079 851 q 1022 743 1019 799 l 1056 113 q 1066 51 1058 72 q 1094 24 1074 31 q 1157 17 1115 17 m 597 990 q 535 1013 558 990 q 513 1075 513 1036 q 535 1133 513 1111 q 597 1156 558 1156 q 657 1133 636 1156 q 678 1075 678 1111 q 657 1013 678 1036 q 597 990 636 990 z "},"Ṃ":{"ha":1190,"x_min":33,"x_max":1160,"o":"m 163 176 l 176 836 l 217 833 l 201 176 q 231 60 200 103 q 319 17 263 17 q 324 8 324 17 q 319 0 324 0 q 257 1 289 0 q 185 3 225 3 q 104 1 140 3 q 38 0 68 0 q 33 8 33 0 q 38 17 33 17 q 128 60 94 17 q 163 176 161 103 m 1157 17 q 1160 8 1160 17 q 1157 0 1160 0 q 1075 1 1121 0 q 979 3 1029 3 q 883 1 928 3 q 803 0 839 0 q 799 8 799 0 q 803 17 799 17 q 887 35 868 17 q 901 113 906 53 l 869 729 l 940 840 l 586 10 q 576 4 585 4 q 564 10 567 4 l 174 753 q 47 851 121 851 q 43 860 43 851 q 47 868 43 868 q 108 867 76 868 q 163 865 140 865 q 226 867 199 865 q 268 868 253 868 q 298 854 288 868 q 332 796 308 840 l 643 213 l 574 88 l 899 833 q 916 860 907 853 q 940 868 925 868 q 969 867 954 868 q 1006 865 985 865 q 1081 867 1050 865 q 1143 868 1113 868 q 1147 860 1147 868 q 1143 851 1147 851 q 1049 825 1079 851 q 1022 743 1019 799 l 1056 113 q 1066 51 1058 72 q 1094 24 1074 31 q 1157 17 1115 17 m 582 -287 q 520 -265 543 -287 q 497 -203 497 -243 q 520 -145 497 -167 q 582 -124 543 -124 q 642 -145 621 -124 q 663 -203 663 -167 q 582 -287 663 -287 z "},"N":{"ha":1021,"x_min":28,"x_max":1007,"o":"m 176 176 l 176 836 l 218 833 l 218 176 q 249 60 218 103 q 333 17 279 17 q 336 8 336 17 q 333 0 336 0 q 270 1 303 0 q 199 3 238 3 q 117 1 157 3 q 44 0 78 0 q 40 8 40 0 q 44 17 40 17 q 141 60 106 17 q 176 176 176 103 m 885 -21 q 878 -26 885 -25 q 869 -25 872 -26 l 185 754 q 100 831 135 811 q 31 851 65 851 q 28 860 28 851 q 31 868 28 868 q 88 867 58 868 q 142 865 117 865 q 232 867 192 865 q 294 868 272 868 q 322 852 313 868 q 364 796 331 836 l 874 208 l 885 -21 m 885 690 l 885 -21 l 844 21 l 844 690 q 814 808 844 764 q 729 851 783 851 q 726 860 726 851 q 729 868 726 868 q 792 866 760 868 q 864 864 825 864 q 938 866 901 864 q 1004 868 974 868 q 1007 860 1007 868 q 1004 851 1007 851 q 917 808 949 851 q 885 690 885 764 z "},"Ń":{"ha":1021,"x_min":28,"x_max":1007,"o":"m 176 176 l 176 836 l 218 833 l 218 176 q 249 60 218 103 q 333 17 279 17 q 336 8 336 17 q 333 0 336 0 q 270 1 303 0 q 199 3 238 3 q 117 1 157 3 q 44 0 78 0 q 40 8 40 0 q 44 17 40 17 q 141 60 106 17 q 176 176 176 103 m 885 -21 q 878 -26 885 -25 q 869 -25 872 -26 l 185 754 q 100 831 135 811 q 31 851 65 851 q 28 860 28 851 q 31 868 28 868 q 88 867 58 868 q 142 865 117 865 q 232 867 192 865 q 294 868 272 868 q 322 852 313 868 q 364 796 331 836 l 874 208 l 885 -21 m 885 690 l 885 -21 l 844 21 l 844 690 q 814 808 844 764 q 729 851 783 851 q 726 860 726 851 q 729 868 726 868 q 792 866 760 868 q 864 864 825 864 q 938 866 901 864 q 1004 868 974 868 q 1007 860 1007 868 q 1004 851 1007 851 q 917 808 949 851 q 885 690 885 764 m 396 943 q 388 948 390 940 q 389 957 385 956 q 481 1031 439 993 q 564 1101 522 1068 q 597 1101 569 1107 q 653 1083 624 1094 q 701 1063 683 1072 q 704 1050 718 1053 q 539 1001 611 1028 q 396 943 467 975 z "},"Ň":{"ha":1021,"x_min":28,"x_max":1007,"o":"m 176 176 l 176 836 l 218 833 l 218 176 q 249 60 218 103 q 333 17 279 17 q 336 8 336 17 q 333 0 336 0 q 270 1 303 0 q 199 3 238 3 q 117 1 157 3 q 44 0 78 0 q 40 8 40 0 q 44 17 40 17 q 141 60 106 17 q 176 176 176 103 m 885 -21 q 878 -26 885 -25 q 869 -25 872 -26 l 185 754 q 100 831 135 811 q 31 851 65 851 q 28 860 28 851 q 31 868 28 868 q 88 867 58 868 q 142 865 117 865 q 232 867 192 865 q 294 868 272 868 q 322 852 313 868 q 364 796 331 836 l 874 208 l 885 -21 m 885 690 l 885 -21 l 844 21 l 844 690 q 814 808 844 764 q 729 851 783 851 q 726 860 726 851 q 729 868 726 868 q 792 866 760 868 q 864 864 825 864 q 938 866 901 864 q 1004 868 974 868 q 1007 860 1007 868 q 1004 851 1007 851 q 917 808 949 851 q 885 690 885 764 m 514 954 l 371 1114 q 374 1122 369 1118 q 379 1124 378 1126 l 531 1071 l 681 1126 q 687 1124 683 1128 q 688 1117 690 1119 l 546 954 q 531 949 540 949 q 514 954 521 949 z "},"Ṋ":{"ha":1021,"x_min":28,"x_max":1007,"o":"m 176 176 l 176 836 l 218 833 l 218 176 q 249 60 218 103 q 333 17 279 17 q 336 8 336 17 q 333 0 336 0 q 270 1 303 0 q 199 3 238 3 q 117 1 157 3 q 44 0 78 0 q 40 8 40 0 q 44 17 40 17 q 141 60 106 17 q 176 176 176 103 m 885 -21 q 878 -26 885 -25 q 869 -25 872 -26 l 185 754 q 100 831 135 811 q 31 851 65 851 q 28 860 28 851 q 31 868 28 868 q 88 867 58 868 q 142 865 117 865 q 232 867 192 865 q 294 868 272 868 q 322 852 313 868 q 364 796 331 836 l 874 208 l 885 -21 m 885 690 l 885 -21 l 844 21 l 844 690 q 814 808 844 764 q 729 851 783 851 q 726 860 726 851 q 729 868 726 868 q 792 866 760 868 q 864 864 825 864 q 938 866 901 864 q 1004 868 974 868 q 1007 860 1007 868 q 1004 851 1007 851 q 917 808 949 851 q 885 690 885 764 m 369 -269 q 363 -266 368 -271 q 361 -260 358 -261 l 504 -99 q 521 -92 511 -92 q 536 -99 531 -92 l 678 -260 q 678 -266 682 -261 q 671 -269 674 -271 l 521 -215 l 369 -269 z "},"Ņ":{"ha":1021,"x_min":28,"x_max":1007,"o":"m 176 176 l 176 836 l 218 833 l 218 176 q 249 60 218 103 q 333 17 279 17 q 336 8 336 17 q 333 0 336 0 q 270 1 303 0 q 199 3 238 3 q 117 1 157 3 q 44 0 78 0 q 40 8 40 0 q 44 17 40 17 q 141 60 106 17 q 176 176 176 103 m 885 -21 q 878 -26 885 -25 q 869 -25 872 -26 l 185 754 q 100 831 135 811 q 31 851 65 851 q 28 860 28 851 q 31 868 28 868 q 88 867 58 868 q 142 865 117 865 q 232 867 192 865 q 294 868 272 868 q 322 852 313 868 q 364 796 331 836 l 874 208 l 885 -21 m 885 690 l 885 -21 l 844 21 l 844 690 q 814 808 844 764 q 729 851 783 851 q 726 860 726 851 q 729 868 726 868 q 792 866 760 868 q 864 864 825 864 q 938 866 901 864 q 1004 868 974 868 q 1007 860 1007 868 q 1004 851 1007 851 q 917 808 949 851 q 885 690 885 764 m 504 -382 q 494 -378 499 -385 q 494 -368 489 -372 q 540 -326 519 -349 q 561 -275 561 -303 q 549 -231 561 -243 q 517 -217 536 -218 l 554 -190 q 540 -239 556 -222 q 490 -256 524 -256 q 442 -233 461 -256 q 422 -176 422 -211 q 450 -116 422 -136 q 513 -96 478 -96 q 585 -127 561 -96 q 610 -208 610 -158 q 579 -308 610 -267 q 504 -382 549 -350 z "},"Ṅ":{"ha":1021,"x_min":28,"x_max":1007,"o":"m 176 176 l 176 836 l 218 833 l 218 176 q 249 60 218 103 q 333 17 279 17 q 336 8 336 17 q 333 0 336 0 q 270 1 303 0 q 199 3 238 3 q 117 1 157 3 q 44 0 78 0 q 40 8 40 0 q 44 17 40 17 q 141 60 106 17 q 176 176 176 103 m 885 -21 q 878 -26 885 -25 q 869 -25 872 -26 l 185 754 q 100 831 135 811 q 31 851 65 851 q 28 860 28 851 q 31 868 28 868 q 88 867 58 868 q 142 865 117 865 q 232 867 192 865 q 294 868 272 868 q 322 852 313 868 q 364 796 331 836 l 874 208 l 885 -21 m 885 690 l 885 -21 l 844 21 l 844 690 q 814 808 844 764 q 729 851 783 851 q 726 860 726 851 q 729 868 726 868 q 792 866 760 868 q 864 864 825 864 q 938 866 901 864 q 1004 868 974 868 q 1007 860 1007 868 q 1004 851 1007 851 q 917 808 949 851 q 885 690 885 764 m 532 990 q 470 1013 493 990 q 447 1075 447 1036 q 470 1133 447 1111 q 532 1156 493 1156 q 592 1133 571 1156 q 613 1075 613 1111 q 592 1013 613 1036 q 532 990 571 990 z "},"Ṇ":{"ha":1021,"x_min":28,"x_max":1007,"o":"m 176 176 l 176 836 l 218 833 l 218 176 q 249 60 218 103 q 333 17 279 17 q 336 8 336 17 q 333 0 336 0 q 270 1 303 0 q 199 3 238 3 q 117 1 157 3 q 44 0 78 0 q 40 8 40 0 q 44 17 40 17 q 141 60 106 17 q 176 176 176 103 m 885 -21 q 878 -26 885 -25 q 869 -25 872 -26 l 185 754 q 100 831 135 811 q 31 851 65 851 q 28 860 28 851 q 31 868 28 868 q 88 867 58 868 q 142 865 117 865 q 232 867 192 865 q 294 868 272 868 q 322 852 313 868 q 364 796 331 836 l 874 208 l 885 -21 m 885 690 l 885 -21 l 844 21 l 844 690 q 814 808 844 764 q 729 851 783 851 q 726 860 726 851 q 729 868 726 868 q 792 866 760 868 q 864 864 825 864 q 938 866 901 864 q 1004 868 974 868 q 1007 860 1007 868 q 1004 851 1007 851 q 917 808 949 851 q 885 690 885 764 m 521 -287 q 459 -265 482 -287 q 436 -203 436 -243 q 459 -145 436 -167 q 521 -124 482 -124 q 581 -145 560 -124 q 601 -203 601 -167 q 521 -287 601 -287 z "},"Ǹ":{"ha":1021,"x_min":28,"x_max":1007,"o":"m 176 176 l 176 836 l 218 833 l 218 176 q 249 60 218 103 q 333 17 279 17 q 336 8 336 17 q 333 0 336 0 q 270 1 303 0 q 199 3 238 3 q 117 1 157 3 q 44 0 78 0 q 40 8 40 0 q 44 17 40 17 q 141 60 106 17 q 176 176 176 103 m 885 -21 q 878 -26 885 -25 q 869 -25 872 -26 l 185 754 q 100 831 135 811 q 31 851 65 851 q 28 860 28 851 q 31 868 28 868 q 88 867 58 868 q 142 865 117 865 q 232 867 192 865 q 294 868 272 868 q 322 852 313 868 q 364 796 331 836 l 874 208 l 885 -21 m 885 690 l 885 -21 l 844 21 l 844 690 q 814 808 844 764 q 729 851 783 851 q 726 860 726 851 q 729 868 726 868 q 792 866 760 868 q 864 864 825 864 q 938 866 901 864 q 1004 868 974 868 q 1007 860 1007 868 q 1004 851 1007 851 q 917 808 949 851 q 885 690 885 764 m 669 943 q 526 1001 599 975 q 361 1050 453 1028 q 365 1063 347 1053 q 412 1083 382 1072 q 469 1101 442 1094 q 501 1101 496 1107 q 585 1031 543 1068 q 675 957 626 993 q 678 948 681 956 q 669 943 676 940 z "},"Ṉ":{"ha":1021,"x_min":28,"x_max":1007,"o":"m 176 176 l 176 836 l 218 833 l 218 176 q 249 60 218 103 q 333 17 279 17 q 336 8 336 17 q 333 0 336 0 q 270 1 303 0 q 199 3 238 3 q 117 1 157 3 q 44 0 78 0 q 40 8 40 0 q 44 17 40 17 q 141 60 106 17 q 176 176 176 103 m 885 -21 q 878 -26 885 -25 q 869 -25 872 -26 l 185 754 q 100 831 135 811 q 31 851 65 851 q 28 860 28 851 q 31 868 28 868 q 88 867 58 868 q 142 865 117 865 q 232 867 192 865 q 294 868 272 868 q 322 852 313 868 q 364 796 331 836 l 874 208 l 885 -21 m 885 690 l 885 -21 l 844 21 l 844 690 q 814 808 844 764 q 729 851 783 851 q 726 860 726 851 q 729 868 726 868 q 792 866 760 868 q 864 864 825 864 q 938 866 901 864 q 1004 868 974 868 q 1007 860 1007 868 q 1004 851 1007 851 q 917 808 949 851 q 885 690 885 764 m 344 -169 q 333 -156 336 -169 q 333 -131 329 -143 q 344 -118 336 -118 l 693 -118 q 706 -131 703 -118 q 706 -156 710 -143 q 693 -169 703 -169 l 344 -169 z "},"Ñ":{"ha":1021,"x_min":28,"x_max":1007,"o":"m 176 176 l 176 836 l 218 833 l 218 176 q 249 60 218 103 q 333 17 279 17 q 336 8 336 17 q 333 0 336 0 q 270 1 303 0 q 199 3 238 3 q 117 1 157 3 q 44 0 78 0 q 40 8 40 0 q 44 17 40 17 q 141 60 106 17 q 176 176 176 103 m 885 -21 q 878 -26 885 -25 q 869 -25 872 -26 l 185 754 q 100 831 135 811 q 31 851 65 851 q 28 860 28 851 q 31 868 28 868 q 88 867 58 868 q 142 865 117 865 q 232 867 192 865 q 294 868 272 868 q 322 852 313 868 q 364 796 331 836 l 874 208 l 885 -21 m 885 690 l 885 -21 l 844 21 l 844 690 q 814 808 844 764 q 729 851 783 851 q 726 860 726 851 q 729 868 726 868 q 792 866 760 868 q 864 864 825 864 q 938 866 901 864 q 1004 868 974 868 q 1007 860 1007 868 q 1004 851 1007 851 q 917 808 949 851 q 885 690 885 764 m 635 1060 q 673 1068 658 1060 q 706 1097 688 1076 q 713 1096 708 1100 q 715 1088 718 1092 q 655 998 678 1019 q 600 976 632 976 q 547 985 575 976 q 488 1001 518 993 q 426 1010 458 1010 q 384 1000 396 1010 q 356 972 372 990 q 348 975 353 971 q 346 982 343 979 q 375 1029 357 1003 q 417 1075 393 1056 q 467 1094 440 1094 q 514 1086 486 1094 q 574 1069 542 1078 q 635 1060 606 1060 z "},"Ŋ":{"ha":1021,"x_min":28,"x_max":1007,"o":"m 869 -25 l 185 754 q 100 831 135 811 q 31 851 65 851 q 28 860 28 851 q 31 868 28 868 q 88 867 58 868 q 142 865 117 865 q 232 867 192 865 q 294 868 272 868 q 322 852 313 868 q 364 796 331 836 l 874 208 l 885 -21 l 869 -25 m 700 -265 q 594 -240 635 -265 q 554 -175 554 -215 q 574 -123 554 -144 q 626 -101 594 -101 q 674 -114 660 -101 q 692 -145 689 -126 q 698 -183 696 -164 q 707 -215 700 -203 q 736 -228 714 -228 q 815 -172 786 -228 q 844 -22 844 -115 l 885 -21 q 835 -199 885 -133 q 700 -265 786 -265 m 44 0 q 40 8 40 0 q 44 17 40 17 q 141 60 106 17 q 176 176 176 103 l 176 836 l 218 833 l 218 176 q 249 60 218 103 q 333 17 279 17 q 336 8 336 17 q 333 0 336 0 q 270 1 303 0 q 199 3 238 3 q 117 1 157 3 q 44 0 78 0 m 844 -22 l 844 690 q 814 808 844 764 q 729 851 783 851 q 726 860 726 851 q 729 868 726 868 q 792 866 760 868 q 864 864 825 864 q 938 866 901 864 q 1004 868 974 868 q 1007 860 1007 868 q 1004 851 1007 851 q 917 808 949 851 q 885 690 885 764 l 885 -21 l 844 -22 z "},"O":{"ha":1064,"x_min":68,"x_max":996,"o":"m 508 -17 q 327 19 408 -17 q 188 117 246 54 q 99 260 131 179 q 68 433 68 342 q 112 631 68 546 q 228 772 156 715 q 386 856 300 828 q 557 883 472 883 q 741 847 660 883 q 879 747 822 810 q 966 606 936 685 q 996 443 996 526 q 957 263 996 346 q 851 117 918 179 q 695 19 783 54 q 508 -17 607 -17 m 554 18 q 693 63 632 18 q 790 193 754 107 q 825 403 825 279 q 786 631 825 531 q 675 788 747 731 q 501 846 603 846 q 307 750 375 846 q 239 485 239 654 q 263 298 239 383 q 328 149 286 213 q 428 52 371 86 q 554 18 486 18 z "},"Ó":{"ha":1064,"x_min":68,"x_max":996,"o":"m 508 -17 q 327 19 408 -17 q 188 117 246 54 q 99 260 131 179 q 68 433 68 342 q 112 631 68 546 q 228 772 156 715 q 386 856 300 828 q 557 883 472 883 q 741 847 660 883 q 879 747 822 810 q 966 606 936 685 q 996 443 996 526 q 957 263 996 346 q 851 117 918 179 q 695 19 783 54 q 508 -17 607 -17 m 554 18 q 693 63 632 18 q 790 193 754 107 q 825 403 825 279 q 786 631 825 531 q 675 788 747 731 q 501 846 603 846 q 307 750 375 846 q 239 485 239 654 q 263 298 239 383 q 328 149 286 213 q 428 52 371 86 q 554 18 486 18 m 404 943 q 396 948 399 940 q 397 957 393 956 q 489 1031 447 993 q 572 1101 531 1068 q 605 1101 578 1107 q 662 1083 632 1094 q 709 1063 692 1072 q 713 1050 726 1053 q 547 1001 619 1028 q 404 943 475 975 z "},"Ŏ":{"ha":1064,"x_min":68,"x_max":996,"o":"m 508 -17 q 327 19 408 -17 q 188 117 246 54 q 99 260 131 179 q 68 433 68 342 q 112 631 68 546 q 228 772 156 715 q 386 856 300 828 q 557 883 472 883 q 741 847 660 883 q 879 747 822 810 q 966 606 936 685 q 996 443 996 526 q 957 263 996 346 q 851 117 918 179 q 695 19 783 54 q 508 -17 607 -17 m 554 18 q 693 63 632 18 q 790 193 754 107 q 825 403 825 279 q 786 631 825 531 q 675 788 747 731 q 501 846 603 846 q 307 750 375 846 q 239 485 239 654 q 263 298 239 383 q 328 149 286 213 q 428 52 371 86 q 554 18 486 18 m 539 958 q 433 1004 469 958 q 396 1135 396 1050 q 403 1139 396 1139 q 411 1136 411 1139 q 447 1090 411 1113 q 539 1067 483 1067 q 628 1090 592 1067 q 665 1136 665 1113 q 673 1139 665 1139 q 681 1135 681 1139 q 644 1004 681 1050 q 539 958 608 958 z "},"Ǒ":{"ha":1064,"x_min":68,"x_max":996,"o":"m 508 -17 q 327 19 408 -17 q 188 117 246 54 q 99 260 131 179 q 68 433 68 342 q 112 631 68 546 q 228 772 156 715 q 386 856 300 828 q 557 883 472 883 q 741 847 660 883 q 879 747 822 810 q 966 606 936 685 q 996 443 996 526 q 957 263 996 346 q 851 117 918 179 q 695 19 783 54 q 508 -17 607 -17 m 554 18 q 693 63 632 18 q 790 193 754 107 q 825 403 825 279 q 786 631 825 531 q 675 788 747 731 q 501 846 603 846 q 307 750 375 846 q 239 485 239 654 q 263 298 239 383 q 328 149 286 213 q 428 52 371 86 q 554 18 486 18 m 522 954 l 379 1114 q 382 1122 378 1118 q 388 1124 386 1126 l 539 1071 l 689 1126 q 695 1124 692 1128 q 696 1117 699 1119 l 554 954 q 539 949 549 949 q 522 954 529 949 z "},"Ô":{"ha":1064,"x_min":68,"x_max":996,"o":"m 508 -17 q 327 19 408 -17 q 188 117 246 54 q 99 260 131 179 q 68 433 68 342 q 112 631 68 546 q 228 772 156 715 q 386 856 300 828 q 557 883 472 883 q 741 847 660 883 q 879 747 822 810 q 966 606 936 685 q 996 443 996 526 q 957 263 996 346 q 851 117 918 179 q 695 19 783 54 q 508 -17 607 -17 m 554 18 q 693 63 632 18 q 790 193 754 107 q 825 403 825 279 q 786 631 825 531 q 675 788 747 731 q 501 846 603 846 q 307 750 375 846 q 239 485 239 654 q 263 298 239 383 q 328 149 286 213 q 428 52 371 86 q 554 18 486 18 m 381 975 l 524 1136 q 540 1143 531 1143 q 556 1136 550 1143 l 697 975 q 697 969 701 974 q 690 965 693 964 l 540 1019 l 389 965 q 383 969 388 964 q 381 975 378 974 z "},"Ố":{"ha":1064,"x_min":68,"x_max":996,"o":"m 508 -17 q 327 19 408 -17 q 188 117 246 54 q 99 260 131 179 q 68 433 68 342 q 112 631 68 546 q 228 772 156 715 q 386 856 300 828 q 557 883 472 883 q 741 847 660 883 q 879 747 822 810 q 966 606 936 685 q 996 443 996 526 q 957 263 996 346 q 851 117 918 179 q 695 19 783 54 q 508 -17 607 -17 m 554 18 q 693 63 632 18 q 790 193 754 107 q 825 403 825 279 q 786 631 825 531 q 675 788 747 731 q 501 846 603 846 q 307 750 375 846 q 239 485 239 654 q 263 298 239 383 q 328 149 286 213 q 428 52 371 86 q 554 18 486 18 m 379 951 l 522 1113 q 539 1119 529 1119 q 554 1113 549 1119 l 696 951 q 696 945 700 950 q 689 942 692 940 l 539 996 l 388 942 q 381 945 386 940 q 379 951 376 950 m 629 1039 q 620 1042 624 1035 q 618 1053 617 1049 q 662 1126 640 1089 q 699 1197 683 1164 q 719 1200 701 1203 q 762 1190 738 1197 q 808 1174 786 1183 q 840 1158 829 1165 q 840 1146 851 1150 q 727 1097 776 1124 q 629 1039 678 1071 z "},"Ộ":{"ha":1064,"x_min":68,"x_max":996,"o":"m 508 -17 q 327 19 408 -17 q 188 117 246 54 q 99 260 131 179 q 68 433 68 342 q 112 631 68 546 q 228 772 156 715 q 386 856 300 828 q 557 883 472 883 q 741 847 660 883 q 879 747 822 810 q 966 606 936 685 q 996 443 996 526 q 957 263 996 346 q 851 117 918 179 q 695 19 783 54 q 508 -17 607 -17 m 554 18 q 693 63 632 18 q 790 193 754 107 q 825 403 825 279 q 786 631 825 531 q 675 788 747 731 q 501 846 603 846 q 307 750 375 846 q 239 485 239 654 q 263 298 239 383 q 328 149 286 213 q 428 52 371 86 q 554 18 486 18 m 550 -287 q 488 -265 511 -287 q 465 -203 465 -243 q 488 -145 465 -167 q 550 -124 511 -124 q 610 -145 589 -124 q 631 -203 631 -167 q 550 -287 631 -287 m 379 951 l 522 1113 q 539 1119 529 1119 q 554 1113 549 1119 l 696 951 q 696 945 700 950 q 689 942 692 940 l 539 996 l 388 942 q 381 945 386 940 q 379 951 376 950 z "},"Ồ":{"ha":1064,"x_min":68,"x_max":996,"o":"m 508 -17 q 327 19 408 -17 q 188 117 246 54 q 99 260 131 179 q 68 433 68 342 q 112 631 68 546 q 228 772 156 715 q 386 856 300 828 q 557 883 472 883 q 741 847 660 883 q 879 747 822 810 q 966 606 936 685 q 996 443 996 526 q 957 263 996 346 q 851 117 918 179 q 695 19 783 54 q 508 -17 607 -17 m 554 18 q 693 63 632 18 q 790 193 754 107 q 825 403 825 279 q 786 631 825 531 q 675 788 747 731 q 501 846 603 846 q 307 750 375 846 q 239 485 239 654 q 263 298 239 383 q 328 149 286 213 q 428 52 371 86 q 554 18 486 18 m 379 951 l 522 1113 q 539 1119 529 1119 q 554 1113 549 1119 l 696 951 q 696 945 700 950 q 689 942 692 940 l 539 996 l 388 942 q 381 945 386 940 q 379 951 376 950 m 751 1011 q 656 1069 703 1043 q 546 1118 608 1094 q 545 1130 535 1122 q 577 1147 556 1138 q 623 1163 599 1156 q 665 1172 647 1169 q 686 1169 683 1175 q 722 1099 703 1136 q 763 1025 740 1061 q 762 1015 765 1021 q 751 1011 758 1008 z "},"Ổ":{"ha":1064,"x_min":68,"x_max":996,"o":"m 508 -17 q 327 19 408 -17 q 188 117 246 54 q 99 260 131 179 q 68 433 68 342 q 112 631 68 546 q 228 772 156 715 q 386 856 300 828 q 557 883 472 883 q 741 847 660 883 q 879 747 822 810 q 966 606 936 685 q 996 443 996 526 q 957 263 996 346 q 851 117 918 179 q 695 19 783 54 q 508 -17 607 -17 m 554 18 q 693 63 632 18 q 790 193 754 107 q 825 403 825 279 q 786 631 825 531 q 675 788 747 731 q 501 846 603 846 q 307 750 375 846 q 239 485 239 654 q 263 298 239 383 q 328 149 286 213 q 428 52 371 86 q 554 18 486 18 m 379 951 l 522 1113 q 539 1119 529 1119 q 554 1113 549 1119 l 696 951 q 696 945 700 950 q 689 942 692 940 l 539 996 l 388 942 q 381 945 386 940 q 379 951 376 950 m 663 1013 q 663 1056 657 1036 q 678 1095 669 1076 q 686 1133 686 1114 q 673 1167 686 1157 q 644 1176 660 1176 q 619 1172 631 1176 q 611 1175 617 1169 q 610 1183 606 1181 q 654 1203 632 1197 q 694 1208 676 1208 q 751 1191 731 1208 q 772 1149 772 1174 q 758 1110 772 1128 q 724 1078 743 1093 q 692 1047 706 1063 q 678 1013 678 1031 q 671 1010 678 1011 q 663 1013 664 1008 z "},"Ỗ":{"ha":1064,"x_min":68,"x_max":996,"o":"m 508 -17 q 327 19 408 -17 q 188 117 246 54 q 99 260 131 179 q 68 433 68 342 q 112 631 68 546 q 228 772 156 715 q 386 856 300 828 q 557 883 472 883 q 741 847 660 883 q 879 747 822 810 q 966 606 936 685 q 996 443 996 526 q 957 263 996 346 q 851 117 918 179 q 695 19 783 54 q 508 -17 607 -17 m 554 18 q 693 63 632 18 q 790 193 754 107 q 825 403 825 279 q 786 631 825 531 q 675 788 747 731 q 501 846 603 846 q 307 750 375 846 q 239 485 239 654 q 263 298 239 383 q 328 149 286 213 q 428 52 371 86 q 554 18 486 18 m 379 951 l 522 1113 q 539 1119 529 1119 q 554 1113 549 1119 l 696 951 q 696 945 700 950 q 689 942 692 940 l 539 996 l 388 942 q 381 945 386 940 q 379 951 376 950 m 654 1213 q 692 1221 678 1213 q 725 1250 707 1229 q 733 1249 728 1253 q 735 1240 738 1244 q 674 1151 697 1172 q 619 1129 651 1129 q 566 1138 594 1129 q 508 1154 538 1146 q 446 1163 478 1163 q 403 1153 415 1163 q 375 1125 392 1143 q 367 1128 372 1124 q 365 1135 363 1132 q 394 1182 376 1156 q 436 1228 413 1208 q 486 1247 460 1247 q 533 1239 506 1247 q 593 1222 561 1231 q 654 1213 625 1213 z "},"Ȍ":{"ha":1064,"x_min":68,"x_max":996,"o":"m 508 -17 q 327 19 408 -17 q 188 117 246 54 q 99 260 131 179 q 68 433 68 342 q 112 631 68 546 q 228 772 156 715 q 386 856 300 828 q 557 883 472 883 q 741 847 660 883 q 879 747 822 810 q 966 606 936 685 q 996 443 996 526 q 957 263 996 346 q 851 117 918 179 q 695 19 783 54 q 508 -17 607 -17 m 554 18 q 693 63 632 18 q 790 193 754 107 q 825 403 825 279 q 786 631 825 531 q 675 788 747 731 q 501 846 603 846 q 307 750 375 846 q 239 485 239 654 q 263 298 239 383 q 328 149 286 213 q 428 52 371 86 q 554 18 486 18 m 693 928 q 704 931 700 925 q 704 942 708 936 q 638 1031 669 986 q 579 1118 606 1075 q 553 1120 576 1125 q 503 1105 531 1115 q 460 1083 476 1094 q 454 1067 443 1072 q 581 1001 525 1035 q 693 928 638 968 m 482 928 q 492 931 489 925 q 493 942 496 936 q 426 1030 457 985 q 368 1118 396 1075 q 342 1120 365 1125 q 292 1105 319 1115 q 249 1083 265 1094 q 243 1067 232 1072 q 370 1001 314 1035 q 482 928 426 968 z "},"Ö":{"ha":1064,"x_min":68,"x_max":996,"o":"m 508 -17 q 327 19 408 -17 q 188 117 246 54 q 99 260 131 179 q 68 433 68 342 q 112 631 68 546 q 228 772 156 715 q 386 856 300 828 q 557 883 472 883 q 741 847 660 883 q 879 747 822 810 q 966 606 936 685 q 996 443 996 526 q 957 263 996 346 q 851 117 918 179 q 695 19 783 54 q 508 -17 607 -17 m 554 18 q 693 63 632 18 q 790 193 754 107 q 825 403 825 279 q 786 631 825 531 q 675 788 747 731 q 501 846 603 846 q 307 750 375 846 q 239 485 239 654 q 263 298 239 383 q 328 149 286 213 q 428 52 371 86 q 554 18 486 18 m 419 976 q 364 997 385 976 q 343 1053 343 1017 q 364 1106 343 1086 q 419 1125 385 1125 q 473 1106 454 1125 q 492 1053 492 1086 q 419 976 492 976 m 661 976 q 606 997 626 976 q 586 1053 586 1017 q 606 1105 586 1086 q 661 1124 626 1124 q 733 1053 733 1124 q 661 976 733 976 z "},"Ọ":{"ha":1064,"x_min":68,"x_max":996,"o":"m 508 -17 q 327 19 408 -17 q 188 117 246 54 q 99 260 131 179 q 68 433 68 342 q 112 631 68 546 q 228 772 156 715 q 386 856 300 828 q 557 883 472 883 q 741 847 660 883 q 879 747 822 810 q 966 606 936 685 q 996 443 996 526 q 957 263 996 346 q 851 117 918 179 q 695 19 783 54 q 508 -17 607 -17 m 554 18 q 693 63 632 18 q 790 193 754 107 q 825 403 825 279 q 786 631 825 531 q 675 788 747 731 q 501 846 603 846 q 307 750 375 846 q 239 485 239 654 q 263 298 239 383 q 328 149 286 213 q 428 52 371 86 q 554 18 486 18 m 550 -287 q 488 -265 511 -287 q 465 -203 465 -243 q 488 -145 465 -167 q 550 -124 511 -124 q 610 -145 589 -124 q 631 -203 631 -167 q 550 -287 631 -287 z "},"Ò":{"ha":1064,"x_min":68,"x_max":996,"o":"m 508 -17 q 327 19 408 -17 q 188 117 246 54 q 99 260 131 179 q 68 433 68 342 q 112 631 68 546 q 228 772 156 715 q 386 856 300 828 q 557 883 472 883 q 741 847 660 883 q 879 747 822 810 q 966 606 936 685 q 996 443 996 526 q 957 263 996 346 q 851 117 918 179 q 695 19 783 54 q 508 -17 607 -17 m 554 18 q 693 63 632 18 q 790 193 754 107 q 825 403 825 279 q 786 631 825 531 q 675 788 747 731 q 501 846 603 846 q 307 750 375 846 q 239 485 239 654 q 263 298 239 383 q 328 149 286 213 q 428 52 371 86 q 554 18 486 18 m 678 943 q 534 1001 607 975 q 369 1050 461 1028 q 373 1063 356 1053 q 420 1083 390 1072 q 477 1101 450 1094 q 510 1101 504 1107 q 593 1031 551 1068 q 683 957 635 993 q 687 948 689 956 q 678 943 685 940 z "},"Ỏ":{"ha":1064,"x_min":68,"x_max":996,"o":"m 508 -17 q 327 19 408 -17 q 188 117 246 54 q 99 260 131 179 q 68 433 68 342 q 112 631 68 546 q 228 772 156 715 q 386 856 300 828 q 557 883 472 883 q 741 847 660 883 q 879 747 822 810 q 966 606 936 685 q 996 443 996 526 q 957 263 996 346 q 851 117 918 179 q 695 19 783 54 q 508 -17 607 -17 m 554 18 q 693 63 632 18 q 790 193 754 107 q 825 403 825 279 q 786 631 825 531 q 675 788 747 731 q 501 846 603 846 q 307 750 375 846 q 239 485 239 654 q 263 298 239 383 q 328 149 286 213 q 428 52 371 86 q 554 18 486 18 m 540 904 q 533 902 540 903 q 524 904 525 901 q 523 961 518 936 q 536 1008 528 986 q 552 1050 544 1029 q 560 1096 560 1071 q 550 1134 560 1122 q 521 1146 540 1146 q 497 1142 510 1146 q 471 1132 485 1139 q 462 1135 467 1131 q 461 1143 457 1140 q 515 1172 485 1163 q 575 1182 544 1182 q 646 1163 619 1182 q 672 1110 672 1144 q 652 1052 672 1079 q 606 1001 632 1025 q 560 953 579 976 q 540 904 540 929 z "},"Ơ":{"ha":1064,"x_min":68,"x_max":1036,"o":"m 508 -17 q 327 19 408 -17 q 188 117 246 54 q 99 260 131 179 q 68 433 68 342 q 112 631 68 546 q 228 772 156 715 q 386 856 300 828 q 557 883 472 883 q 741 847 660 883 q 879 747 822 810 q 966 606 936 685 q 996 443 996 526 q 957 263 996 346 q 851 117 918 179 q 695 19 783 54 q 508 -17 607 -17 m 554 18 q 693 63 632 18 q 790 193 754 107 q 825 403 825 279 q 786 631 825 531 q 675 788 747 731 q 501 846 603 846 q 307 750 375 846 q 239 485 239 654 q 263 298 239 383 q 328 149 286 213 q 428 52 371 86 q 554 18 486 18 m 831 739 l 825 758 q 928 843 928 796 q 920 866 928 857 q 905 888 913 875 q 897 921 897 900 q 920 974 897 957 q 969 992 943 992 q 1020 969 1004 992 q 1036 919 1036 946 q 1005 839 1036 872 q 926 782 974 806 q 831 739 879 758 z "},"Ớ":{"ha":1064,"x_min":68,"x_max":1036,"o":"m 508 -17 q 327 19 408 -17 q 188 117 246 54 q 99 260 131 179 q 68 433 68 342 q 112 631 68 546 q 228 772 156 715 q 386 856 300 828 q 557 883 472 883 q 741 847 660 883 q 879 747 822 810 q 966 606 936 685 q 996 443 996 526 q 957 263 996 346 q 851 117 918 179 q 695 19 783 54 q 508 -17 607 -17 m 554 18 q 693 63 632 18 q 790 193 754 107 q 825 403 825 279 q 786 631 825 531 q 675 788 747 731 q 501 846 603 846 q 307 750 375 846 q 239 485 239 654 q 263 298 239 383 q 328 149 286 213 q 428 52 371 86 q 554 18 486 18 m 831 739 l 825 758 q 928 843 928 796 q 920 866 928 857 q 905 888 913 875 q 897 921 897 900 q 920 974 897 957 q 969 992 943 992 q 1020 969 1004 992 q 1036 919 1036 946 q 1005 839 1036 872 q 926 782 974 806 q 831 739 879 758 m 399 942 q 390 948 393 940 q 392 957 388 956 q 483 1030 442 993 q 567 1101 525 1067 q 599 1099 572 1106 q 656 1083 626 1093 q 703 1063 686 1072 q 707 1050 721 1053 q 542 1000 614 1026 q 399 942 469 974 z "},"Ợ":{"ha":1064,"x_min":68,"x_max":1036,"o":"m 508 -17 q 327 19 408 -17 q 188 117 246 54 q 99 260 131 179 q 68 433 68 342 q 112 631 68 546 q 228 772 156 715 q 386 856 300 828 q 557 883 472 883 q 741 847 660 883 q 879 747 822 810 q 966 606 936 685 q 996 443 996 526 q 957 263 996 346 q 851 117 918 179 q 695 19 783 54 q 508 -17 607 -17 m 554 18 q 693 63 632 18 q 790 193 754 107 q 825 403 825 279 q 786 631 825 531 q 675 788 747 731 q 501 846 603 846 q 307 750 375 846 q 239 485 239 654 q 263 298 239 383 q 328 149 286 213 q 428 52 371 86 q 554 18 486 18 m 831 739 l 825 758 q 928 843 928 796 q 920 866 928 857 q 905 888 913 875 q 897 921 897 900 q 920 974 897 957 q 969 992 943 992 q 1020 969 1004 992 q 1036 919 1036 946 q 1005 839 1036 872 q 926 782 974 806 q 831 739 879 758 m 535 -287 q 473 -265 496 -287 q 450 -203 450 -243 q 473 -145 450 -167 q 535 -124 496 -124 q 594 -145 574 -124 q 615 -203 615 -167 q 535 -287 615 -287 z "},"Ờ":{"ha":1064,"x_min":68,"x_max":1036,"o":"m 508 -17 q 327 19 408 -17 q 188 117 246 54 q 99 260 131 179 q 68 433 68 342 q 112 631 68 546 q 228 772 156 715 q 386 856 300 828 q 557 883 472 883 q 741 847 660 883 q 879 747 822 810 q 966 606 936 685 q 996 443 996 526 q 957 263 996 346 q 851 117 918 179 q 695 19 783 54 q 508 -17 607 -17 m 554 18 q 693 63 632 18 q 790 193 754 107 q 825 403 825 279 q 786 631 825 531 q 675 788 747 731 q 501 846 603 846 q 307 750 375 846 q 239 485 239 654 q 263 298 239 383 q 328 149 286 213 q 428 52 371 86 q 554 18 486 18 m 831 739 l 825 758 q 928 843 928 796 q 920 866 928 857 q 905 888 913 875 q 897 921 897 900 q 920 974 897 957 q 969 992 943 992 q 1020 969 1004 992 q 1036 919 1036 946 q 1005 839 1036 872 q 926 782 974 806 q 831 739 879 758 m 672 943 q 528 1001 601 975 q 364 1050 456 1028 q 367 1063 350 1053 q 415 1083 385 1072 q 472 1101 444 1094 q 504 1101 499 1107 q 588 1031 546 1068 q 678 957 629 993 q 681 948 683 956 q 672 943 679 940 z "},"Ở":{"ha":1064,"x_min":68,"x_max":1036,"o":"m 508 -17 q 327 19 408 -17 q 188 117 246 54 q 99 260 131 179 q 68 433 68 342 q 112 631 68 546 q 228 772 156 715 q 386 856 300 828 q 557 883 472 883 q 741 847 660 883 q 879 747 822 810 q 966 606 936 685 q 996 443 996 526 q 957 263 996 346 q 851 117 918 179 q 695 19 783 54 q 508 -17 607 -17 m 554 18 q 693 63 632 18 q 790 193 754 107 q 825 403 825 279 q 786 631 825 531 q 675 788 747 731 q 501 846 603 846 q 307 750 375 846 q 239 485 239 654 q 263 298 239 383 q 328 149 286 213 q 428 52 371 86 q 554 18 486 18 m 831 739 l 825 758 q 928 843 928 796 q 920 866 928 857 q 905 888 913 875 q 897 921 897 900 q 920 974 897 957 q 969 992 943 992 q 1020 969 1004 992 q 1036 919 1036 946 q 1005 839 1036 872 q 926 782 974 806 q 831 739 879 758 m 536 918 q 528 915 536 915 q 519 918 521 914 q 518 974 514 950 q 531 1020 522 999 q 548 1063 540 1042 q 556 1110 556 1085 q 546 1147 556 1135 q 517 1158 536 1158 q 492 1155 506 1158 q 465 1146 479 1151 q 458 1148 463 1143 q 456 1157 453 1153 q 510 1186 481 1176 q 569 1196 539 1196 q 640 1176 614 1196 q 667 1122 667 1157 q 647 1065 667 1092 q 600 1015 626 1039 q 554 967 574 990 q 536 918 535 943 z "},"Ỡ":{"ha":1064,"x_min":68,"x_max":1036,"o":"m 508 -17 q 327 19 408 -17 q 188 117 246 54 q 99 260 131 179 q 68 433 68 342 q 112 631 68 546 q 228 772 156 715 q 386 856 300 828 q 557 883 472 883 q 741 847 660 883 q 879 747 822 810 q 966 606 936 685 q 996 443 996 526 q 957 263 996 346 q 851 117 918 179 q 695 19 783 54 q 508 -17 607 -17 m 554 18 q 693 63 632 18 q 790 193 754 107 q 825 403 825 279 q 786 631 825 531 q 675 788 747 731 q 501 846 603 846 q 307 750 375 846 q 239 485 239 654 q 263 298 239 383 q 328 149 286 213 q 428 52 371 86 q 554 18 486 18 m 831 739 l 825 758 q 928 843 928 796 q 920 866 928 857 q 905 888 913 875 q 897 921 897 900 q 920 974 897 957 q 969 992 943 992 q 1020 969 1004 992 q 1036 919 1036 946 q 1005 839 1036 872 q 926 782 974 806 q 831 739 879 758 m 638 1060 q 676 1068 661 1060 q 708 1097 690 1076 q 716 1096 711 1100 q 718 1088 721 1092 q 658 998 681 1019 q 603 976 635 976 q 549 985 578 976 q 491 1001 521 993 q 429 1010 461 1010 q 387 1000 399 1010 q 358 972 375 990 q 351 975 356 971 q 349 982 346 979 q 378 1029 360 1003 q 419 1075 396 1056 q 469 1094 443 1094 q 517 1086 489 1094 q 576 1069 544 1078 q 638 1060 608 1060 z "},"Ő":{"ha":1064,"x_min":68,"x_max":996,"o":"m 508 -17 q 327 19 408 -17 q 188 117 246 54 q 99 260 131 179 q 68 433 68 342 q 112 631 68 546 q 228 772 156 715 q 386 856 300 828 q 557 883 472 883 q 741 847 660 883 q 879 747 822 810 q 966 606 936 685 q 996 443 996 526 q 957 263 996 346 q 851 117 918 179 q 695 19 783 54 q 508 -17 607 -17 m 554 18 q 693 63 632 18 q 790 193 754 107 q 825 403 825 279 q 786 631 825 531 q 675 788 747 731 q 501 846 603 846 q 307 750 375 846 q 239 485 239 654 q 263 298 239 383 q 328 149 286 213 q 428 52 371 86 q 554 18 486 18 m 385 928 q 374 931 379 925 q 374 942 369 936 q 441 1031 410 986 q 499 1118 472 1075 q 524 1120 501 1125 q 574 1105 547 1115 q 618 1083 601 1094 q 624 1067 635 1072 q 497 1001 553 1035 q 385 928 442 968 m 596 928 q 586 931 590 925 q 585 942 582 936 q 652 1030 621 985 q 710 1118 683 1075 q 735 1120 713 1125 q 785 1105 758 1115 q 829 1083 813 1094 q 835 1067 846 1072 q 708 1001 764 1035 q 596 928 653 968 z "},"Ȏ":{"ha":1064,"x_min":68,"x_max":996,"o":"m 508 -17 q 327 19 408 -17 q 188 117 246 54 q 99 260 131 179 q 68 433 68 342 q 112 631 68 546 q 228 772 156 715 q 386 856 300 828 q 557 883 472 883 q 741 847 660 883 q 879 747 822 810 q 966 606 936 685 q 996 443 996 526 q 957 263 996 346 q 851 117 918 179 q 695 19 783 54 q 508 -17 607 -17 m 554 18 q 693 63 632 18 q 790 193 754 107 q 825 403 825 279 q 786 631 825 531 q 675 788 747 731 q 501 846 603 846 q 307 750 375 846 q 239 485 239 654 q 263 298 239 383 q 328 149 286 213 q 428 52 371 86 q 554 18 486 18 m 411 944 q 403 940 411 940 q 396 946 396 940 q 539 1121 396 1121 q 681 946 681 1121 q 673 940 681 940 q 665 944 665 940 q 628 991 665 968 q 539 1014 592 1014 q 447 991 483 1014 q 411 944 411 968 z "},"Ō":{"ha":1064,"x_min":68,"x_max":996,"o":"m 508 -17 q 327 19 408 -17 q 188 117 246 54 q 99 260 131 179 q 68 433 68 342 q 112 631 68 546 q 228 772 156 715 q 386 856 300 828 q 557 883 472 883 q 741 847 660 883 q 879 747 822 810 q 966 606 936 685 q 996 443 996 526 q 957 263 996 346 q 851 117 918 179 q 695 19 783 54 q 508 -17 607 -17 m 554 18 q 693 63 632 18 q 790 193 754 107 q 825 403 825 279 q 786 631 825 531 q 675 788 747 731 q 501 846 603 846 q 307 750 375 846 q 239 485 239 654 q 263 298 239 383 q 328 149 286 213 q 428 52 371 86 q 554 18 486 18 m 364 990 q 352 1003 356 990 q 352 1029 349 1017 q 364 1042 356 1042 l 713 1042 q 726 1029 722 1042 q 726 1003 729 1017 q 713 990 722 990 l 364 990 z "},"Ǫ":{"ha":1064,"x_min":68,"x_max":996,"o":"m 508 -17 q 327 19 408 -17 q 188 117 246 54 q 99 260 131 179 q 68 433 68 342 q 112 631 68 546 q 228 772 156 715 q 386 856 300 828 q 557 883 472 883 q 741 847 660 883 q 879 747 822 810 q 966 606 936 685 q 996 443 996 526 q 957 263 996 346 q 851 117 918 179 q 695 19 783 54 q 508 -17 607 -17 m 554 18 q 693 63 632 18 q 790 193 754 107 q 825 403 825 279 q 786 631 825 531 q 675 788 747 731 q 501 846 603 846 q 307 750 375 846 q 239 485 239 654 q 263 298 239 383 q 328 149 286 213 q 428 52 371 86 q 554 18 486 18 m 600 8 l 619 1 q 557 -77 576 -40 q 538 -162 538 -114 q 573 -278 538 -233 q 672 -324 608 -324 q 706 -319 688 -324 q 732 -308 724 -314 q 741 -311 736 -306 q 742 -319 746 -317 q 662 -367 701 -353 q 586 -382 622 -382 q 469 -337 515 -382 q 422 -229 422 -293 q 466 -113 422 -172 q 600 8 510 -54 z "},"Ø":{"ha":1096,"x_min":68,"x_max":996,"o":"m 125 -12 q 116 -10 124 -15 q 102 4 108 -4 q 99 15 96 13 l 950 879 q 969 870 954 882 q 978 853 983 858 l 125 -12 m 508 -17 q 327 19 408 -17 q 188 117 246 54 q 99 260 131 179 q 68 433 68 342 q 112 631 68 546 q 228 772 156 715 q 386 856 300 828 q 557 883 472 883 q 741 847 660 883 q 879 747 822 810 q 966 606 936 685 q 996 443 996 526 q 957 263 996 346 q 851 117 918 179 q 695 19 783 54 q 508 -17 607 -17 m 554 18 q 693 63 632 18 q 790 193 754 107 q 825 403 825 279 q 786 631 825 531 q 675 788 747 731 q 501 846 603 846 q 307 750 375 846 q 239 485 239 654 q 263 298 239 383 q 328 149 286 213 q 428 52 371 86 q 554 18 486 18 z "},"Ǿ":{"ha":1096,"x_min":68,"x_max":996,"o":"m 125 -12 q 116 -10 124 -15 q 102 4 108 -4 q 99 15 96 13 l 950 879 q 969 870 954 882 q 978 853 983 858 l 125 -12 m 508 -17 q 327 19 408 -17 q 188 117 246 54 q 99 260 131 179 q 68 433 68 342 q 112 631 68 546 q 228 772 156 715 q 386 856 300 828 q 557 883 472 883 q 741 847 660 883 q 879 747 822 810 q 966 606 936 685 q 996 443 996 526 q 957 263 996 346 q 851 117 918 179 q 695 19 783 54 q 508 -17 607 -17 m 554 18 q 693 63 632 18 q 790 193 754 107 q 825 403 825 279 q 786 631 825 531 q 675 788 747 731 q 501 846 603 846 q 307 750 375 846 q 239 485 239 654 q 263 298 239 383 q 328 149 286 213 q 428 52 371 86 q 554 18 486 18 m 426 943 q 418 948 421 940 q 419 957 415 956 q 511 1031 469 993 q 594 1101 553 1068 q 627 1101 600 1107 q 684 1083 654 1094 q 731 1063 714 1072 q 735 1050 749 1053 q 569 1001 642 1028 q 426 943 497 975 z "},"Õ":{"ha":1064,"x_min":68,"x_max":996,"o":"m 508 -17 q 327 19 408 -17 q 188 117 246 54 q 99 260 131 179 q 68 433 68 342 q 112 631 68 546 q 228 772 156 715 q 386 856 300 828 q 557 883 472 883 q 741 847 660 883 q 879 747 822 810 q 966 606 936 685 q 996 443 996 526 q 957 263 996 346 q 851 117 918 179 q 695 19 783 54 q 508 -17 607 -17 m 554 18 q 693 63 632 18 q 790 193 754 107 q 825 403 825 279 q 786 631 825 531 q 675 788 747 731 q 501 846 603 846 q 307 750 375 846 q 239 485 239 654 q 263 298 239 383 q 328 149 286 213 q 428 52 371 86 q 554 18 486 18 m 643 1060 q 681 1068 667 1060 q 714 1097 696 1076 q 722 1096 717 1100 q 724 1088 726 1092 q 663 998 686 1019 q 608 976 640 976 q 555 985 583 976 q 497 1001 526 993 q 435 1010 467 1010 q 392 1000 404 1010 q 364 972 381 990 q 356 975 361 971 q 354 982 351 979 q 383 1029 365 1003 q 425 1075 401 1056 q 475 1094 449 1094 q 522 1086 494 1094 q 582 1069 550 1078 q 643 1060 614 1060 z "},"Œ":{"ha":1294,"x_min":68,"x_max":1233,"o":"m 578 -6 q 310 51 425 -6 q 131 203 194 107 q 68 418 68 299 q 107 606 68 522 q 214 749 146 689 q 371 840 282 808 q 558 871 460 871 q 664 869 610 871 q 769 868 718 868 l 1175 868 q 1188 856 1188 868 l 1190 671 q 1183 667 1190 668 q 1175 669 1176 665 q 1138 739 1167 701 q 1068 803 1110 776 q 976 831 1026 831 l 918 831 q 873 822 890 831 q 847 797 856 814 q 839 754 839 781 l 839 118 q 846 74 839 92 q 867 48 853 57 q 901 39 881 39 l 964 39 q 1069 64 1017 39 q 1162 131 1122 89 q 1217 221 1201 172 q 1226 223 1218 225 q 1233 218 1233 221 q 1224 123 1228 178 q 1219 21 1219 68 q 1199 0 1219 0 l 756 0 q 667 -3 713 0 q 578 -6 622 -6 m 1121 310 q 1078 399 1121 367 q 951 432 1035 432 l 764 432 l 764 471 l 954 471 q 1078 499 1036 471 q 1119 576 1119 528 q 1128 581 1119 581 q 1136 576 1136 581 q 1135 505 1136 531 q 1133 451 1133 479 q 1135 383 1133 417 q 1138 310 1138 350 q 1129 307 1138 307 q 1121 310 1121 307 m 565 25 q 642 31 617 25 q 675 57 667 38 q 683 113 683 76 l 683 756 q 676 810 683 792 q 644 835 668 828 q 574 842 621 842 q 401 796 476 842 q 282 663 325 750 q 239 449 239 575 q 279 234 239 331 q 392 81 319 138 q 565 25 465 25 z "},"P":{"ha":768,"x_min":43,"x_max":719,"o":"m 300 118 q 309 55 300 76 q 347 25 318 33 q 433 17 376 17 q 438 8 438 17 q 433 0 438 0 q 337 1 389 0 q 224 3 285 3 q 128 1 174 3 q 47 0 83 0 q 43 8 43 0 q 47 17 43 17 q 111 24 90 17 q 139 51 132 31 q 146 113 146 72 l 146 756 q 139 816 146 796 q 111 844 132 836 q 47 851 90 851 q 43 860 43 851 q 47 868 43 868 q 128 866 83 868 q 222 864 172 864 q 310 868 256 864 q 411 872 364 872 q 566 849 499 872 q 674 776 633 826 q 717 644 714 726 q 694 521 719 574 q 623 433 668 468 q 523 381 578 399 q 414 364 468 364 q 383 365 400 364 q 349 371 365 367 q 346 381 344 372 q 353 389 347 390 q 378 385 364 386 q 400 383 392 383 q 474 408 440 383 q 528 485 507 433 q 549 613 549 536 q 528 737 549 686 q 467 815 507 788 q 367 842 426 842 q 327 835 342 842 q 306 808 313 828 q 300 753 300 789 l 300 118 z "},"Þ":{"ha":763,"x_min":53,"x_max":719,"o":"m 140 756 q 134 816 140 796 q 110 844 128 836 q 57 851 93 851 q 53 860 53 851 q 57 868 53 868 q 131 866 90 868 q 218 864 172 864 q 331 866 279 864 q 428 868 382 868 q 431 860 431 868 q 428 851 431 851 q 342 843 371 851 q 303 813 313 835 q 294 749 294 792 l 294 118 q 303 55 294 76 q 342 25 313 33 q 428 17 371 17 q 431 8 431 17 q 428 0 431 0 q 331 1 382 0 q 218 3 279 3 q 131 1 172 3 q 57 0 90 0 q 53 8 53 0 q 57 17 53 17 q 110 24 93 17 q 134 51 128 31 q 140 113 140 72 l 140 756 m 204 671 q 315 688 254 683 q 418 693 376 693 q 567 672 500 693 q 674 601 633 650 q 718 467 715 551 q 693 340 719 393 q 623 252 667 286 q 528 201 579 218 q 428 185 476 185 q 392 187 410 185 q 358 192 375 189 q 356 202 354 193 q 363 210 357 211 q 388 206 375 208 q 413 204 400 204 q 480 229 449 204 q 531 306 511 254 q 550 439 550 358 q 503 608 550 553 q 383 663 457 663 q 296 656 339 663 q 217 642 253 650 l 204 671 z "},"Q":{"ha":1064,"x_min":68,"x_max":1043,"o":"m 682 17 q 769 -123 718 -62 q 878 -217 821 -183 q 986 -251 935 -251 q 1013 -251 1001 -251 q 1035 -249 1025 -250 q 1041 -254 1039 -247 q 1040 -262 1043 -261 q 988 -274 1015 -269 q 928 -279 960 -279 q 779 -247 857 -279 q 628 -151 701 -214 q 499 3 556 -89 l 682 17 m 508 -17 q 327 19 408 -17 q 188 117 246 54 q 99 260 131 179 q 68 433 68 342 q 112 631 68 546 q 228 772 156 715 q 386 856 300 828 q 557 883 472 883 q 741 847 660 883 q 879 747 822 810 q 966 606 936 685 q 996 443 996 526 q 957 263 996 346 q 851 117 918 179 q 695 19 783 54 q 508 -17 607 -17 m 554 18 q 693 63 632 18 q 790 193 754 107 q 825 403 825 279 q 786 631 825 531 q 675 788 747 731 q 501 846 603 846 q 307 750 375 846 q 239 485 239 654 q 263 298 239 383 q 328 149 286 213 q 428 52 371 86 q 554 18 486 18 z "},"S":{"ha":715,"x_min":101,"x_max":643,"o":"m 242 728 q 269 635 242 675 q 340 564 296 596 q 432 500 383 532 q 533 430 485 467 q 612 345 581 393 q 643 231 643 297 q 603 101 643 157 q 497 15 564 46 q 343 -17 429 -17 q 256 -8 301 -17 q 174 13 211 0 q 121 39 138 25 q 111 48 115 43 q 107 65 107 53 l 103 286 q 109 294 101 293 q 118 289 117 294 q 164 198 139 246 q 220 110 189 150 q 290 44 251 69 q 379 18 329 18 q 440 29 411 18 q 488 69 469 40 q 507 150 507 99 q 478 262 507 215 q 403 344 449 308 q 307 411 357 379 q 214 477 258 443 q 142 555 169 511 q 114 660 114 599 q 158 787 114 738 q 269 860 201 836 q 406 883 336 883 q 506 874 456 883 q 585 853 556 865 q 602 840 599 847 q 606 825 606 833 l 606 621 q 599 615 606 617 q 590 617 593 613 q 567 672 582 633 q 526 751 551 710 q 463 823 501 793 q 368 853 424 853 q 305 839 333 853 q 259 798 276 825 q 242 728 242 771 z "},"Ś":{"ha":715,"x_min":101,"x_max":643,"o":"m 242 728 q 269 635 242 675 q 340 564 296 596 q 432 500 383 532 q 533 430 485 467 q 612 345 581 393 q 643 231 643 297 q 603 101 643 157 q 497 15 564 46 q 343 -17 429 -17 q 256 -8 301 -17 q 174 13 211 0 q 121 39 138 25 q 111 48 115 43 q 107 65 107 53 l 103 286 q 109 294 101 293 q 118 289 117 294 q 164 198 139 246 q 220 110 189 150 q 290 44 251 69 q 379 18 329 18 q 440 29 411 18 q 488 69 469 40 q 507 150 507 99 q 478 262 507 215 q 403 344 449 308 q 307 411 357 379 q 214 477 258 443 q 142 555 169 511 q 114 660 114 599 q 158 787 114 738 q 269 860 201 836 q 406 883 336 883 q 506 874 456 883 q 585 853 556 865 q 602 840 599 847 q 606 825 606 833 l 606 621 q 599 615 606 617 q 590 617 593 613 q 567 672 582 633 q 526 751 551 710 q 463 823 501 793 q 368 853 424 853 q 305 839 333 853 q 259 798 276 825 q 242 728 242 771 m 242 943 q 233 948 236 940 q 235 957 231 956 q 326 1031 285 993 q 410 1101 368 1068 q 442 1101 415 1107 q 499 1083 469 1094 q 547 1063 529 1072 q 550 1050 564 1053 q 385 1001 457 1028 q 242 943 313 975 z "},"Ꞌ":{"ha":365,"x_min":90,"x_max":276,"o":"m 92 1007 q 105 1018 90 1014 q 141 1024 119 1022 q 182 1026 163 1026 q 224 1024 201 1026 q 261 1018 246 1022 q 274 1007 276 1014 q 233 817 249 919 q 208 612 217 715 q 196 415 200 508 q 179 408 196 408 q 163 415 163 408 q 152 612 160 508 q 130 817 144 715 q 92 1007 115 919 z "},"Š":{"ha":715,"x_min":101,"x_max":643,"o":"m 242 728 q 269 635 242 675 q 340 564 296 596 q 432 500 383 532 q 533 430 485 467 q 612 345 581 393 q 643 231 643 297 q 603 101 643 157 q 497 15 564 46 q 343 -17 429 -17 q 256 -8 301 -17 q 174 13 211 0 q 121 39 138 25 q 111 48 115 43 q 107 65 107 53 l 103 286 q 109 294 101 293 q 118 289 117 294 q 164 198 139 246 q 220 110 189 150 q 290 44 251 69 q 379 18 329 18 q 440 29 411 18 q 488 69 469 40 q 507 150 507 99 q 478 262 507 215 q 403 344 449 308 q 307 411 357 379 q 214 477 258 443 q 142 555 169 511 q 114 660 114 599 q 158 787 114 738 q 269 860 201 836 q 406 883 336 883 q 506 874 456 883 q 585 853 556 865 q 602 840 599 847 q 606 825 606 833 l 606 621 q 599 615 606 617 q 590 617 593 613 q 567 672 582 633 q 526 751 551 710 q 463 823 501 793 q 368 853 424 853 q 305 839 333 853 q 259 798 276 825 q 242 728 242 771 m 360 954 l 217 1114 q 219 1122 215 1118 q 225 1124 224 1126 l 376 1071 l 526 1126 q 533 1124 529 1128 q 533 1117 536 1119 l 392 954 q 376 949 386 949 q 360 954 367 949 z "},"Ş":{"ha":715,"x_min":101,"x_max":643,"o":"m 242 728 q 269 635 242 675 q 340 564 296 596 q 432 500 383 532 q 533 430 485 467 q 612 345 581 393 q 643 231 643 297 q 603 101 643 157 q 497 15 564 46 q 343 -17 429 -17 q 256 -8 301 -17 q 174 13 211 0 q 121 39 138 25 q 111 48 115 43 q 107 65 107 53 l 103 286 q 109 294 101 293 q 118 289 117 294 q 164 198 139 246 q 220 110 189 150 q 290 44 251 69 q 379 18 329 18 q 440 29 411 18 q 488 69 469 40 q 507 150 507 99 q 478 262 507 215 q 403 344 449 308 q 307 411 357 379 q 214 477 258 443 q 142 555 169 511 q 114 660 114 599 q 158 787 114 738 q 269 860 201 836 q 406 883 336 883 q 506 874 456 883 q 585 853 556 865 q 602 840 599 847 q 606 825 606 833 l 606 621 q 599 615 606 617 q 590 617 593 613 q 567 672 582 633 q 526 751 551 710 q 463 823 501 793 q 368 853 424 853 q 305 839 333 853 q 259 798 276 825 q 242 728 242 771 m 388 -3 q 383 -54 381 -32 q 398 -94 385 -76 q 438 -128 411 -112 q 490 -170 467 -146 q 514 -236 514 -194 q 497 -303 514 -269 q 444 -359 481 -336 q 344 -382 407 -382 q 267 -366 294 -382 q 240 -315 240 -350 q 257 -278 240 -296 q 296 -261 274 -261 q 336 -274 325 -261 q 351 -305 347 -287 q 365 -335 356 -322 q 400 -349 374 -349 q 431 -315 431 -349 q 406 -250 431 -279 q 315 -185 381 -221 q 303 -172 306 -181 q 308 -146 301 -164 q 329 -94 322 -112 q 344 -57 336 -76 q 364 -1 351 -37 l 388 -3 z "},"Ŝ":{"ha":715,"x_min":101,"x_max":643,"o":"m 242 728 q 269 635 242 675 q 340 564 296 596 q 432 500 383 532 q 533 430 485 467 q 612 345 581 393 q 643 231 643 297 q 603 101 643 157 q 497 15 564 46 q 343 -17 429 -17 q 256 -8 301 -17 q 174 13 211 0 q 121 39 138 25 q 111 48 115 43 q 107 65 107 53 l 103 286 q 109 294 101 293 q 118 289 117 294 q 164 198 139 246 q 220 110 189 150 q 290 44 251 69 q 379 18 329 18 q 440 29 411 18 q 488 69 469 40 q 507 150 507 99 q 478 262 507 215 q 403 344 449 308 q 307 411 357 379 q 214 477 258 443 q 142 555 169 511 q 114 660 114 599 q 158 787 114 738 q 269 860 201 836 q 406 883 336 883 q 506 874 456 883 q 585 853 556 865 q 602 840 599 847 q 606 825 606 833 l 606 621 q 599 615 606 617 q 590 617 593 613 q 567 672 582 633 q 526 751 551 710 q 463 823 501 793 q 368 853 424 853 q 305 839 333 853 q 259 798 276 825 q 242 728 242 771 m 218 975 l 361 1136 q 378 1143 368 1143 q 393 1136 388 1143 l 535 975 q 535 969 539 974 q 528 965 531 964 l 378 1019 l 226 965 q 220 969 225 964 q 218 975 215 974 z "},"Ș":{"ha":715,"x_min":101,"x_max":643,"o":"m 242 728 q 269 635 242 675 q 340 564 296 596 q 432 500 383 532 q 533 430 485 467 q 612 345 581 393 q 643 231 643 297 q 603 101 643 157 q 497 15 564 46 q 343 -17 429 -17 q 256 -8 301 -17 q 174 13 211 0 q 121 39 138 25 q 111 48 115 43 q 107 65 107 53 l 103 286 q 109 294 101 293 q 118 289 117 294 q 164 198 139 246 q 220 110 189 150 q 290 44 251 69 q 379 18 329 18 q 440 29 411 18 q 488 69 469 40 q 507 150 507 99 q 478 262 507 215 q 403 344 449 308 q 307 411 357 379 q 214 477 258 443 q 142 555 169 511 q 114 660 114 599 q 158 787 114 738 q 269 860 201 836 q 406 883 336 883 q 506 874 456 883 q 585 853 556 865 q 602 840 599 847 q 606 825 606 833 l 606 621 q 599 615 606 617 q 590 617 593 613 q 567 672 582 633 q 526 751 551 710 q 463 823 501 793 q 368 853 424 853 q 305 839 333 853 q 259 798 276 825 q 242 728 242 771 m 367 -382 q 356 -378 361 -385 q 357 -368 351 -372 q 403 -326 382 -349 q 424 -275 424 -303 q 411 -231 424 -243 q 379 -217 399 -218 l 417 -190 q 402 -239 418 -222 q 353 -256 386 -256 q 304 -233 324 -256 q 285 -176 285 -211 q 313 -116 285 -136 q 375 -96 340 -96 q 448 -127 424 -96 q 472 -208 472 -158 q 442 -308 472 -267 q 367 -382 411 -350 z "},"Ṡ":{"ha":715,"x_min":101,"x_max":643,"o":"m 242 728 q 269 635 242 675 q 340 564 296 596 q 432 500 383 532 q 533 430 485 467 q 612 345 581 393 q 643 231 643 297 q 603 101 643 157 q 497 15 564 46 q 343 -17 429 -17 q 256 -8 301 -17 q 174 13 211 0 q 121 39 138 25 q 111 48 115 43 q 107 65 107 53 l 103 286 q 109 294 101 293 q 118 289 117 294 q 164 198 139 246 q 220 110 189 150 q 290 44 251 69 q 379 18 329 18 q 440 29 411 18 q 488 69 469 40 q 507 150 507 99 q 478 262 507 215 q 403 344 449 308 q 307 411 357 379 q 214 477 258 443 q 142 555 169 511 q 114 660 114 599 q 158 787 114 738 q 269 860 201 836 q 406 883 336 883 q 506 874 456 883 q 585 853 556 865 q 602 840 599 847 q 606 825 606 833 l 606 621 q 599 615 606 617 q 590 617 593 613 q 567 672 582 633 q 526 751 551 710 q 463 823 501 793 q 368 853 424 853 q 305 839 333 853 q 259 798 276 825 q 242 728 242 771 m 378 990 q 316 1013 339 990 q 293 1075 293 1036 q 316 1133 293 1111 q 378 1156 339 1156 q 438 1133 417 1156 q 458 1075 458 1111 q 438 1013 458 1036 q 378 990 417 990 z "},"Ṣ":{"ha":715,"x_min":101,"x_max":643,"o":"m 242 728 q 269 635 242 675 q 340 564 296 596 q 432 500 383 532 q 533 430 485 467 q 612 345 581 393 q 643 231 643 297 q 603 101 643 157 q 497 15 564 46 q 343 -17 429 -17 q 256 -8 301 -17 q 174 13 211 0 q 121 39 138 25 q 111 48 115 43 q 107 65 107 53 l 103 286 q 109 294 101 293 q 118 289 117 294 q 164 198 139 246 q 220 110 189 150 q 290 44 251 69 q 379 18 329 18 q 440 29 411 18 q 488 69 469 40 q 507 150 507 99 q 478 262 507 215 q 403 344 449 308 q 307 411 357 379 q 214 477 258 443 q 142 555 169 511 q 114 660 114 599 q 158 787 114 738 q 269 860 201 836 q 406 883 336 883 q 506 874 456 883 q 585 853 556 865 q 602 840 599 847 q 606 825 606 833 l 606 621 q 599 615 606 617 q 590 617 593 613 q 567 672 582 633 q 526 751 551 710 q 463 823 501 793 q 368 853 424 853 q 305 839 333 853 q 259 798 276 825 q 242 728 242 771 m 383 -287 q 322 -265 344 -287 q 299 -203 299 -243 q 322 -145 299 -167 q 383 -124 344 -124 q 443 -145 422 -124 q 464 -203 464 -167 q 383 -287 464 -287 z "},"ẞ":{"ha":953,"x_min":32,"x_max":899,"o":"m 608 -17 q 542 -10 575 -17 q 472 15 508 -3 q 458 24 461 22 q 457 40 456 26 l 472 228 q 478 233 472 232 q 485 231 483 233 q 532 115 503 158 q 599 51 561 71 q 678 32 636 32 q 773 70 740 32 q 806 175 806 108 q 776 278 806 235 q 701 355 747 321 q 606 421 656 389 q 597 428 600 425 q 599 440 594 432 l 747 721 q 639 778 690 756 q 542 813 588 801 q 456 824 497 824 q 365 801 401 824 q 308 725 328 779 q 289 575 289 671 l 289 113 q 294 51 289 72 q 318 24 300 31 q 374 17 336 17 q 378 8 378 17 q 374 0 378 0 q 292 1 338 0 q 210 1 246 1 q 116 1 158 1 q 36 0 74 0 q 32 8 32 0 q 36 17 32 17 q 116 35 97 17 q 135 113 135 53 l 135 499 q 163 635 135 567 q 248 759 190 703 q 397 849 306 815 q 613 883 488 883 q 684 881 647 883 q 753 876 721 879 q 806 870 785 872 q 829 868 826 868 q 845 871 840 868 q 857 886 850 874 q 867 886 858 889 q 874 879 876 883 l 706 560 q 803 481 760 522 q 873 389 847 439 q 899 276 899 339 q 883 183 899 233 q 834 86 868 132 q 744 12 800 40 q 608 -17 689 -17 z "},"T":{"ha":893,"x_min":56,"x_max":842,"o":"m 308 836 q 165 780 224 836 q 71 621 106 724 q 63 617 69 617 q 56 622 56 618 q 61 677 58 642 q 67 754 64 713 q 73 835 71 796 q 75 899 75 874 q 83 906 75 906 q 90 899 90 906 q 105 878 90 885 q 138 870 119 872 q 169 868 157 868 q 449 864 289 864 q 604 866 546 864 q 717 868 663 868 q 792 874 767 868 q 825 903 818 881 q 834 908 826 908 q 842 903 842 908 q 837 841 839 881 q 833 758 835 801 q 829 677 831 714 q 828 622 828 640 q 821 618 828 618 q 813 622 814 618 q 734 784 792 732 q 594 836 676 836 q 552 828 567 836 q 533 803 538 821 q 528 753 528 785 l 528 113 q 536 51 528 72 q 569 24 544 31 q 643 17 593 17 q 647 8 647 17 q 643 0 647 0 q 556 1 604 0 q 449 3 507 3 q 344 1 393 3 q 256 0 296 0 q 251 8 251 0 q 256 17 251 17 q 329 24 304 17 q 363 51 354 31 q 372 113 372 72 l 372 756 q 367 803 372 786 q 349 828 363 821 q 308 836 335 836 z "},"Ŧ":{"ha":878,"x_min":56,"x_max":842,"o":"m 246 429 q 240 439 242 429 q 240 458 239 449 q 246 468 242 468 l 653 468 q 658 458 657 468 q 658 439 660 449 q 653 429 657 429 l 246 429 m 308 836 q 165 780 224 836 q 71 621 106 724 q 63 617 69 617 q 56 622 56 618 q 61 677 58 642 q 67 754 64 713 q 73 835 71 796 q 75 899 75 874 q 83 906 75 906 q 90 899 90 906 q 105 878 90 885 q 138 870 119 872 q 169 868 157 868 q 449 864 289 864 q 604 866 546 864 q 717 868 663 868 q 792 874 767 868 q 825 903 818 881 q 834 908 826 908 q 842 903 842 908 q 837 841 839 881 q 833 758 835 801 q 829 677 831 714 q 828 622 828 640 q 821 618 828 618 q 813 622 814 618 q 734 784 792 732 q 594 836 676 836 q 552 828 567 836 q 533 803 538 821 q 528 753 528 785 l 528 113 q 536 51 528 72 q 569 24 544 31 q 643 17 593 17 q 647 8 647 17 q 643 0 647 0 q 556 1 604 0 q 449 3 507 3 q 344 1 393 3 q 256 0 296 0 q 251 8 251 0 q 256 17 251 17 q 329 24 304 17 q 363 51 354 31 q 372 113 372 72 l 372 756 q 367 803 372 786 q 349 828 363 821 q 308 836 335 836 z "},"Ť":{"ha":893,"x_min":56,"x_max":842,"o":"m 308 836 q 165 780 224 836 q 71 621 106 724 q 63 617 69 617 q 56 622 56 618 q 61 677 58 642 q 67 754 64 713 q 73 835 71 796 q 75 899 75 874 q 83 906 75 906 q 90 899 90 906 q 105 878 90 885 q 138 870 119 872 q 169 868 157 868 q 449 864 289 864 q 604 866 546 864 q 717 868 663 868 q 792 874 767 868 q 825 903 818 881 q 834 908 826 908 q 842 903 842 908 q 837 841 839 881 q 833 758 835 801 q 829 677 831 714 q 828 622 828 640 q 821 618 828 618 q 813 622 814 618 q 734 784 792 732 q 594 836 676 836 q 552 828 567 836 q 533 803 538 821 q 528 753 528 785 l 528 113 q 536 51 528 72 q 569 24 544 31 q 643 17 593 17 q 647 8 647 17 q 643 0 647 0 q 556 1 604 0 q 449 3 507 3 q 344 1 393 3 q 256 0 296 0 q 251 8 251 0 q 256 17 251 17 q 329 24 304 17 q 363 51 354 31 q 372 113 372 72 l 372 756 q 367 803 372 786 q 349 828 363 821 q 308 836 335 836 m 431 954 l 288 1114 q 290 1122 286 1118 q 296 1124 294 1126 l 447 1071 l 597 1126 q 603 1124 600 1128 q 604 1117 607 1119 l 463 954 q 447 949 457 949 q 431 954 438 949 z "},"Ţ":{"ha":893,"x_min":56,"x_max":842,"o":"m 308 836 q 165 780 224 836 q 71 621 106 724 q 63 617 69 617 q 56 622 56 618 q 61 677 58 642 q 67 754 64 713 q 73 835 71 796 q 75 899 75 874 q 83 906 75 906 q 90 899 90 906 q 105 878 90 885 q 138 870 119 872 q 169 868 157 868 q 449 864 289 864 q 604 866 546 864 q 717 868 663 868 q 792 874 767 868 q 825 903 818 881 q 834 908 826 908 q 842 903 842 908 q 837 841 839 881 q 833 758 835 801 q 829 677 831 714 q 828 622 828 640 q 821 618 828 618 q 813 622 814 618 q 734 784 792 732 q 594 836 676 836 q 552 828 567 836 q 533 803 538 821 q 528 753 528 785 l 528 113 q 536 51 528 72 q 569 24 544 31 q 643 17 593 17 q 647 8 647 17 q 643 0 647 0 q 556 1 604 0 q 449 3 507 3 q 344 1 393 3 q 256 0 296 0 q 251 8 251 0 q 256 17 251 17 q 329 24 304 17 q 363 51 354 31 q 372 113 372 72 l 372 756 q 367 803 372 786 q 349 828 363 821 q 308 836 335 836 m 468 26 q 454 -49 456 -21 q 465 -94 453 -78 q 506 -128 478 -111 q 558 -170 535 -146 q 582 -236 582 -194 q 565 -303 582 -269 q 512 -359 549 -336 q 413 -382 475 -382 q 335 -366 363 -382 q 308 -315 308 -350 q 325 -278 308 -296 q 364 -261 342 -261 q 404 -274 393 -261 q 419 -305 415 -287 q 433 -335 424 -322 q 468 -349 442 -349 q 499 -315 499 -349 q 474 -250 499 -279 q 383 -185 449 -221 q 372 -172 374 -181 q 376 -146 369 -164 q 403 -84 394 -106 q 419 -39 411 -62 q 443 28 428 -15 l 468 26 z "},"Ț":{"ha":893,"x_min":56,"x_max":842,"o":"m 308 836 q 165 780 224 836 q 71 621 106 724 q 63 617 69 617 q 56 622 56 618 q 61 677 58 642 q 67 754 64 713 q 73 835 71 796 q 75 899 75 874 q 83 906 75 906 q 90 899 90 906 q 105 878 90 885 q 138 870 119 872 q 169 868 157 868 q 449 864 289 864 q 604 866 546 864 q 717 868 663 868 q 792 874 767 868 q 825 903 818 881 q 834 908 826 908 q 842 903 842 908 q 837 841 839 881 q 833 758 835 801 q 829 677 831 714 q 828 622 828 640 q 821 618 828 618 q 813 622 814 618 q 734 784 792 732 q 594 836 676 836 q 552 828 567 836 q 533 803 538 821 q 528 753 528 785 l 528 113 q 536 51 528 72 q 569 24 544 31 q 643 17 593 17 q 647 8 647 17 q 643 0 647 0 q 556 1 604 0 q 449 3 507 3 q 344 1 393 3 q 256 0 296 0 q 251 8 251 0 q 256 17 251 17 q 329 24 304 17 q 363 51 354 31 q 372 113 372 72 l 372 756 q 367 803 372 786 q 349 828 363 821 q 308 836 335 836 m 439 -382 q 428 -378 433 -385 q 429 -368 424 -372 q 475 -326 454 -349 q 496 -275 496 -303 q 483 -231 496 -243 q 451 -217 471 -218 l 489 -190 q 474 -239 490 -222 q 425 -256 458 -256 q 376 -233 396 -256 q 357 -176 357 -211 q 385 -116 357 -136 q 447 -96 413 -96 q 520 -127 496 -96 q 544 -208 544 -158 q 514 -308 544 -267 q 439 -382 483 -350 z "},"Ṭ":{"ha":893,"x_min":56,"x_max":842,"o":"m 308 836 q 165 780 224 836 q 71 621 106 724 q 63 617 69 617 q 56 622 56 618 q 61 677 58 642 q 67 754 64 713 q 73 835 71 796 q 75 899 75 874 q 83 906 75 906 q 90 899 90 906 q 105 878 90 885 q 138 870 119 872 q 169 868 157 868 q 449 864 289 864 q 604 866 546 864 q 717 868 663 868 q 792 874 767 868 q 825 903 818 881 q 834 908 826 908 q 842 903 842 908 q 837 841 839 881 q 833 758 835 801 q 829 677 831 714 q 828 622 828 640 q 821 618 828 618 q 813 622 814 618 q 734 784 792 732 q 594 836 676 836 q 552 828 567 836 q 533 803 538 821 q 528 753 528 785 l 528 113 q 536 51 528 72 q 569 24 544 31 q 643 17 593 17 q 647 8 647 17 q 643 0 647 0 q 556 1 604 0 q 449 3 507 3 q 344 1 393 3 q 256 0 296 0 q 251 8 251 0 q 256 17 251 17 q 329 24 304 17 q 363 51 354 31 q 372 113 372 72 l 372 756 q 367 803 372 786 q 349 828 363 821 q 308 836 335 836 m 456 -287 q 394 -265 417 -287 q 371 -203 371 -243 q 394 -145 371 -167 q 456 -124 417 -124 q 515 -145 494 -124 q 536 -203 536 -167 q 456 -287 536 -287 z "},"Ṯ":{"ha":893,"x_min":56,"x_max":842,"o":"m 308 836 q 165 780 224 836 q 71 621 106 724 q 63 617 69 617 q 56 622 56 618 q 61 677 58 642 q 67 754 64 713 q 73 835 71 796 q 75 899 75 874 q 83 906 75 906 q 90 899 90 906 q 105 878 90 885 q 138 870 119 872 q 169 868 157 868 q 449 864 289 864 q 604 866 546 864 q 717 868 663 868 q 792 874 767 868 q 825 903 818 881 q 834 908 826 908 q 842 903 842 908 q 837 841 839 881 q 833 758 835 801 q 829 677 831 714 q 828 622 828 640 q 821 618 828 618 q 813 622 814 618 q 734 784 792 732 q 594 836 676 836 q 552 828 567 836 q 533 803 538 821 q 528 753 528 785 l 528 113 q 536 51 528 72 q 569 24 544 31 q 643 17 593 17 q 647 8 647 17 q 643 0 647 0 q 556 1 604 0 q 449 3 507 3 q 344 1 393 3 q 256 0 296 0 q 251 8 251 0 q 256 17 251 17 q 329 24 304 17 q 363 51 354 31 q 372 113 372 72 l 372 756 q 367 803 372 786 q 349 828 363 821 q 308 836 335 836 m 279 -169 q 267 -156 271 -169 q 267 -131 264 -143 q 279 -118 271 -118 l 628 -118 q 641 -131 638 -118 q 641 -156 644 -143 q 628 -169 638 -169 l 279 -169 z "},"U":{"ha":976,"x_min":40,"x_max":958,"o":"m 793 690 q 759 808 793 764 q 664 851 725 851 q 661 860 661 851 q 664 868 661 868 q 735 866 699 868 q 815 864 772 864 q 889 866 853 864 q 956 868 925 868 q 958 860 958 868 q 956 851 958 851 q 870 808 900 851 q 840 690 840 764 l 840 304 q 797 133 840 206 q 676 20 754 60 q 494 -19 599 -19 q 313 19 393 -19 q 188 131 233 58 q 143 307 143 204 l 143 756 q 136 816 143 796 q 108 844 129 836 q 44 851 86 851 q 40 860 40 851 q 44 868 40 868 q 125 866 81 868 q 219 864 169 864 q 317 866 272 864 q 396 868 361 868 q 400 860 400 868 q 396 851 400 851 q 333 843 354 851 q 305 814 313 835 q 297 753 297 793 l 297 356 q 365 108 297 185 q 547 32 433 32 q 728 102 663 32 q 793 303 793 172 l 793 690 z "},"Ú":{"ha":976,"x_min":40,"x_max":958,"o":"m 793 690 q 759 808 793 764 q 664 851 725 851 q 661 860 661 851 q 664 868 661 868 q 735 866 699 868 q 815 864 772 864 q 889 866 853 864 q 956 868 925 868 q 958 860 958 868 q 956 851 958 851 q 870 808 900 851 q 840 690 840 764 l 840 304 q 797 133 840 206 q 676 20 754 60 q 494 -19 599 -19 q 313 19 393 -19 q 188 131 233 58 q 143 307 143 204 l 143 756 q 136 816 143 796 q 108 844 129 836 q 44 851 86 851 q 40 860 40 851 q 44 868 40 868 q 125 866 81 868 q 219 864 169 864 q 317 866 272 864 q 396 868 361 868 q 400 860 400 868 q 396 851 400 851 q 333 843 354 851 q 305 814 313 835 q 297 753 297 793 l 297 356 q 365 108 297 185 q 547 32 433 32 q 728 102 663 32 q 793 303 793 172 l 793 690 m 383 943 q 375 948 378 940 q 376 957 372 956 q 468 1031 426 993 q 551 1101 510 1068 q 584 1101 557 1107 q 641 1083 611 1094 q 688 1063 671 1072 q 692 1050 706 1053 q 526 1001 599 1028 q 383 943 454 975 z "},"Ʉ":{"ha":976,"x_min":40,"x_max":958,"o":"m 58 415 q 53 425 54 415 q 53 444 51 435 q 58 454 54 454 l 928 454 q 933 444 932 454 q 933 425 933 435 q 928 415 932 415 l 58 415 m 793 690 q 759 808 793 764 q 664 851 725 851 q 661 860 661 851 q 664 868 661 868 q 735 866 699 868 q 815 864 772 864 q 889 866 853 864 q 956 868 925 868 q 958 860 958 868 q 956 851 958 851 q 870 808 900 851 q 840 690 840 764 l 840 304 q 797 133 840 206 q 676 20 754 60 q 494 -19 599 -19 q 313 19 393 -19 q 188 131 233 58 q 143 307 143 204 l 143 756 q 136 816 143 796 q 108 844 129 836 q 44 851 86 851 q 40 860 40 851 q 44 868 40 868 q 125 866 81 868 q 219 864 169 864 q 317 866 272 864 q 396 868 361 868 q 400 860 400 868 q 396 851 400 851 q 333 843 354 851 q 305 814 313 835 q 297 753 297 793 l 297 356 q 365 108 297 185 q 547 32 433 32 q 728 102 663 32 q 793 303 793 172 l 793 690 z "},"Ŭ":{"ha":976,"x_min":40,"x_max":958,"o":"m 793 690 q 759 808 793 764 q 664 851 725 851 q 661 860 661 851 q 664 868 661 868 q 735 866 699 868 q 815 864 772 864 q 889 866 853 864 q 956 868 925 868 q 958 860 958 868 q 956 851 958 851 q 870 808 900 851 q 840 690 840 764 l 840 304 q 797 133 840 206 q 676 20 754 60 q 494 -19 599 -19 q 313 19 393 -19 q 188 131 233 58 q 143 307 143 204 l 143 756 q 136 816 143 796 q 108 844 129 836 q 44 851 86 851 q 40 860 40 851 q 44 868 40 868 q 125 866 81 868 q 219 864 169 864 q 317 866 272 864 q 396 868 361 868 q 400 860 400 868 q 396 851 400 851 q 333 843 354 851 q 305 814 313 835 q 297 753 297 793 l 297 356 q 365 108 297 185 q 547 32 433 32 q 728 102 663 32 q 793 303 793 172 l 793 690 m 518 958 q 412 1004 449 958 q 375 1135 375 1050 q 383 1139 375 1139 q 390 1136 390 1139 q 426 1090 390 1113 q 518 1067 463 1067 q 608 1090 571 1067 q 644 1136 644 1113 q 652 1139 644 1139 q 660 1135 660 1139 q 624 1004 660 1050 q 518 958 588 958 z "},"Ǔ":{"ha":976,"x_min":40,"x_max":958,"o":"m 793 690 q 759 808 793 764 q 664 851 725 851 q 661 860 661 851 q 664 868 661 868 q 735 866 699 868 q 815 864 772 864 q 889 866 853 864 q 956 868 925 868 q 958 860 958 868 q 956 851 958 851 q 870 808 900 851 q 840 690 840 764 l 840 304 q 797 133 840 206 q 676 20 754 60 q 494 -19 599 -19 q 313 19 393 -19 q 188 131 233 58 q 143 307 143 204 l 143 756 q 136 816 143 796 q 108 844 129 836 q 44 851 86 851 q 40 860 40 851 q 44 868 40 868 q 125 866 81 868 q 219 864 169 864 q 317 866 272 864 q 396 868 361 868 q 400 860 400 868 q 396 851 400 851 q 333 843 354 851 q 305 814 313 835 q 297 753 297 793 l 297 356 q 365 108 297 185 q 547 32 433 32 q 728 102 663 32 q 793 303 793 172 l 793 690 m 501 954 l 358 1114 q 361 1122 357 1118 q 367 1124 365 1126 l 518 1071 l 668 1126 q 674 1124 671 1128 q 675 1117 678 1119 l 533 954 q 518 949 528 949 q 501 954 508 949 z "},"Û":{"ha":976,"x_min":40,"x_max":958,"o":"m 793 690 q 759 808 793 764 q 664 851 725 851 q 661 860 661 851 q 664 868 661 868 q 735 866 699 868 q 815 864 772 864 q 889 866 853 864 q 956 868 925 868 q 958 860 958 868 q 956 851 958 851 q 870 808 900 851 q 840 690 840 764 l 840 304 q 797 133 840 206 q 676 20 754 60 q 494 -19 599 -19 q 313 19 393 -19 q 188 131 233 58 q 143 307 143 204 l 143 756 q 136 816 143 796 q 108 844 129 836 q 44 851 86 851 q 40 860 40 851 q 44 868 40 868 q 125 866 81 868 q 219 864 169 864 q 317 866 272 864 q 396 868 361 868 q 400 860 400 868 q 396 851 400 851 q 333 843 354 851 q 305 814 313 835 q 297 753 297 793 l 297 356 q 365 108 297 185 q 547 32 433 32 q 728 102 663 32 q 793 303 793 172 l 793 690 m 360 975 l 503 1136 q 519 1143 510 1143 q 535 1136 529 1143 l 676 975 q 676 969 681 974 q 669 965 672 964 l 519 1019 l 368 965 q 362 969 367 964 q 360 975 357 974 z "},"Ȕ":{"ha":976,"x_min":40,"x_max":958,"o":"m 793 690 q 759 808 793 764 q 664 851 725 851 q 661 860 661 851 q 664 868 661 868 q 735 866 699 868 q 815 864 772 864 q 889 866 853 864 q 956 868 925 868 q 958 860 958 868 q 956 851 958 851 q 870 808 900 851 q 840 690 840 764 l 840 304 q 797 133 840 206 q 676 20 754 60 q 494 -19 599 -19 q 313 19 393 -19 q 188 131 233 58 q 143 307 143 204 l 143 756 q 136 816 143 796 q 108 844 129 836 q 44 851 86 851 q 40 860 40 851 q 44 868 40 868 q 125 866 81 868 q 219 864 169 864 q 317 866 272 864 q 396 868 361 868 q 400 860 400 868 q 396 851 400 851 q 333 843 354 851 q 305 814 313 835 q 297 753 297 793 l 297 356 q 365 108 297 185 q 547 32 433 32 q 728 102 663 32 q 793 303 793 172 l 793 690 m 672 928 q 683 931 679 925 q 683 942 688 936 q 617 1031 649 986 q 558 1118 585 1075 q 533 1120 556 1125 q 483 1105 510 1115 q 439 1083 456 1094 q 433 1067 422 1072 q 560 1001 504 1035 q 672 928 617 968 m 461 928 q 472 931 468 925 q 472 942 475 936 q 406 1030 436 985 q 347 1118 375 1075 q 322 1120 344 1125 q 272 1105 299 1115 q 228 1083 244 1094 q 222 1067 211 1072 q 349 1001 293 1035 q 461 928 406 968 z "},"Ü":{"ha":976,"x_min":40,"x_max":958,"o":"m 793 690 q 759 808 793 764 q 664 851 725 851 q 661 860 661 851 q 664 868 661 868 q 735 866 699 868 q 815 864 772 864 q 889 866 853 864 q 956 868 925 868 q 958 860 958 868 q 956 851 958 851 q 870 808 900 851 q 840 690 840 764 l 840 304 q 797 133 840 206 q 676 20 754 60 q 494 -19 599 -19 q 313 19 393 -19 q 188 131 233 58 q 143 307 143 204 l 143 756 q 136 816 143 796 q 108 844 129 836 q 44 851 86 851 q 40 860 40 851 q 44 868 40 868 q 125 866 81 868 q 219 864 169 864 q 317 866 272 864 q 396 868 361 868 q 400 860 400 868 q 396 851 400 851 q 333 843 354 851 q 305 814 313 835 q 297 753 297 793 l 297 356 q 365 108 297 185 q 547 32 433 32 q 728 102 663 32 q 793 303 793 172 l 793 690 m 399 976 q 343 997 364 976 q 322 1053 322 1017 q 343 1106 322 1086 q 399 1125 364 1125 q 452 1106 433 1125 q 471 1053 471 1086 q 399 976 471 976 m 640 976 q 585 997 606 976 q 565 1053 565 1017 q 585 1105 565 1086 q 640 1124 606 1124 q 713 1053 713 1124 q 640 976 713 976 z "},"Ǘ":{"ha":976,"x_min":40,"x_max":958,"o":"m 793 690 q 759 808 793 764 q 664 851 725 851 q 661 860 661 851 q 664 868 661 868 q 735 866 699 868 q 815 864 772 864 q 889 866 853 864 q 956 868 925 868 q 958 860 958 868 q 956 851 958 851 q 870 808 900 851 q 840 690 840 764 l 840 304 q 797 133 840 206 q 676 20 754 60 q 494 -19 599 -19 q 313 19 393 -19 q 188 131 233 58 q 143 307 143 204 l 143 756 q 136 816 143 796 q 108 844 129 836 q 44 851 86 851 q 40 860 40 851 q 44 868 40 868 q 125 866 81 868 q 219 864 169 864 q 317 866 272 864 q 396 868 361 868 q 400 860 400 868 q 396 851 400 851 q 333 843 354 851 q 305 814 313 835 q 297 753 297 793 l 297 356 q 365 108 297 185 q 547 32 433 32 q 728 102 663 32 q 793 303 793 172 l 793 690 m 333 1140 q 325 1147 328 1139 q 326 1156 322 1154 q 456 1227 397 1192 q 574 1297 515 1263 q 608 1295 581 1301 q 665 1278 635 1289 q 712 1257 694 1267 q 715 1244 729 1247 q 511 1197 601 1222 q 333 1140 421 1172 m 399 961 q 343 981 364 961 q 322 1038 322 1001 q 343 1089 322 1069 q 399 1108 364 1108 q 452 1089 433 1108 q 471 1038 471 1069 q 399 961 471 961 m 640 961 q 585 981 606 961 q 565 1038 565 1001 q 585 1088 565 1069 q 640 1107 606 1107 q 694 1088 675 1107 q 713 1038 713 1069 q 640 961 713 961 z "},"Ǚ":{"ha":976,"x_min":40,"x_max":958,"o":"m 793 690 q 759 808 793 764 q 664 851 725 851 q 661 860 661 851 q 664 868 661 868 q 735 866 699 868 q 815 864 772 864 q 889 866 853 864 q 956 868 925 868 q 958 860 958 868 q 956 851 958 851 q 870 808 900 851 q 840 690 840 764 l 840 304 q 797 133 840 206 q 676 20 754 60 q 494 -19 599 -19 q 313 19 393 -19 q 188 131 233 58 q 143 307 143 204 l 143 756 q 136 816 143 796 q 108 844 129 836 q 44 851 86 851 q 40 860 40 851 q 44 868 40 868 q 125 866 81 868 q 219 864 169 864 q 317 866 272 864 q 396 868 361 868 q 400 860 400 868 q 396 851 400 851 q 333 843 354 851 q 305 814 313 835 q 297 753 297 793 l 297 356 q 365 108 297 185 q 547 32 433 32 q 728 102 663 32 q 793 303 793 172 l 793 690 m 507 1129 l 343 1290 q 345 1297 340 1293 q 351 1300 350 1301 l 524 1231 l 693 1301 q 699 1299 696 1303 q 700 1292 703 1296 l 538 1129 q 523 1124 532 1124 q 507 1129 514 1124 m 399 961 q 343 981 364 961 q 322 1038 322 1001 q 343 1089 322 1069 q 399 1108 364 1108 q 452 1089 433 1108 q 471 1038 471 1069 q 399 961 471 961 m 640 961 q 585 981 606 961 q 565 1038 565 1001 q 585 1088 565 1069 q 640 1107 606 1107 q 694 1088 675 1107 q 713 1038 713 1069 q 640 961 713 961 z "},"Ǜ":{"ha":976,"x_min":40,"x_max":958,"o":"m 793 690 q 759 808 793 764 q 664 851 725 851 q 661 860 661 851 q 664 868 661 868 q 735 866 699 868 q 815 864 772 864 q 889 866 853 864 q 956 868 925 868 q 958 860 958 868 q 956 851 958 851 q 870 808 900 851 q 840 690 840 764 l 840 304 q 797 133 840 206 q 676 20 754 60 q 494 -19 599 -19 q 313 19 393 -19 q 188 131 233 58 q 143 307 143 204 l 143 756 q 136 816 143 796 q 108 844 129 836 q 44 851 86 851 q 40 860 40 851 q 44 868 40 868 q 125 866 81 868 q 219 864 169 864 q 317 866 272 864 q 396 868 361 868 q 400 860 400 868 q 396 851 400 851 q 333 843 354 851 q 305 814 313 835 q 297 753 297 793 l 297 356 q 365 108 297 185 q 547 32 433 32 q 728 102 663 32 q 793 303 793 172 l 793 690 m 724 1140 q 547 1197 636 1172 q 342 1244 457 1222 q 345 1257 328 1247 q 392 1278 363 1267 q 450 1295 422 1289 q 483 1297 478 1301 q 601 1227 542 1263 q 729 1156 660 1192 q 733 1147 735 1154 q 724 1140 731 1139 m 417 961 q 344 1038 344 961 q 363 1088 344 1069 q 417 1107 382 1107 q 472 1088 453 1107 q 490 1038 490 1069 q 417 961 490 961 m 658 961 q 604 981 624 961 q 585 1038 585 1001 q 604 1089 585 1069 q 658 1108 624 1108 q 715 1089 694 1108 q 735 1038 735 1069 q 715 981 735 1001 q 658 961 694 961 z "},"Ǖ":{"ha":976,"x_min":40,"x_max":958,"o":"m 793 690 q 759 808 793 764 q 664 851 725 851 q 661 860 661 851 q 664 868 661 868 q 735 866 699 868 q 815 864 772 864 q 889 866 853 864 q 956 868 925 868 q 958 860 958 868 q 956 851 958 851 q 870 808 900 851 q 840 690 840 764 l 840 304 q 797 133 840 206 q 676 20 754 60 q 494 -19 599 -19 q 313 19 393 -19 q 188 131 233 58 q 143 307 143 204 l 143 756 q 136 816 143 796 q 108 844 129 836 q 44 851 86 851 q 40 860 40 851 q 44 868 40 868 q 125 866 81 868 q 219 864 169 864 q 317 866 272 864 q 396 868 361 868 q 400 860 400 868 q 396 851 400 851 q 333 843 354 851 q 305 814 313 835 q 297 753 297 793 l 297 356 q 365 108 297 185 q 547 32 433 32 q 728 102 663 32 q 793 303 793 172 l 793 690 m 399 961 q 343 981 364 961 q 322 1038 322 1001 q 343 1089 322 1069 q 399 1108 364 1108 q 452 1089 433 1108 q 471 1038 471 1069 q 399 961 471 961 m 640 961 q 585 981 606 961 q 565 1038 565 1001 q 585 1088 565 1069 q 640 1107 606 1107 q 694 1088 675 1107 q 713 1038 713 1069 q 640 961 713 961 m 342 1168 q 330 1181 333 1168 q 330 1208 326 1194 q 342 1221 333 1221 l 690 1221 q 703 1208 700 1221 q 703 1181 707 1194 q 690 1168 700 1168 l 342 1168 z "},"Ụ":{"ha":976,"x_min":40,"x_max":958,"o":"m 793 690 q 759 808 793 764 q 664 851 725 851 q 661 860 661 851 q 664 868 661 868 q 735 866 699 868 q 815 864 772 864 q 889 866 853 864 q 956 868 925 868 q 958 860 958 868 q 956 851 958 851 q 870 808 900 851 q 840 690 840 764 l 840 304 q 797 133 840 206 q 676 20 754 60 q 494 -19 599 -19 q 313 19 393 -19 q 188 131 233 58 q 143 307 143 204 l 143 756 q 136 816 143 796 q 108 844 129 836 q 44 851 86 851 q 40 860 40 851 q 44 868 40 868 q 125 866 81 868 q 219 864 169 864 q 317 866 272 864 q 396 868 361 868 q 400 860 400 868 q 396 851 400 851 q 333 843 354 851 q 305 814 313 835 q 297 753 297 793 l 297 356 q 365 108 297 185 q 547 32 433 32 q 728 102 663 32 q 793 303 793 172 l 793 690 m 490 -287 q 428 -265 451 -287 q 406 -203 406 -243 q 428 -145 406 -167 q 490 -124 451 -124 q 550 -145 529 -124 q 571 -203 571 -167 q 490 -287 571 -287 z "},"Ù":{"ha":976,"x_min":40,"x_max":958,"o":"m 793 690 q 759 808 793 764 q 664 851 725 851 q 661 860 661 851 q 664 868 661 868 q 735 866 699 868 q 815 864 772 864 q 889 866 853 864 q 956 868 925 868 q 958 860 958 868 q 956 851 958 851 q 870 808 900 851 q 840 690 840 764 l 840 304 q 797 133 840 206 q 676 20 754 60 q 494 -19 599 -19 q 313 19 393 -19 q 188 131 233 58 q 143 307 143 204 l 143 756 q 136 816 143 796 q 108 844 129 836 q 44 851 86 851 q 40 860 40 851 q 44 868 40 868 q 125 866 81 868 q 219 864 169 864 q 317 866 272 864 q 396 868 361 868 q 400 860 400 868 q 396 851 400 851 q 333 843 354 851 q 305 814 313 835 q 297 753 297 793 l 297 356 q 365 108 297 185 q 547 32 433 32 q 728 102 663 32 q 793 303 793 172 l 793 690 m 657 943 q 513 1001 586 975 q 349 1050 440 1028 q 352 1063 335 1053 q 399 1083 369 1072 q 456 1101 429 1094 q 489 1101 483 1107 q 572 1031 531 1068 q 663 957 614 993 q 666 948 668 956 q 657 943 664 940 z "},"Ủ":{"ha":976,"x_min":40,"x_max":958,"o":"m 793 690 q 759 808 793 764 q 664 851 725 851 q 661 860 661 851 q 664 868 661 868 q 735 866 699 868 q 815 864 772 864 q 889 866 853 864 q 956 868 925 868 q 958 860 958 868 q 956 851 958 851 q 870 808 900 851 q 840 690 840 764 l 840 304 q 797 133 840 206 q 676 20 754 60 q 494 -19 599 -19 q 313 19 393 -19 q 188 131 233 58 q 143 307 143 204 l 143 756 q 136 816 143 796 q 108 844 129 836 q 44 851 86 851 q 40 860 40 851 q 44 868 40 868 q 125 866 81 868 q 219 864 169 864 q 317 866 272 864 q 396 868 361 868 q 400 860 400 868 q 396 851 400 851 q 333 843 354 851 q 305 814 313 835 q 297 753 297 793 l 297 356 q 365 108 297 185 q 547 32 433 32 q 728 102 663 32 q 793 303 793 172 l 793 690 m 519 904 q 512 902 519 903 q 503 904 504 901 q 502 961 497 936 q 515 1008 507 986 q 531 1050 524 1029 q 539 1096 539 1071 q 529 1134 539 1122 q 500 1146 519 1146 q 476 1142 489 1146 q 450 1132 464 1139 q 441 1135 446 1131 q 440 1143 436 1140 q 494 1172 464 1163 q 554 1182 524 1182 q 625 1163 599 1182 q 651 1110 651 1144 q 631 1052 651 1079 q 585 1001 611 1025 q 539 953 558 976 q 519 904 519 929 z "},"Ư":{"ha":976,"x_min":40,"x_max":1063,"o":"m 840 690 l 840 271 q 797 118 840 183 q 676 17 753 53 q 497 -19 599 -19 q 313 15 393 -19 q 188 116 233 50 q 143 275 143 182 l 143 756 q 136 816 143 796 q 108 844 129 836 q 44 851 86 851 q 40 860 40 851 q 44 868 40 868 q 125 866 81 868 q 219 864 169 864 q 317 866 272 864 q 396 868 361 868 q 400 860 400 868 q 396 851 400 851 q 333 843 354 851 q 305 814 313 835 q 297 753 297 793 l 297 324 q 365 102 297 172 q 543 32 433 32 q 728 94 663 32 q 793 269 793 156 l 793 690 q 759 808 793 764 q 664 851 725 851 q 661 860 661 851 q 664 868 661 868 q 735 866 699 868 q 815 864 772 864 q 920 876 886 864 q 954 917 954 888 q 947 940 954 931 q 931 960 939 949 q 922 994 922 972 q 946 1047 922 1031 q 996 1064 969 1064 q 1047 1041 1031 1064 q 1063 988 1063 1018 q 1039 919 1063 946 q 983 877 1015 893 q 921 850 950 861 q 881 826 900 842 q 851 778 863 810 q 840 690 840 746 z "},"Ứ":{"ha":976,"x_min":40,"x_max":1063,"o":"m 840 690 l 840 271 q 797 118 840 183 q 676 17 753 53 q 497 -19 599 -19 q 313 15 393 -19 q 188 116 233 50 q 143 275 143 182 l 143 756 q 136 816 143 796 q 108 844 129 836 q 44 851 86 851 q 40 860 40 851 q 44 868 40 868 q 125 866 81 868 q 219 864 169 864 q 317 866 272 864 q 396 868 361 868 q 400 860 400 868 q 396 851 400 851 q 333 843 354 851 q 305 814 313 835 q 297 753 297 793 l 297 324 q 365 102 297 172 q 543 32 433 32 q 728 94 663 32 q 793 269 793 156 l 793 690 q 759 808 793 764 q 664 851 725 851 q 661 860 661 851 q 664 868 661 868 q 735 866 699 868 q 815 864 772 864 q 920 876 886 864 q 954 917 954 888 q 947 940 954 931 q 931 960 939 949 q 922 994 922 972 q 946 1047 922 1031 q 996 1064 969 1064 q 1047 1041 1031 1064 q 1063 988 1063 1018 q 1039 919 1063 946 q 983 877 1015 893 q 921 850 950 861 q 881 826 900 842 q 851 778 863 810 q 840 690 840 746 m 392 942 q 383 948 386 940 q 385 957 381 956 q 476 1030 435 993 q 560 1101 518 1067 q 592 1099 565 1106 q 649 1083 619 1093 q 697 1063 679 1072 q 700 1050 714 1053 q 535 1000 607 1026 q 392 942 463 974 z "},"Ự":{"ha":976,"x_min":40,"x_max":1063,"o":"m 840 690 l 840 271 q 797 118 840 183 q 676 17 753 53 q 497 -19 599 -19 q 313 15 393 -19 q 188 116 233 50 q 143 275 143 182 l 143 756 q 136 816 143 796 q 108 844 129 836 q 44 851 86 851 q 40 860 40 851 q 44 868 40 868 q 125 866 81 868 q 219 864 169 864 q 317 866 272 864 q 396 868 361 868 q 400 860 400 868 q 396 851 400 851 q 333 843 354 851 q 305 814 313 835 q 297 753 297 793 l 297 324 q 365 102 297 172 q 543 32 433 32 q 728 94 663 32 q 793 269 793 156 l 793 690 q 759 808 793 764 q 664 851 725 851 q 661 860 661 851 q 664 868 661 868 q 735 866 699 868 q 815 864 772 864 q 920 876 886 864 q 954 917 954 888 q 947 940 954 931 q 931 960 939 949 q 922 994 922 972 q 946 1047 922 1031 q 996 1064 969 1064 q 1047 1041 1031 1064 q 1063 988 1063 1018 q 1039 919 1063 946 q 983 877 1015 893 q 921 850 950 861 q 881 826 900 842 q 851 778 863 810 q 840 690 840 746 m 513 -287 q 451 -265 474 -287 q 428 -203 428 -243 q 451 -145 428 -167 q 513 -124 474 -124 q 572 -145 551 -124 q 593 -203 593 -167 q 513 -287 593 -287 z "},"Ừ":{"ha":976,"x_min":40,"x_max":1063,"o":"m 840 690 l 840 271 q 797 118 840 183 q 676 17 753 53 q 497 -19 599 -19 q 313 15 393 -19 q 188 116 233 50 q 143 275 143 182 l 143 756 q 136 816 143 796 q 108 844 129 836 q 44 851 86 851 q 40 860 40 851 q 44 868 40 868 q 125 866 81 868 q 219 864 169 864 q 317 866 272 864 q 396 868 361 868 q 400 860 400 868 q 396 851 400 851 q 333 843 354 851 q 305 814 313 835 q 297 753 297 793 l 297 324 q 365 102 297 172 q 543 32 433 32 q 728 94 663 32 q 793 269 793 156 l 793 690 q 759 808 793 764 q 664 851 725 851 q 661 860 661 851 q 664 868 661 868 q 735 866 699 868 q 815 864 772 864 q 920 876 886 864 q 954 917 954 888 q 947 940 954 931 q 931 960 939 949 q 922 994 922 972 q 946 1047 922 1031 q 996 1064 969 1064 q 1047 1041 1031 1064 q 1063 988 1063 1018 q 1039 919 1063 946 q 983 877 1015 893 q 921 850 950 861 q 881 826 900 842 q 851 778 863 810 q 840 690 840 746 m 665 943 q 522 1001 594 975 q 357 1050 449 1028 q 360 1063 343 1053 q 408 1083 378 1072 q 465 1101 438 1094 q 497 1101 492 1107 q 581 1031 539 1068 q 671 957 622 993 q 674 948 676 956 q 665 943 672 940 z "},"Ử":{"ha":976,"x_min":40,"x_max":1063,"o":"m 840 690 l 840 271 q 797 118 840 183 q 676 17 753 53 q 497 -19 599 -19 q 313 15 393 -19 q 188 116 233 50 q 143 275 143 182 l 143 756 q 136 816 143 796 q 108 844 129 836 q 44 851 86 851 q 40 860 40 851 q 44 868 40 868 q 125 866 81 868 q 219 864 169 864 q 317 866 272 864 q 396 868 361 868 q 400 860 400 868 q 396 851 400 851 q 333 843 354 851 q 305 814 313 835 q 297 753 297 793 l 297 324 q 365 102 297 172 q 543 32 433 32 q 728 94 663 32 q 793 269 793 156 l 793 690 q 759 808 793 764 q 664 851 725 851 q 661 860 661 851 q 664 868 661 868 q 735 866 699 868 q 815 864 772 864 q 920 876 886 864 q 954 917 954 888 q 947 940 954 931 q 931 960 939 949 q 922 994 922 972 q 946 1047 922 1031 q 996 1064 969 1064 q 1047 1041 1031 1064 q 1063 988 1063 1018 q 1039 919 1063 946 q 983 877 1015 893 q 921 850 950 861 q 881 826 900 842 q 851 778 863 810 q 840 690 840 746 m 528 904 q 520 902 528 903 q 511 904 513 901 q 510 961 506 936 q 524 1008 515 986 q 540 1050 532 1029 q 547 1096 547 1071 q 538 1134 547 1122 q 508 1146 528 1146 q 485 1142 497 1146 q 458 1132 472 1139 q 449 1135 454 1131 q 449 1143 444 1140 q 502 1172 472 1163 q 563 1182 532 1182 q 633 1163 607 1182 q 660 1110 660 1144 q 640 1052 660 1079 q 593 1001 619 1025 q 547 953 567 976 q 528 904 528 929 z "},"Ữ":{"ha":976,"x_min":40,"x_max":1063,"o":"m 840 690 l 840 271 q 797 118 840 183 q 676 17 753 53 q 497 -19 599 -19 q 313 15 393 -19 q 188 116 233 50 q 143 275 143 182 l 143 756 q 136 816 143 796 q 108 844 129 836 q 44 851 86 851 q 40 860 40 851 q 44 868 40 868 q 125 866 81 868 q 219 864 169 864 q 317 866 272 864 q 396 868 361 868 q 400 860 400 868 q 396 851 400 851 q 333 843 354 851 q 305 814 313 835 q 297 753 297 793 l 297 324 q 365 102 297 172 q 543 32 433 32 q 728 94 663 32 q 793 269 793 156 l 793 690 q 759 808 793 764 q 664 851 725 851 q 661 860 661 851 q 664 868 661 868 q 735 866 699 868 q 815 864 772 864 q 920 876 886 864 q 954 917 954 888 q 947 940 954 931 q 931 960 939 949 q 922 994 922 972 q 946 1047 922 1031 q 996 1064 969 1064 q 1047 1041 1031 1064 q 1063 988 1063 1018 q 1039 919 1063 946 q 983 877 1015 893 q 921 850 950 861 q 881 826 900 842 q 851 778 863 810 q 840 690 840 746 m 631 1060 q 669 1068 654 1060 q 701 1097 683 1076 q 709 1096 704 1100 q 711 1088 714 1092 q 651 998 674 1019 q 596 976 628 976 q 542 985 571 976 q 484 1001 514 993 q 422 1010 454 1010 q 380 1000 392 1010 q 351 972 368 990 q 344 975 349 971 q 342 982 339 979 q 371 1029 353 1003 q 413 1075 389 1056 q 463 1094 436 1094 q 510 1086 482 1094 q 569 1069 538 1078 q 631 1060 601 1060 z "},"Ű":{"ha":976,"x_min":40,"x_max":958,"o":"m 793 690 q 759 808 793 764 q 664 851 725 851 q 661 860 661 851 q 664 868 661 868 q 735 866 699 868 q 815 864 772 864 q 889 866 853 864 q 956 868 925 868 q 958 860 958 868 q 956 851 958 851 q 870 808 900 851 q 840 690 840 764 l 840 304 q 797 133 840 206 q 676 20 754 60 q 494 -19 599 -19 q 313 19 393 -19 q 188 131 233 58 q 143 307 143 204 l 143 756 q 136 816 143 796 q 108 844 129 836 q 44 851 86 851 q 40 860 40 851 q 44 868 40 868 q 125 866 81 868 q 219 864 169 864 q 317 866 272 864 q 396 868 361 868 q 400 860 400 868 q 396 851 400 851 q 333 843 354 851 q 305 814 313 835 q 297 753 297 793 l 297 356 q 365 108 297 185 q 547 32 433 32 q 728 102 663 32 q 793 303 793 172 l 793 690 m 364 928 q 353 931 358 925 q 353 942 349 936 q 420 1031 389 986 q 478 1118 451 1075 q 503 1120 481 1125 q 553 1105 526 1115 q 597 1083 581 1094 q 603 1067 614 1072 q 476 1001 532 1035 q 364 928 421 968 m 575 928 q 565 931 569 925 q 564 942 561 936 q 631 1030 600 985 q 689 1118 663 1075 q 715 1120 692 1125 q 765 1105 738 1115 q 808 1083 792 1094 q 814 1067 825 1072 q 688 1001 743 1035 q 575 928 632 968 z "},"Ȗ":{"ha":976,"x_min":40,"x_max":958,"o":"m 793 690 q 759 808 793 764 q 664 851 725 851 q 661 860 661 851 q 664 868 661 868 q 735 866 699 868 q 815 864 772 864 q 889 866 853 864 q 956 868 925 868 q 958 860 958 868 q 956 851 958 851 q 870 808 900 851 q 840 690 840 764 l 840 304 q 797 133 840 206 q 676 20 754 60 q 494 -19 599 -19 q 313 19 393 -19 q 188 131 233 58 q 143 307 143 204 l 143 756 q 136 816 143 796 q 108 844 129 836 q 44 851 86 851 q 40 860 40 851 q 44 868 40 868 q 125 866 81 868 q 219 864 169 864 q 317 866 272 864 q 396 868 361 868 q 400 860 400 868 q 396 851 400 851 q 333 843 354 851 q 305 814 313 835 q 297 753 297 793 l 297 356 q 365 108 297 185 q 547 32 433 32 q 728 102 663 32 q 793 303 793 172 l 793 690 m 390 944 q 383 940 390 940 q 375 946 375 940 q 518 1121 375 1121 q 660 946 660 1121 q 652 940 660 940 q 644 944 644 940 q 608 991 644 968 q 518 1014 571 1014 q 426 991 463 1014 q 390 944 390 968 z "},"Ū":{"ha":976,"x_min":40,"x_max":958,"o":"m 793 690 q 759 808 793 764 q 664 851 725 851 q 661 860 661 851 q 664 868 661 868 q 735 866 699 868 q 815 864 772 864 q 889 866 853 864 q 956 868 925 868 q 958 860 958 868 q 956 851 958 851 q 870 808 900 851 q 840 690 840 764 l 840 304 q 797 133 840 206 q 676 20 754 60 q 494 -19 599 -19 q 313 19 393 -19 q 188 131 233 58 q 143 307 143 204 l 143 756 q 136 816 143 796 q 108 844 129 836 q 44 851 86 851 q 40 860 40 851 q 44 868 40 868 q 125 866 81 868 q 219 864 169 864 q 317 866 272 864 q 396 868 361 868 q 400 860 400 868 q 396 851 400 851 q 333 843 354 851 q 305 814 313 835 q 297 753 297 793 l 297 356 q 365 108 297 185 q 547 32 433 32 q 728 102 663 32 q 793 303 793 172 l 793 690 m 343 990 q 331 1003 335 990 q 331 1029 328 1017 q 343 1042 335 1042 l 692 1042 q 705 1029 701 1042 q 705 1003 708 1017 q 692 990 701 990 l 343 990 z "},"Ų":{"ha":976,"x_min":40,"x_max":958,"o":"m 793 690 q 759 808 793 764 q 664 851 725 851 q 661 860 661 851 q 664 868 661 868 q 735 866 699 868 q 815 864 772 864 q 889 866 853 864 q 956 868 925 868 q 958 860 958 868 q 956 851 958 851 q 870 808 900 851 q 840 690 840 764 l 840 304 q 797 133 840 206 q 676 20 754 60 q 494 -19 599 -19 q 313 19 393 -19 q 188 131 233 58 q 143 307 143 204 l 143 756 q 136 816 143 796 q 108 844 129 836 q 44 851 86 851 q 40 860 40 851 q 44 868 40 868 q 125 866 81 868 q 219 864 169 864 q 317 866 272 864 q 396 868 361 868 q 400 860 400 868 q 396 851 400 851 q 333 843 354 851 q 305 814 313 835 q 297 753 297 793 l 297 356 q 365 108 297 185 q 547 32 433 32 q 728 102 663 32 q 793 303 793 172 l 793 690 m 590 8 l 610 1 q 547 -77 567 -40 q 528 -162 528 -114 q 563 -278 528 -233 q 663 -324 599 -324 q 696 -319 678 -324 q 722 -308 714 -314 q 731 -311 726 -306 q 732 -319 736 -317 q 652 -367 692 -353 q 576 -382 613 -382 q 459 -337 506 -382 q 413 -229 413 -293 q 456 -113 413 -172 q 590 8 500 -54 z "},"Ů":{"ha":976,"x_min":40,"x_max":958,"o":"m 793 690 q 759 808 793 764 q 664 851 725 851 q 661 860 661 851 q 664 868 661 868 q 735 866 699 868 q 815 864 772 864 q 889 866 853 864 q 956 868 925 868 q 958 860 958 868 q 956 851 958 851 q 870 808 900 851 q 840 690 840 764 l 840 304 q 797 133 840 206 q 676 20 754 60 q 494 -19 599 -19 q 313 19 393 -19 q 188 131 233 58 q 143 307 143 204 l 143 756 q 136 816 143 796 q 108 844 129 836 q 44 851 86 851 q 40 860 40 851 q 44 868 40 868 q 125 866 81 868 q 219 864 169 864 q 317 866 272 864 q 396 868 361 868 q 400 860 400 868 q 396 851 400 851 q 333 843 354 851 q 305 814 313 835 q 297 753 297 793 l 297 356 q 365 108 297 185 q 547 32 433 32 q 728 102 663 32 q 793 303 793 172 l 793 690 m 506 982 q 397 1015 436 982 q 358 1092 358 1049 q 383 1152 358 1128 q 446 1188 408 1176 q 519 1200 483 1200 q 624 1167 581 1200 q 667 1089 667 1135 q 643 1031 667 1056 q 583 994 619 1007 q 506 982 546 982 m 528 1001 q 564 1064 564 1001 q 543 1146 564 1111 q 492 1181 522 1181 q 458 1119 458 1181 q 467 1065 458 1092 q 490 1019 475 1038 q 528 1001 506 1001 z "},"Ũ":{"ha":976,"x_min":40,"x_max":958,"o":"m 793 690 q 759 808 793 764 q 664 851 725 851 q 661 860 661 851 q 664 868 661 868 q 735 866 699 868 q 815 864 772 864 q 889 866 853 864 q 956 868 925 868 q 958 860 958 868 q 956 851 958 851 q 870 808 900 851 q 840 690 840 764 l 840 304 q 797 133 840 206 q 676 20 754 60 q 494 -19 599 -19 q 313 19 393 -19 q 188 131 233 58 q 143 307 143 204 l 143 756 q 136 816 143 796 q 108 844 129 836 q 44 851 86 851 q 40 860 40 851 q 44 868 40 868 q 125 866 81 868 q 219 864 169 864 q 317 866 272 864 q 396 868 361 868 q 400 860 400 868 q 396 851 400 851 q 333 843 354 851 q 305 814 313 835 q 297 753 297 793 l 297 356 q 365 108 297 185 q 547 32 433 32 q 728 102 663 32 q 793 303 793 172 l 793 690 m 622 1060 q 660 1068 646 1060 q 693 1097 675 1076 q 701 1096 696 1100 q 703 1088 706 1092 q 642 998 665 1019 q 588 976 619 976 q 534 985 563 976 q 476 1001 506 993 q 414 1010 446 1010 q 372 1000 383 1010 q 343 972 360 990 q 335 975 340 971 q 333 982 331 979 q 363 1029 344 1003 q 404 1075 381 1056 q 454 1094 428 1094 q 501 1086 474 1094 q 561 1069 529 1078 q 622 1060 593 1060 z "},"V":{"ha":917,"x_min":3,"x_max":928,"o":"m 924 868 q 928 860 928 868 q 924 851 928 851 q 827 807 872 851 q 754 688 782 763 l 497 1 q 483 -4 496 -4 q 467 1 469 -4 l 113 753 q 64 826 89 801 q 7 851 39 851 q 3 860 3 851 q 7 868 3 868 q 33 867 24 868 q 58 865 42 865 q 108 864 74 864 q 235 865 186 864 q 314 867 283 865 q 367 868 344 868 q 371 860 371 868 q 367 851 371 851 q 288 818 307 851 q 294 728 268 785 l 547 189 l 482 75 l 715 692 q 719 806 740 760 q 629 851 697 851 q 625 860 625 851 q 629 868 625 868 q 706 866 669 868 q 801 864 742 864 q 865 866 840 864 q 924 868 889 868 z "},"W":{"ha":1265,"x_min":3,"x_max":1276,"o":"m 668 460 l 497 1 q 483 -4 496 -4 q 467 1 469 -4 l 113 753 q 79 815 93 794 q 49 844 65 836 q 7 851 33 851 q 3 860 3 851 q 7 868 3 868 q 33 867 24 868 q 58 865 42 865 q 108 864 74 864 q 208 865 171 864 q 268 867 244 865 q 310 868 292 868 q 314 860 314 868 q 310 851 314 851 q 247 828 253 851 q 278 728 242 806 l 540 171 l 482 75 l 642 499 l 668 460 m 1274 868 q 1276 860 1276 868 q 1274 851 1276 851 q 1177 808 1222 851 q 1103 688 1132 764 l 846 1 q 831 -4 844 -4 q 815 1 818 -4 l 461 753 q 418 825 439 799 q 372 851 397 851 q 368 860 368 851 q 372 868 368 868 q 394 867 386 868 q 416 865 403 865 q 458 864 429 864 q 570 866 536 864 q 626 868 604 868 q 631 860 631 868 q 626 851 631 851 q 590 828 589 851 q 626 728 590 806 l 892 171 l 832 75 l 1057 678 q 1066 802 1085 753 q 994 851 1047 851 q 990 860 990 851 q 994 868 990 868 q 1065 866 1031 868 q 1150 864 1099 864 q 1214 866 1189 864 q 1274 868 1239 868 m 650 499 l 722 692 q 753 813 754 774 q 718 851 753 851 q 714 860 714 851 q 718 868 714 868 q 736 867 732 868 q 753 865 740 865 q 808 864 767 864 q 865 866 843 864 q 917 868 886 868 q 919 860 919 868 q 917 851 919 851 q 832 811 869 851 q 763 688 794 771 l 676 460 l 650 499 z "},"Ẃ":{"ha":1265,"x_min":3,"x_max":1276,"o":"m 668 460 l 497 1 q 483 -4 496 -4 q 467 1 469 -4 l 113 753 q 79 815 93 794 q 49 844 65 836 q 7 851 33 851 q 3 860 3 851 q 7 868 3 868 q 33 867 24 868 q 58 865 42 865 q 108 864 74 864 q 208 865 171 864 q 268 867 244 865 q 310 868 292 868 q 314 860 314 868 q 310 851 314 851 q 247 828 253 851 q 278 728 242 806 l 540 171 l 482 75 l 642 499 l 668 460 m 1274 868 q 1276 860 1276 868 q 1274 851 1276 851 q 1177 808 1222 851 q 1103 688 1132 764 l 846 1 q 831 -4 844 -4 q 815 1 818 -4 l 461 753 q 418 825 439 799 q 372 851 397 851 q 368 860 368 851 q 372 868 368 868 q 394 867 386 868 q 416 865 403 865 q 458 864 429 864 q 570 866 536 864 q 626 868 604 868 q 631 860 631 868 q 626 851 631 851 q 590 828 589 851 q 626 728 590 806 l 892 171 l 832 75 l 1057 678 q 1066 802 1085 753 q 994 851 1047 851 q 990 860 990 851 q 994 868 990 868 q 1065 866 1031 868 q 1150 864 1099 864 q 1214 866 1189 864 q 1274 868 1239 868 m 650 499 l 722 692 q 753 813 754 774 q 718 851 753 851 q 714 860 714 851 q 718 868 714 868 q 736 867 732 868 q 753 865 740 865 q 808 864 767 864 q 865 866 843 864 q 917 868 886 868 q 919 860 919 868 q 917 851 919 851 q 832 811 869 851 q 763 688 794 771 l 676 460 l 650 499 m 519 943 q 511 948 514 940 q 513 957 508 956 q 604 1031 563 993 q 688 1101 646 1068 q 720 1101 693 1107 q 777 1083 747 1094 q 824 1063 807 1072 q 828 1050 842 1053 q 663 1001 735 1028 q 519 943 590 975 z "},"Ŵ":{"ha":1265,"x_min":3,"x_max":1276,"o":"m 668 460 l 497 1 q 483 -4 496 -4 q 467 1 469 -4 l 113 753 q 79 815 93 794 q 49 844 65 836 q 7 851 33 851 q 3 860 3 851 q 7 868 3 868 q 33 867 24 868 q 58 865 42 865 q 108 864 74 864 q 208 865 171 864 q 268 867 244 865 q 310 868 292 868 q 314 860 314 868 q 310 851 314 851 q 247 828 253 851 q 278 728 242 806 l 540 171 l 482 75 l 642 499 l 668 460 m 1274 868 q 1276 860 1276 868 q 1274 851 1276 851 q 1177 808 1222 851 q 1103 688 1132 764 l 846 1 q 831 -4 844 -4 q 815 1 818 -4 l 461 753 q 418 825 439 799 q 372 851 397 851 q 368 860 368 851 q 372 868 368 868 q 394 867 386 868 q 416 865 403 865 q 458 864 429 864 q 570 866 536 864 q 626 868 604 868 q 631 860 631 868 q 626 851 631 851 q 590 828 589 851 q 626 728 590 806 l 892 171 l 832 75 l 1057 678 q 1066 802 1085 753 q 994 851 1047 851 q 990 860 990 851 q 994 868 990 868 q 1065 866 1031 868 q 1150 864 1099 864 q 1214 866 1189 864 q 1274 868 1239 868 m 650 499 l 722 692 q 753 813 754 774 q 718 851 753 851 q 714 860 714 851 q 718 868 714 868 q 736 867 732 868 q 753 865 740 865 q 808 864 767 864 q 865 866 843 864 q 917 868 886 868 q 919 860 919 868 q 917 851 919 851 q 832 811 869 851 q 763 688 794 771 l 676 460 l 650 499 m 496 975 l 639 1136 q 656 1143 646 1143 q 671 1136 665 1143 l 813 975 q 813 969 817 974 q 806 965 808 964 l 656 1019 l 504 965 q 498 969 503 964 q 496 975 493 974 z "},"Ẅ":{"ha":1265,"x_min":3,"x_max":1276,"o":"m 668 460 l 497 1 q 483 -4 496 -4 q 467 1 469 -4 l 113 753 q 79 815 93 794 q 49 844 65 836 q 7 851 33 851 q 3 860 3 851 q 7 868 3 868 q 33 867 24 868 q 58 865 42 865 q 108 864 74 864 q 208 865 171 864 q 268 867 244 865 q 310 868 292 868 q 314 860 314 868 q 310 851 314 851 q 247 828 253 851 q 278 728 242 806 l 540 171 l 482 75 l 642 499 l 668 460 m 1274 868 q 1276 860 1276 868 q 1274 851 1276 851 q 1177 808 1222 851 q 1103 688 1132 764 l 846 1 q 831 -4 844 -4 q 815 1 818 -4 l 461 753 q 418 825 439 799 q 372 851 397 851 q 368 860 368 851 q 372 868 368 868 q 394 867 386 868 q 416 865 403 865 q 458 864 429 864 q 570 866 536 864 q 626 868 604 868 q 631 860 631 868 q 626 851 631 851 q 590 828 589 851 q 626 728 590 806 l 892 171 l 832 75 l 1057 678 q 1066 802 1085 753 q 994 851 1047 851 q 990 860 990 851 q 994 868 990 868 q 1065 866 1031 868 q 1150 864 1099 864 q 1214 866 1189 864 q 1274 868 1239 868 m 650 499 l 722 692 q 753 813 754 774 q 718 851 753 851 q 714 860 714 851 q 718 868 714 868 q 736 867 732 868 q 753 865 740 865 q 808 864 767 864 q 865 866 843 864 q 917 868 886 868 q 919 860 919 868 q 917 851 919 851 q 832 811 869 851 q 763 688 794 771 l 676 460 l 650 499 m 535 976 q 479 997 500 976 q 458 1053 458 1017 q 479 1106 458 1086 q 535 1125 500 1125 q 588 1106 569 1125 q 607 1053 607 1086 q 535 976 607 976 m 776 976 q 722 997 742 976 q 701 1053 701 1017 q 722 1105 701 1086 q 776 1124 742 1124 q 849 1053 849 1124 q 776 976 849 976 z "},"Ẁ":{"ha":1265,"x_min":3,"x_max":1276,"o":"m 668 460 l 497 1 q 483 -4 496 -4 q 467 1 469 -4 l 113 753 q 79 815 93 794 q 49 844 65 836 q 7 851 33 851 q 3 860 3 851 q 7 868 3 868 q 33 867 24 868 q 58 865 42 865 q 108 864 74 864 q 208 865 171 864 q 268 867 244 865 q 310 868 292 868 q 314 860 314 868 q 310 851 314 851 q 247 828 253 851 q 278 728 242 806 l 540 171 l 482 75 l 642 499 l 668 460 m 1274 868 q 1276 860 1276 868 q 1274 851 1276 851 q 1177 808 1222 851 q 1103 688 1132 764 l 846 1 q 831 -4 844 -4 q 815 1 818 -4 l 461 753 q 418 825 439 799 q 372 851 397 851 q 368 860 368 851 q 372 868 368 868 q 394 867 386 868 q 416 865 403 865 q 458 864 429 864 q 570 866 536 864 q 626 868 604 868 q 631 860 631 868 q 626 851 631 851 q 590 828 589 851 q 626 728 590 806 l 892 171 l 832 75 l 1057 678 q 1066 802 1085 753 q 994 851 1047 851 q 990 860 990 851 q 994 868 990 868 q 1065 866 1031 868 q 1150 864 1099 864 q 1214 866 1189 864 q 1274 868 1239 868 m 650 499 l 722 692 q 753 813 754 774 q 718 851 753 851 q 714 860 714 851 q 718 868 714 868 q 736 867 732 868 q 753 865 740 865 q 808 864 767 864 q 865 866 843 864 q 917 868 886 868 q 919 860 919 868 q 917 851 919 851 q 832 811 869 851 q 763 688 794 771 l 676 460 l 650 499 m 793 943 q 649 1001 722 975 q 485 1050 576 1028 q 488 1063 471 1053 q 535 1083 506 1072 q 592 1101 565 1094 q 625 1101 619 1107 q 708 1031 667 1068 q 799 957 750 993 q 802 948 804 956 q 793 943 800 940 z "},"X":{"ha":899,"x_min":3,"x_max":899,"o":"m 561 0 q 557 8 557 0 q 561 17 557 17 q 602 27 588 17 q 594 71 617 38 l 163 740 q 90 826 124 801 q 17 851 56 851 q 13 860 13 851 q 17 868 13 868 q 76 866 44 868 q 135 864 107 864 q 245 866 194 864 q 335 868 296 868 q 338 860 338 868 q 335 851 338 851 q 293 842 308 851 q 300 796 278 832 l 740 115 q 811 40 775 64 q 894 17 847 17 q 899 8 899 17 q 894 0 899 0 q 827 1 864 0 q 749 3 790 3 q 644 1 689 3 q 561 0 600 0 m 7 0 q 3 8 3 0 q 7 17 3 17 q 109 60 47 17 q 243 203 171 103 l 414 433 l 439 414 l 285 194 q 231 65 226 113 q 303 17 235 17 q 306 8 306 17 q 303 0 306 0 q 226 1 263 0 q 131 3 190 3 q 67 1 92 3 q 7 0 43 0 m 465 433 l 440 453 l 594 672 q 649 803 653 756 q 576 851 644 851 q 574 860 574 851 q 576 868 574 868 q 653 866 617 868 q 749 864 689 864 q 813 866 789 864 q 872 868 838 868 q 876 860 876 868 q 872 851 876 851 q 770 808 832 851 q 635 664 708 764 l 465 433 z "},"Y":{"ha":860,"x_min":3,"x_max":871,"o":"m 442 386 l 613 676 q 648 803 658 754 q 572 851 638 851 q 568 860 568 851 q 572 868 568 868 q 656 866 617 868 q 760 864 694 864 q 816 866 794 864 q 868 868 838 868 q 871 860 871 868 q 868 851 871 851 q 801 827 840 851 q 724 761 763 803 q 651 664 685 719 l 471 363 l 442 386 m 361 381 l 150 708 q 62 823 94 794 q 7 851 29 851 q 3 860 3 851 q 7 868 3 868 q 50 866 28 868 q 93 864 72 864 q 176 865 132 864 q 260 867 221 865 q 325 868 300 868 q 328 860 328 868 q 325 851 328 851 q 277 824 285 851 q 294 758 269 796 l 494 443 l 361 381 m 353 431 l 507 443 l 507 113 q 514 51 507 72 q 542 24 521 31 q 606 17 563 17 q 610 8 610 17 q 606 0 610 0 q 526 1 569 0 q 429 3 482 3 q 333 1 379 3 q 251 0 288 0 q 249 8 249 0 q 251 17 249 17 q 316 24 294 17 q 345 51 338 31 q 353 113 353 72 l 353 431 z "},"Ý":{"ha":860,"x_min":3,"x_max":871,"o":"m 442 386 l 613 676 q 648 803 658 754 q 572 851 638 851 q 568 860 568 851 q 572 868 568 868 q 656 866 617 868 q 760 864 694 864 q 816 866 794 864 q 868 868 838 868 q 871 860 871 868 q 868 851 871 851 q 801 827 840 851 q 724 761 763 803 q 651 664 685 719 l 471 363 l 442 386 m 361 381 l 150 708 q 62 823 94 794 q 7 851 29 851 q 3 860 3 851 q 7 868 3 868 q 50 866 28 868 q 93 864 72 864 q 176 865 132 864 q 260 867 221 865 q 325 868 300 868 q 328 860 328 868 q 325 851 328 851 q 277 824 285 851 q 294 758 269 796 l 494 443 l 361 381 m 353 431 l 507 443 l 507 113 q 514 51 507 72 q 542 24 521 31 q 606 17 563 17 q 610 8 610 17 q 606 0 610 0 q 526 1 569 0 q 429 3 482 3 q 333 1 379 3 q 251 0 288 0 q 249 8 249 0 q 251 17 249 17 q 316 24 294 17 q 345 51 338 31 q 353 113 353 72 l 353 431 m 315 943 q 307 948 310 940 q 308 957 304 956 q 400 1031 358 993 q 483 1101 442 1068 q 516 1101 489 1107 q 573 1083 543 1094 q 620 1063 603 1072 q 624 1050 638 1053 q 458 1001 531 1028 q 315 943 386 975 z "},"Ŷ":{"ha":860,"x_min":3,"x_max":871,"o":"m 442 386 l 613 676 q 648 803 658 754 q 572 851 638 851 q 568 860 568 851 q 572 868 568 868 q 656 866 617 868 q 760 864 694 864 q 816 866 794 864 q 868 868 838 868 q 871 860 871 868 q 868 851 871 851 q 801 827 840 851 q 724 761 763 803 q 651 664 685 719 l 471 363 l 442 386 m 361 381 l 150 708 q 62 823 94 794 q 7 851 29 851 q 3 860 3 851 q 7 868 3 868 q 50 866 28 868 q 93 864 72 864 q 176 865 132 864 q 260 867 221 865 q 325 868 300 868 q 328 860 328 868 q 325 851 328 851 q 277 824 285 851 q 294 758 269 796 l 494 443 l 361 381 m 353 431 l 507 443 l 507 113 q 514 51 507 72 q 542 24 521 31 q 606 17 563 17 q 610 8 610 17 q 606 0 610 0 q 526 1 569 0 q 429 3 482 3 q 333 1 379 3 q 251 0 288 0 q 249 8 249 0 q 251 17 249 17 q 316 24 294 17 q 345 51 338 31 q 353 113 353 72 l 353 431 m 292 975 l 435 1136 q 451 1143 442 1143 q 467 1136 461 1143 l 608 975 q 608 969 613 974 q 601 965 604 964 l 451 1019 l 300 965 q 294 969 299 964 q 292 975 289 974 z "},"Ÿ":{"ha":860,"x_min":3,"x_max":871,"o":"m 442 386 l 613 676 q 648 803 658 754 q 572 851 638 851 q 568 860 568 851 q 572 868 568 868 q 656 866 617 868 q 760 864 694 864 q 816 866 794 864 q 868 868 838 868 q 871 860 871 868 q 868 851 871 851 q 801 827 840 851 q 724 761 763 803 q 651 664 685 719 l 471 363 l 442 386 m 361 381 l 150 708 q 62 823 94 794 q 7 851 29 851 q 3 860 3 851 q 7 868 3 868 q 50 866 28 868 q 93 864 72 864 q 176 865 132 864 q 260 867 221 865 q 325 868 300 868 q 328 860 328 868 q 325 851 328 851 q 277 824 285 851 q 294 758 269 796 l 494 443 l 361 381 m 353 431 l 507 443 l 507 113 q 514 51 507 72 q 542 24 521 31 q 606 17 563 17 q 610 8 610 17 q 606 0 610 0 q 526 1 569 0 q 429 3 482 3 q 333 1 379 3 q 251 0 288 0 q 249 8 249 0 q 251 17 249 17 q 316 24 294 17 q 345 51 338 31 q 353 113 353 72 l 353 431 m 331 976 q 275 997 296 976 q 254 1053 254 1017 q 275 1106 254 1086 q 331 1125 296 1125 q 384 1106 365 1125 q 403 1053 403 1086 q 331 976 403 976 m 572 976 q 517 997 538 976 q 497 1053 497 1017 q 517 1105 497 1086 q 572 1124 538 1124 q 644 1053 644 1124 q 572 976 644 976 z "},"Ẏ":{"ha":860,"x_min":3,"x_max":871,"o":"m 442 386 l 613 676 q 648 803 658 754 q 572 851 638 851 q 568 860 568 851 q 572 868 568 868 q 656 866 617 868 q 760 864 694 864 q 816 866 794 864 q 868 868 838 868 q 871 860 871 868 q 868 851 871 851 q 801 827 840 851 q 724 761 763 803 q 651 664 685 719 l 471 363 l 442 386 m 361 381 l 150 708 q 62 823 94 794 q 7 851 29 851 q 3 860 3 851 q 7 868 3 868 q 50 866 28 868 q 93 864 72 864 q 176 865 132 864 q 260 867 221 865 q 325 868 300 868 q 328 860 328 868 q 325 851 328 851 q 277 824 285 851 q 294 758 269 796 l 494 443 l 361 381 m 353 431 l 507 443 l 507 113 q 514 51 507 72 q 542 24 521 31 q 606 17 563 17 q 610 8 610 17 q 606 0 610 0 q 526 1 569 0 q 429 3 482 3 q 333 1 379 3 q 251 0 288 0 q 249 8 249 0 q 251 17 249 17 q 316 24 294 17 q 345 51 338 31 q 353 113 353 72 l 353 431 m 451 990 q 390 1013 413 990 q 367 1075 367 1036 q 390 1133 367 1111 q 451 1156 413 1156 q 511 1133 490 1156 q 532 1075 532 1111 q 511 1013 532 1036 q 451 990 490 990 z "},"Ỵ":{"ha":860,"x_min":3,"x_max":871,"o":"m 442 386 l 613 676 q 648 803 658 754 q 572 851 638 851 q 568 860 568 851 q 572 868 568 868 q 656 866 617 868 q 760 864 694 864 q 816 866 794 864 q 868 868 838 868 q 871 860 871 868 q 868 851 871 851 q 801 827 840 851 q 724 761 763 803 q 651 664 685 719 l 471 363 l 442 386 m 361 381 l 150 708 q 62 823 94 794 q 7 851 29 851 q 3 860 3 851 q 7 868 3 868 q 50 866 28 868 q 93 864 72 864 q 176 865 132 864 q 260 867 221 865 q 325 868 300 868 q 328 860 328 868 q 325 851 328 851 q 277 824 285 851 q 294 758 269 796 l 494 443 l 361 381 m 353 431 l 507 443 l 507 113 q 514 51 507 72 q 542 24 521 31 q 606 17 563 17 q 610 8 610 17 q 606 0 610 0 q 526 1 569 0 q 429 3 482 3 q 333 1 379 3 q 251 0 288 0 q 249 8 249 0 q 251 17 249 17 q 316 24 294 17 q 345 51 338 31 q 353 113 353 72 l 353 431 m 432 -287 q 370 -265 393 -287 q 347 -203 347 -243 q 370 -145 347 -167 q 432 -124 393 -124 q 492 -145 471 -124 q 513 -203 513 -167 q 432 -287 513 -287 z "},"Ỳ":{"ha":860,"x_min":3,"x_max":871,"o":"m 442 386 l 613 676 q 648 803 658 754 q 572 851 638 851 q 568 860 568 851 q 572 868 568 868 q 656 866 617 868 q 760 864 694 864 q 816 866 794 864 q 868 868 838 868 q 871 860 871 868 q 868 851 871 851 q 801 827 840 851 q 724 761 763 803 q 651 664 685 719 l 471 363 l 442 386 m 361 381 l 150 708 q 62 823 94 794 q 7 851 29 851 q 3 860 3 851 q 7 868 3 868 q 50 866 28 868 q 93 864 72 864 q 176 865 132 864 q 260 867 221 865 q 325 868 300 868 q 328 860 328 868 q 325 851 328 851 q 277 824 285 851 q 294 758 269 796 l 494 443 l 361 381 m 353 431 l 507 443 l 507 113 q 514 51 507 72 q 542 24 521 31 q 606 17 563 17 q 610 8 610 17 q 606 0 610 0 q 526 1 569 0 q 429 3 482 3 q 333 1 379 3 q 251 0 288 0 q 249 8 249 0 q 251 17 249 17 q 316 24 294 17 q 345 51 338 31 q 353 113 353 72 l 353 431 m 589 943 q 445 1001 518 975 q 281 1050 372 1028 q 284 1063 267 1053 q 331 1083 301 1072 q 388 1101 361 1094 q 421 1101 415 1107 q 504 1031 463 1068 q 594 957 546 993 q 598 948 600 956 q 589 943 596 940 z "},"Ỷ":{"ha":860,"x_min":3,"x_max":871,"o":"m 442 386 l 613 676 q 648 803 658 754 q 572 851 638 851 q 568 860 568 851 q 572 868 568 868 q 656 866 617 868 q 760 864 694 864 q 816 866 794 864 q 868 868 838 868 q 871 860 871 868 q 868 851 871 851 q 801 827 840 851 q 724 761 763 803 q 651 664 685 719 l 471 363 l 442 386 m 361 381 l 150 708 q 62 823 94 794 q 7 851 29 851 q 3 860 3 851 q 7 868 3 868 q 50 866 28 868 q 93 864 72 864 q 176 865 132 864 q 260 867 221 865 q 325 868 300 868 q 328 860 328 868 q 325 851 328 851 q 277 824 285 851 q 294 758 269 796 l 494 443 l 361 381 m 353 431 l 507 443 l 507 113 q 514 51 507 72 q 542 24 521 31 q 606 17 563 17 q 610 8 610 17 q 606 0 610 0 q 526 1 569 0 q 429 3 482 3 q 333 1 379 3 q 251 0 288 0 q 249 8 249 0 q 251 17 249 17 q 316 24 294 17 q 345 51 338 31 q 353 113 353 72 l 353 431 m 451 904 q 444 902 451 903 q 435 904 436 901 q 434 961 429 936 q 447 1008 439 986 q 463 1050 456 1029 q 471 1096 471 1071 q 461 1134 471 1122 q 432 1146 451 1146 q 408 1142 421 1146 q 382 1132 396 1139 q 373 1135 378 1131 q 372 1143 368 1140 q 426 1172 396 1163 q 486 1182 456 1182 q 557 1163 531 1182 q 583 1110 583 1144 q 563 1052 583 1079 q 517 1001 543 1025 q 471 953 490 976 q 451 904 451 929 z "},"Ȳ":{"ha":860,"x_min":3,"x_max":871,"o":"m 442 386 l 613 676 q 648 803 658 754 q 572 851 638 851 q 568 860 568 851 q 572 868 568 868 q 656 866 617 868 q 760 864 694 864 q 816 866 794 864 q 868 868 838 868 q 871 860 871 868 q 868 851 871 851 q 801 827 840 851 q 724 761 763 803 q 651 664 685 719 l 471 363 l 442 386 m 361 381 l 150 708 q 62 823 94 794 q 7 851 29 851 q 3 860 3 851 q 7 868 3 868 q 50 866 28 868 q 93 864 72 864 q 176 865 132 864 q 260 867 221 865 q 325 868 300 868 q 328 860 328 868 q 325 851 328 851 q 277 824 285 851 q 294 758 269 796 l 494 443 l 361 381 m 353 431 l 507 443 l 507 113 q 514 51 507 72 q 542 24 521 31 q 606 17 563 17 q 610 8 610 17 q 606 0 610 0 q 526 1 569 0 q 429 3 482 3 q 333 1 379 3 q 251 0 288 0 q 249 8 249 0 q 251 17 249 17 q 316 24 294 17 q 345 51 338 31 q 353 113 353 72 l 353 431 m 275 990 q 263 1003 267 990 q 263 1029 260 1017 q 275 1042 267 1042 l 624 1042 q 637 1029 633 1042 q 637 1003 640 1017 q 624 990 633 990 l 275 990 z "},"Ỹ":{"ha":860,"x_min":3,"x_max":871,"o":"m 442 386 l 613 676 q 648 803 658 754 q 572 851 638 851 q 568 860 568 851 q 572 868 568 868 q 656 866 617 868 q 760 864 694 864 q 816 866 794 864 q 868 868 838 868 q 871 860 871 868 q 868 851 871 851 q 801 827 840 851 q 724 761 763 803 q 651 664 685 719 l 471 363 l 442 386 m 361 381 l 150 708 q 62 823 94 794 q 7 851 29 851 q 3 860 3 851 q 7 868 3 868 q 50 866 28 868 q 93 864 72 864 q 176 865 132 864 q 260 867 221 865 q 325 868 300 868 q 328 860 328 868 q 325 851 328 851 q 277 824 285 851 q 294 758 269 796 l 494 443 l 361 381 m 353 431 l 507 443 l 507 113 q 514 51 507 72 q 542 24 521 31 q 606 17 563 17 q 610 8 610 17 q 606 0 610 0 q 526 1 569 0 q 429 3 482 3 q 333 1 379 3 q 251 0 288 0 q 249 8 249 0 q 251 17 249 17 q 316 24 294 17 q 345 51 338 31 q 353 113 353 72 l 353 431 m 554 1060 q 592 1068 578 1060 q 625 1097 607 1076 q 633 1096 628 1100 q 635 1088 638 1092 q 574 998 597 1019 q 519 976 551 976 q 466 985 494 976 q 408 1001 438 993 q 346 1010 378 1010 q 303 1000 315 1010 q 275 972 292 990 q 267 975 272 971 q 265 982 263 979 q 294 1029 276 1003 q 336 1075 313 1056 q 386 1094 360 1094 q 433 1086 406 1094 q 493 1069 461 1078 q 554 1060 525 1060 z "},"Z":{"ha":840,"x_min":78,"x_max":788,"o":"m 83 18 l 571 833 q 574 842 575 840 q 564 844 574 844 q 412 841 478 844 q 297 828 346 838 q 211 798 247 818 q 147 745 175 778 q 96 664 119 713 q 86 663 94 661 q 79 668 78 664 l 135 910 q 144 911 136 913 q 151 907 153 910 q 163 875 147 882 q 231 868 178 868 q 435 868 314 868 q 738 868 556 868 q 748 861 744 868 q 747 850 751 854 l 267 38 q 263 28 261 31 q 272 26 264 26 q 436 26 363 26 q 553 26 510 26 q 651 52 604 26 q 731 120 697 78 q 772 213 764 163 q 781 217 774 217 q 788 213 788 217 l 768 11 q 765 2 768 7 q 756 -3 763 -3 q 538 -1 653 -1 q 309 0 424 0 q 90 0 194 0 q 82 6 85 0 q 83 18 79 13 z "},"Ź":{"ha":840,"x_min":78,"x_max":788,"o":"m 83 18 l 571 833 q 574 842 575 840 q 564 844 574 844 q 412 841 478 844 q 297 828 346 838 q 211 798 247 818 q 147 745 175 778 q 96 664 119 713 q 86 663 94 661 q 79 668 78 664 l 135 910 q 144 911 136 913 q 151 907 153 910 q 163 875 147 882 q 231 868 178 868 q 435 868 314 868 q 738 868 556 868 q 748 861 744 868 q 747 850 751 854 l 267 38 q 263 28 261 31 q 272 26 264 26 q 436 26 363 26 q 553 26 510 26 q 651 52 604 26 q 731 120 697 78 q 772 213 764 163 q 781 217 774 217 q 788 213 788 217 l 768 11 q 765 2 768 7 q 756 -3 763 -3 q 538 -1 653 -1 q 309 0 424 0 q 90 0 194 0 q 82 6 85 0 q 83 18 79 13 m 308 943 q 300 948 303 940 q 301 957 297 956 q 393 1031 351 993 q 476 1101 435 1068 q 509 1101 482 1107 q 566 1083 536 1094 q 613 1063 596 1072 q 617 1050 631 1053 q 451 1001 524 1028 q 308 943 379 975 z "},"Ž":{"ha":840,"x_min":78,"x_max":788,"o":"m 83 18 l 571 833 q 574 842 575 840 q 564 844 574 844 q 412 841 478 844 q 297 828 346 838 q 211 798 247 818 q 147 745 175 778 q 96 664 119 713 q 86 663 94 661 q 79 668 78 664 l 135 910 q 144 911 136 913 q 151 907 153 910 q 163 875 147 882 q 231 868 178 868 q 435 868 314 868 q 738 868 556 868 q 748 861 744 868 q 747 850 751 854 l 267 38 q 263 28 261 31 q 272 26 264 26 q 436 26 363 26 q 553 26 510 26 q 651 52 604 26 q 731 120 697 78 q 772 213 764 163 q 781 217 774 217 q 788 213 788 217 l 768 11 q 765 2 768 7 q 756 -3 763 -3 q 538 -1 653 -1 q 309 0 424 0 q 90 0 194 0 q 82 6 85 0 q 83 18 79 13 m 426 954 l 283 1114 q 286 1122 282 1118 q 292 1124 290 1126 l 443 1071 l 593 1126 q 599 1124 596 1128 q 600 1117 603 1119 l 458 954 q 443 949 453 949 q 426 954 433 949 z "},"Ż":{"ha":840,"x_min":78,"x_max":788,"o":"m 83 18 l 571 833 q 574 842 575 840 q 564 844 574 844 q 412 841 478 844 q 297 828 346 838 q 211 798 247 818 q 147 745 175 778 q 96 664 119 713 q 86 663 94 661 q 79 668 78 664 l 135 910 q 144 911 136 913 q 151 907 153 910 q 163 875 147 882 q 231 868 178 868 q 435 868 314 868 q 738 868 556 868 q 748 861 744 868 q 747 850 751 854 l 267 38 q 263 28 261 31 q 272 26 264 26 q 436 26 363 26 q 553 26 510 26 q 651 52 604 26 q 731 120 697 78 q 772 213 764 163 q 781 217 774 217 q 788 213 788 217 l 768 11 q 765 2 768 7 q 756 -3 763 -3 q 538 -1 653 -1 q 309 0 424 0 q 90 0 194 0 q 82 6 85 0 q 83 18 79 13 m 444 990 q 383 1013 406 990 q 360 1075 360 1036 q 383 1133 360 1111 q 444 1156 406 1156 q 504 1133 483 1156 q 525 1075 525 1111 q 504 1013 525 1036 q 444 990 483 990 z "},"Ẓ":{"ha":840,"x_min":78,"x_max":788,"o":"m 83 18 l 571 833 q 574 842 575 840 q 564 844 574 844 q 412 841 478 844 q 297 828 346 838 q 211 798 247 818 q 147 745 175 778 q 96 664 119 713 q 86 663 94 661 q 79 668 78 664 l 135 910 q 144 911 136 913 q 151 907 153 910 q 163 875 147 882 q 231 868 178 868 q 435 868 314 868 q 738 868 556 868 q 748 861 744 868 q 747 850 751 854 l 267 38 q 263 28 261 31 q 272 26 264 26 q 436 26 363 26 q 553 26 510 26 q 651 52 604 26 q 731 120 697 78 q 772 213 764 163 q 781 217 774 217 q 788 213 788 217 l 768 11 q 765 2 768 7 q 756 -3 763 -3 q 538 -1 653 -1 q 309 0 424 0 q 90 0 194 0 q 82 6 85 0 q 83 18 79 13 m 422 -287 q 360 -265 383 -287 q 338 -203 338 -243 q 360 -145 338 -167 q 422 -124 383 -124 q 482 -145 461 -124 q 503 -203 503 -167 q 422 -287 503 -287 z "},"A":{"ha":994,"x_min":-11,"x_max":1003,"o":"m 238 318 l 258 357 l 658 357 l 668 318 l 238 318 m 996 17 q 1003 8 1003 17 q 996 0 1003 0 q 909 3 954 0 q 822 6 864 6 q 740 3 775 6 q 663 0 706 0 q 657 8 657 0 q 663 17 657 17 q 728 40 719 17 q 703 131 738 63 l 421 688 l 489 807 l 213 197 q 211 65 175 114 q 325 17 247 17 q 332 8 332 17 q 325 0 332 0 q 249 3 283 0 q 161 6 214 6 q 74 3 107 6 q -6 0 42 0 q -11 8 -11 0 q -6 17 -11 17 q 59 33 32 17 q 113 91 86 49 q 175 211 140 133 l 476 874 q 489 878 478 878 q 501 874 500 879 l 849 190 q 906 87 882 125 q 952 33 931 49 q 996 17 974 17 z "},"Á":{"ha":994,"x_min":-11,"x_max":1003,"o":"m 238 318 l 258 357 l 658 357 l 668 318 l 238 318 m 996 17 q 1003 8 1003 17 q 996 0 1003 0 q 909 3 954 0 q 822 6 864 6 q 740 3 775 6 q 663 0 706 0 q 657 8 657 0 q 663 17 657 17 q 728 40 719 17 q 703 131 738 63 l 421 688 l 489 807 l 213 197 q 211 65 175 114 q 325 17 247 17 q 332 8 332 17 q 325 0 332 0 q 249 3 283 0 q 161 6 214 6 q 74 3 107 6 q -6 0 42 0 q -11 8 -11 0 q -6 17 -11 17 q 59 33 32 17 q 113 91 86 49 q 175 211 140 133 l 476 874 q 489 878 478 878 q 501 874 500 879 l 849 190 q 906 87 882 125 q 952 33 931 49 q 996 17 974 17 m 357 942 q 349 948 351 940 q 350 957 346 956 q 442 1030 400 993 q 525 1101 483 1067 q 558 1099 531 1106 q 615 1083 585 1093 q 662 1063 644 1072 q 665 1050 679 1053 q 500 1000 572 1026 q 357 942 428 974 z "},"Ă":{"ha":994,"x_min":-11,"x_max":1003,"o":"m 238 318 l 258 357 l 658 357 l 668 318 l 238 318 m 996 17 q 1003 8 1003 17 q 996 0 1003 0 q 909 3 954 0 q 822 6 864 6 q 740 3 775 6 q 663 0 706 0 q 657 8 657 0 q 663 17 657 17 q 728 40 719 17 q 703 131 738 63 l 421 688 l 489 807 l 213 197 q 211 65 175 114 q 325 17 247 17 q 332 8 332 17 q 325 0 332 0 q 249 3 283 0 q 161 6 214 6 q 74 3 107 6 q -6 0 42 0 q -11 8 -11 0 q -6 17 -11 17 q 59 33 32 17 q 113 91 86 49 q 175 211 140 133 l 476 874 q 489 878 478 878 q 501 874 500 879 l 849 190 q 906 87 882 125 q 952 33 931 49 q 996 17 974 17 m 492 958 q 385 1004 422 958 q 349 1135 349 1050 q 356 1139 349 1139 q 364 1136 364 1139 q 400 1090 364 1113 q 492 1067 436 1067 q 581 1090 544 1067 q 618 1136 618 1113 q 626 1139 618 1139 q 633 1135 633 1139 q 597 1004 633 1050 q 492 958 561 958 z "},"Ắ":{"ha":994,"x_min":-11,"x_max":1003,"o":"m 238 318 l 258 357 l 658 357 l 668 318 l 238 318 m 996 17 q 1003 8 1003 17 q 996 0 1003 0 q 909 3 954 0 q 822 6 864 6 q 740 3 775 6 q 663 0 706 0 q 657 8 657 0 q 663 17 657 17 q 728 40 719 17 q 703 131 738 63 l 421 688 l 489 807 l 213 197 q 211 65 175 114 q 325 17 247 17 q 332 8 332 17 q 325 0 332 0 q 249 3 283 0 q 161 6 214 6 q 74 3 107 6 q -6 0 42 0 q -11 8 -11 0 q -6 17 -11 17 q 59 33 32 17 q 113 91 86 49 q 175 211 140 133 l 476 874 q 489 878 478 878 q 501 874 500 879 l 849 190 q 906 87 882 125 q 952 33 931 49 q 996 17 974 17 m 492 940 q 349 1115 349 940 q 356 1121 349 1121 q 364 1117 364 1121 q 400 1070 364 1093 q 492 1047 436 1047 q 581 1070 544 1047 q 618 1117 618 1093 q 626 1121 618 1121 q 633 1115 633 1121 q 492 940 633 940 m 410 1125 q 401 1128 404 1121 q 399 1139 397 1135 q 442 1213 421 1175 q 479 1283 464 1250 q 500 1286 482 1289 q 542 1276 518 1283 q 588 1260 567 1269 q 621 1244 610 1251 q 621 1232 632 1236 q 508 1183 557 1210 q 410 1125 458 1157 z "},"Ặ":{"ha":994,"x_min":-11,"x_max":1003,"o":"m 238 318 l 258 357 l 658 357 l 668 318 l 238 318 m 996 17 q 1003 8 1003 17 q 996 0 1003 0 q 909 3 954 0 q 822 6 864 6 q 740 3 775 6 q 663 0 706 0 q 657 8 657 0 q 663 17 657 17 q 728 40 719 17 q 703 131 738 63 l 421 688 l 489 807 l 213 197 q 211 65 175 114 q 325 17 247 17 q 332 8 332 17 q 325 0 332 0 q 249 3 283 0 q 161 6 214 6 q 74 3 107 6 q -6 0 42 0 q -11 8 -11 0 q -6 17 -11 17 q 59 33 32 17 q 113 91 86 49 q 175 211 140 133 l 476 874 q 489 878 478 878 q 501 874 500 879 l 849 190 q 906 87 882 125 q 952 33 931 49 q 996 17 974 17 m 499 -287 q 437 -265 460 -287 q 414 -203 414 -243 q 437 -145 414 -167 q 499 -124 460 -124 q 558 -145 538 -124 q 579 -203 579 -167 q 499 -287 579 -287 m 492 958 q 385 1004 422 958 q 349 1135 349 1050 q 356 1139 349 1139 q 364 1136 364 1139 q 400 1090 364 1113 q 492 1067 436 1067 q 581 1090 544 1067 q 618 1136 618 1113 q 626 1139 618 1139 q 633 1135 633 1139 q 597 1004 633 1050 q 492 958 561 958 z "},"Ằ":{"ha":994,"x_min":-11,"x_max":1003,"o":"m 238 318 l 258 357 l 658 357 l 668 318 l 238 318 m 996 17 q 1003 8 1003 17 q 996 0 1003 0 q 909 3 954 0 q 822 6 864 6 q 740 3 775 6 q 663 0 706 0 q 657 8 657 0 q 663 17 657 17 q 728 40 719 17 q 703 131 738 63 l 421 688 l 489 807 l 213 197 q 211 65 175 114 q 325 17 247 17 q 332 8 332 17 q 325 0 332 0 q 249 3 283 0 q 161 6 214 6 q 74 3 107 6 q -6 0 42 0 q -11 8 -11 0 q -6 17 -11 17 q 59 33 32 17 q 113 91 86 49 q 175 211 140 133 l 476 874 q 489 878 478 878 q 501 874 500 879 l 849 190 q 906 87 882 125 q 952 33 931 49 q 996 17 974 17 m 492 940 q 349 1115 349 940 q 356 1121 349 1121 q 364 1117 364 1121 q 400 1070 364 1093 q 492 1047 436 1047 q 581 1070 544 1047 q 618 1117 618 1093 q 626 1121 618 1121 q 633 1115 633 1121 q 492 940 633 940 m 563 1125 q 467 1183 514 1157 q 357 1232 419 1208 q 357 1244 347 1236 q 388 1260 367 1251 q 434 1276 410 1269 q 476 1286 458 1283 q 497 1283 494 1289 q 533 1213 514 1250 q 574 1139 551 1175 q 573 1128 576 1135 q 563 1125 569 1122 z "},"Ẳ":{"ha":994,"x_min":-11,"x_max":1003,"o":"m 238 318 l 258 357 l 658 357 l 668 318 l 238 318 m 996 17 q 1003 8 1003 17 q 996 0 1003 0 q 909 3 954 0 q 822 6 864 6 q 740 3 775 6 q 663 0 706 0 q 657 8 657 0 q 663 17 657 17 q 728 40 719 17 q 703 131 738 63 l 421 688 l 489 807 l 213 197 q 211 65 175 114 q 325 17 247 17 q 332 8 332 17 q 325 0 332 0 q 249 3 283 0 q 161 6 214 6 q 74 3 107 6 q -6 0 42 0 q -11 8 -11 0 q -6 17 -11 17 q 59 33 32 17 q 113 91 86 49 q 175 211 140 133 l 476 874 q 489 878 478 878 q 501 874 500 879 l 849 190 q 906 87 882 125 q 952 33 931 49 q 996 17 974 17 m 492 940 q 349 1115 349 940 q 356 1121 349 1121 q 364 1117 364 1121 q 400 1070 364 1093 q 492 1047 436 1047 q 581 1070 544 1047 q 618 1117 618 1093 q 626 1121 618 1121 q 633 1115 633 1121 q 492 940 633 940 m 476 1074 q 477 1117 471 1097 q 492 1156 483 1138 q 500 1194 500 1175 q 487 1228 500 1218 q 458 1238 474 1238 q 433 1233 444 1238 q 425 1236 431 1231 q 424 1244 419 1242 q 468 1264 446 1258 q 508 1269 490 1269 q 565 1252 544 1269 q 586 1210 586 1235 q 572 1172 586 1189 q 538 1139 557 1154 q 506 1108 519 1124 q 492 1074 492 1092 q 485 1071 492 1072 q 476 1074 478 1069 z "},"Ẵ":{"ha":994,"x_min":-11,"x_max":1003,"o":"m 238 318 l 258 357 l 658 357 l 668 318 l 238 318 m 996 17 q 1003 8 1003 17 q 996 0 1003 0 q 909 3 954 0 q 822 6 864 6 q 740 3 775 6 q 663 0 706 0 q 657 8 657 0 q 663 17 657 17 q 728 40 719 17 q 703 131 738 63 l 421 688 l 489 807 l 213 197 q 211 65 175 114 q 325 17 247 17 q 332 8 332 17 q 325 0 332 0 q 249 3 283 0 q 161 6 214 6 q 74 3 107 6 q -6 0 42 0 q -11 8 -11 0 q -6 17 -11 17 q 59 33 32 17 q 113 91 86 49 q 175 211 140 133 l 476 874 q 489 878 478 878 q 501 874 500 879 l 849 190 q 906 87 882 125 q 952 33 931 49 q 996 17 974 17 m 492 931 q 385 976 422 931 q 349 1107 349 1022 q 356 1111 349 1111 q 364 1108 364 1111 q 400 1062 364 1085 q 492 1039 436 1039 q 581 1062 544 1039 q 618 1108 618 1085 q 626 1111 618 1111 q 633 1107 633 1111 q 597 976 633 1022 q 492 931 561 931 m 599 1215 q 637 1224 622 1215 q 669 1253 651 1232 q 677 1251 672 1256 q 679 1243 682 1247 q 619 1153 642 1175 q 564 1132 596 1132 q 510 1140 539 1132 q 452 1157 482 1149 q 390 1165 422 1165 q 348 1156 360 1165 q 319 1128 336 1146 q 312 1131 317 1126 q 310 1138 307 1135 q 339 1185 321 1158 q 381 1231 357 1211 q 431 1250 404 1250 q 478 1242 450 1250 q 538 1224 506 1233 q 599 1215 569 1215 z "},"Ǎ":{"ha":994,"x_min":-11,"x_max":1003,"o":"m 238 318 l 258 357 l 658 357 l 668 318 l 238 318 m 996 17 q 1003 8 1003 17 q 996 0 1003 0 q 909 3 954 0 q 822 6 864 6 q 740 3 775 6 q 663 0 706 0 q 657 8 657 0 q 663 17 657 17 q 728 40 719 17 q 703 131 738 63 l 421 688 l 489 807 l 213 197 q 211 65 175 114 q 325 17 247 17 q 332 8 332 17 q 325 0 332 0 q 249 3 283 0 q 161 6 214 6 q 74 3 107 6 q -6 0 42 0 q -11 8 -11 0 q -6 17 -11 17 q 59 33 32 17 q 113 91 86 49 q 175 211 140 133 l 476 874 q 489 878 478 878 q 501 874 500 879 l 849 190 q 906 87 882 125 q 952 33 931 49 q 996 17 974 17 m 475 954 l 332 1114 q 335 1122 331 1118 q 340 1124 339 1126 l 492 1071 l 642 1126 q 648 1124 644 1128 q 649 1117 651 1119 l 507 954 q 492 949 501 949 q 475 954 482 949 z "},"Â":{"ha":994,"x_min":-11,"x_max":1003,"o":"m 238 318 l 258 357 l 658 357 l 668 318 l 238 318 m 996 17 q 1003 8 1003 17 q 996 0 1003 0 q 909 3 954 0 q 822 6 864 6 q 740 3 775 6 q 663 0 706 0 q 657 8 657 0 q 663 17 657 17 q 728 40 719 17 q 703 131 738 63 l 421 688 l 489 807 l 213 197 q 211 65 175 114 q 325 17 247 17 q 332 8 332 17 q 325 0 332 0 q 249 3 283 0 q 161 6 214 6 q 74 3 107 6 q -6 0 42 0 q -11 8 -11 0 q -6 17 -11 17 q 59 33 32 17 q 113 91 86 49 q 175 211 140 133 l 476 874 q 489 878 478 878 q 501 874 500 879 l 849 190 q 906 87 882 125 q 952 33 931 49 q 996 17 974 17 m 332 951 l 475 1113 q 492 1119 482 1119 q 507 1113 501 1119 l 649 951 q 649 945 653 950 q 642 942 644 940 l 492 996 l 340 942 q 334 945 339 940 q 332 951 329 950 z "},"Ấ":{"ha":994,"x_min":-11,"x_max":1003,"o":"m 238 318 l 258 357 l 658 357 l 668 318 l 238 318 m 996 17 q 1003 8 1003 17 q 996 0 1003 0 q 909 3 954 0 q 822 6 864 6 q 740 3 775 6 q 663 0 706 0 q 657 8 657 0 q 663 17 657 17 q 728 40 719 17 q 703 131 738 63 l 421 688 l 489 807 l 213 197 q 211 65 175 114 q 325 17 247 17 q 332 8 332 17 q 325 0 332 0 q 249 3 283 0 q 161 6 214 6 q 74 3 107 6 q -6 0 42 0 q -11 8 -11 0 q -6 17 -11 17 q 59 33 32 17 q 113 91 86 49 q 175 211 140 133 l 476 874 q 489 878 478 878 q 501 874 500 879 l 849 190 q 906 87 882 125 q 952 33 931 49 q 996 17 974 17 m 332 951 l 475 1113 q 492 1119 482 1119 q 507 1113 501 1119 l 649 951 q 649 945 653 950 q 642 942 644 940 l 492 996 l 340 942 q 334 945 339 940 q 332 951 329 950 m 582 1039 q 573 1042 576 1035 q 571 1053 569 1049 q 615 1126 593 1089 q 651 1197 636 1164 q 672 1200 654 1203 q 715 1190 690 1197 q 760 1174 739 1183 q 793 1158 782 1165 q 793 1146 804 1150 q 680 1097 729 1124 q 582 1039 631 1071 z "},"Ậ":{"ha":994,"x_min":-11,"x_max":1003,"o":"m 238 318 l 258 357 l 658 357 l 668 318 l 238 318 m 996 17 q 1003 8 1003 17 q 996 0 1003 0 q 909 3 954 0 q 822 6 864 6 q 740 3 775 6 q 663 0 706 0 q 657 8 657 0 q 663 17 657 17 q 728 40 719 17 q 703 131 738 63 l 421 688 l 489 807 l 213 197 q 211 65 175 114 q 325 17 247 17 q 332 8 332 17 q 325 0 332 0 q 249 3 283 0 q 161 6 214 6 q 74 3 107 6 q -6 0 42 0 q -11 8 -11 0 q -6 17 -11 17 q 59 33 32 17 q 113 91 86 49 q 175 211 140 133 l 476 874 q 489 878 478 878 q 501 874 500 879 l 849 190 q 906 87 882 125 q 952 33 931 49 q 996 17 974 17 m 499 -287 q 437 -265 460 -287 q 414 -203 414 -243 q 437 -145 414 -167 q 499 -124 460 -124 q 558 -145 538 -124 q 579 -203 579 -167 q 499 -287 579 -287 m 332 951 l 475 1113 q 492 1119 482 1119 q 507 1113 501 1119 l 649 951 q 649 945 653 950 q 642 942 644 940 l 492 996 l 340 942 q 334 945 339 940 q 332 951 329 950 z "},"Ầ":{"ha":994,"x_min":-11,"x_max":1003,"o":"m 238 318 l 258 357 l 658 357 l 668 318 l 238 318 m 996 17 q 1003 8 1003 17 q 996 0 1003 0 q 909 3 954 0 q 822 6 864 6 q 740 3 775 6 q 663 0 706 0 q 657 8 657 0 q 663 17 657 17 q 728 40 719 17 q 703 131 738 63 l 421 688 l 489 807 l 213 197 q 211 65 175 114 q 325 17 247 17 q 332 8 332 17 q 325 0 332 0 q 249 3 283 0 q 161 6 214 6 q 74 3 107 6 q -6 0 42 0 q -11 8 -11 0 q -6 17 -11 17 q 59 33 32 17 q 113 91 86 49 q 175 211 140 133 l 476 874 q 489 878 478 878 q 501 874 500 879 l 849 190 q 906 87 882 125 q 952 33 931 49 q 996 17 974 17 m 332 951 l 475 1113 q 492 1119 482 1119 q 507 1113 501 1119 l 649 951 q 649 945 653 950 q 642 942 644 940 l 492 996 l 340 942 q 334 945 339 940 q 332 951 329 950 m 704 1011 q 608 1069 656 1043 q 499 1118 561 1094 q 498 1130 488 1122 q 530 1147 508 1138 q 576 1163 551 1156 q 618 1172 600 1169 q 639 1169 636 1175 q 674 1099 656 1136 q 715 1025 693 1061 q 715 1015 718 1021 q 704 1011 711 1008 z "},"Ẩ":{"ha":994,"x_min":-11,"x_max":1003,"o":"m 238 318 l 258 357 l 658 357 l 668 318 l 238 318 m 996 17 q 1003 8 1003 17 q 996 0 1003 0 q 909 3 954 0 q 822 6 864 6 q 740 3 775 6 q 663 0 706 0 q 657 8 657 0 q 663 17 657 17 q 728 40 719 17 q 703 131 738 63 l 421 688 l 489 807 l 213 197 q 211 65 175 114 q 325 17 247 17 q 332 8 332 17 q 325 0 332 0 q 249 3 283 0 q 161 6 214 6 q 74 3 107 6 q -6 0 42 0 q -11 8 -11 0 q -6 17 -11 17 q 59 33 32 17 q 113 91 86 49 q 175 211 140 133 l 476 874 q 489 878 478 878 q 501 874 500 879 l 849 190 q 906 87 882 125 q 952 33 931 49 q 996 17 974 17 m 332 951 l 475 1113 q 492 1119 482 1119 q 507 1113 501 1119 l 649 951 q 649 945 653 950 q 642 942 644 940 l 492 996 l 340 942 q 334 945 339 940 q 332 951 329 950 m 615 1013 q 616 1056 610 1036 q 631 1095 622 1076 q 639 1133 639 1114 q 626 1167 639 1157 q 597 1176 613 1176 q 572 1172 583 1176 q 564 1175 569 1169 q 563 1183 558 1181 q 607 1203 585 1197 q 647 1208 629 1208 q 704 1191 683 1208 q 725 1149 725 1174 q 710 1110 725 1128 q 677 1078 696 1093 q 644 1047 658 1063 q 631 1013 631 1031 q 624 1010 631 1011 q 615 1013 617 1008 z "},"Ẫ":{"ha":994,"x_min":-11,"x_max":1003,"o":"m 238 318 l 258 357 l 658 357 l 668 318 l 238 318 m 996 17 q 1003 8 1003 17 q 996 0 1003 0 q 909 3 954 0 q 822 6 864 6 q 740 3 775 6 q 663 0 706 0 q 657 8 657 0 q 663 17 657 17 q 728 40 719 17 q 703 131 738 63 l 421 688 l 489 807 l 213 197 q 211 65 175 114 q 325 17 247 17 q 332 8 332 17 q 325 0 332 0 q 249 3 283 0 q 161 6 214 6 q 74 3 107 6 q -6 0 42 0 q -11 8 -11 0 q -6 17 -11 17 q 59 33 32 17 q 113 91 86 49 q 175 211 140 133 l 476 874 q 489 878 478 878 q 501 874 500 879 l 849 190 q 906 87 882 125 q 952 33 931 49 q 996 17 974 17 m 332 951 l 475 1113 q 492 1119 482 1119 q 507 1113 501 1119 l 649 951 q 649 945 653 950 q 642 942 644 940 l 492 996 l 340 942 q 334 945 339 940 q 332 951 329 950 m 607 1213 q 645 1221 631 1213 q 678 1250 660 1229 q 685 1249 681 1253 q 688 1240 690 1244 q 627 1151 650 1172 q 572 1129 604 1129 q 519 1138 547 1129 q 460 1154 490 1146 q 399 1163 431 1163 q 356 1153 368 1163 q 328 1125 344 1143 q 320 1128 325 1124 q 318 1135 315 1132 q 347 1182 329 1156 q 389 1228 365 1208 q 439 1247 413 1247 q 486 1239 458 1247 q 546 1222 514 1231 q 607 1213 578 1213 z "},"Ȁ":{"ha":994,"x_min":-11,"x_max":1003,"o":"m 238 318 l 258 357 l 658 357 l 668 318 l 238 318 m 996 17 q 1003 8 1003 17 q 996 0 1003 0 q 909 3 954 0 q 822 6 864 6 q 740 3 775 6 q 663 0 706 0 q 657 8 657 0 q 663 17 657 17 q 728 40 719 17 q 703 131 738 63 l 421 688 l 489 807 l 213 197 q 211 65 175 114 q 325 17 247 17 q 332 8 332 17 q 325 0 332 0 q 249 3 283 0 q 161 6 214 6 q 74 3 107 6 q -6 0 42 0 q -11 8 -11 0 q -6 17 -11 17 q 59 33 32 17 q 113 91 86 49 q 175 211 140 133 l 476 874 q 489 878 478 878 q 501 874 500 879 l 849 190 q 906 87 882 125 q 952 33 931 49 q 996 17 974 17 m 646 928 q 657 931 653 925 q 657 942 661 936 q 590 1031 622 986 q 532 1118 558 1075 q 506 1120 529 1125 q 456 1105 483 1115 q 413 1083 429 1094 q 407 1067 396 1072 q 534 1001 478 1035 q 646 928 590 968 m 435 928 q 445 931 442 925 q 446 942 449 936 q 379 1030 410 985 q 321 1118 349 1075 q 295 1120 318 1125 q 245 1105 272 1115 q 201 1083 218 1094 q 196 1067 185 1072 q 323 1001 267 1035 q 435 928 379 968 z "}}}
